<svg xmlns="http://www.w3.org/2000/svg" xmlns:xlink="http://www.w3.org/1999/xlink" width="112" height="48" viewBox="0 0 112 48"><defs><style>.a{fill:#fff;}.b{clip-path:url(#a);}.c{fill:rgba(0,0,0,0.87);}</style><clipPath id="a"><rect class="a" width="112" height="48" transform="translate(45 23)"/></clipPath></defs><g class="b" transform="translate(-45 -23)"><path class="c" d="M5.952-32.016,2.016,0h8.112l1.536-12.528H20.88l.864-7.008H12.528L13.2-24.96H23.328l.864-7.056Zm20.976,10.56L24.288,0h7.92l2.64-21.456Zm.384-8.928a4.3,4.3,0,0,0,4.32,4.32,4.3,4.3,0,0,0,4.32-4.32,4.3,4.3,0,0,0-4.32-4.32A4.3,4.3,0,0,0,27.312-30.384ZM66-21.456H55.68l-2.208,2.5-.816.96a13.665,13.665,0,0,0-1.488,2.064,20.614,20.614,0,0,0-1.68-3.024l-1.584-2.5H38.016l7.776,10.128L34.752,0h10.08l2.5-2.64A38.045,38.045,0,0,0,50.4-6.192,33.192,33.192,0,0,0,52.512-2.88L54.576,0h9.792L55.776-11.136Zm3.936,0L67.3,0h7.92l2.64-21.456Zm.384-8.928a4.3,4.3,0,0,0,4.32,4.32,4.3,4.3,0,0,0,4.32-4.32,4.3,4.3,0,0,0-4.32-4.32A4.3,4.3,0,0,0,70.32-30.384ZM103.968-9.12c.048-.576.1-1.2.1-1.824,0-2.784-.672-5.952-2.88-8.16a11,11,0,0,0-8.112-2.976A12.652,12.652,0,0,0,83.9-18.672a12.191,12.191,0,0,0-3.5,8.88,10.175,10.175,0,0,0,2.928,7.584c1.2,1.1,3.7,2.832,8.208,2.832,2.544,0,6.576-.576,9.312-3.408A10.042,10.042,0,0,0,103.2-6.672H94.56A2.611,2.611,0,0,1,93.5-5.232a3.5,3.5,0,0,1-2.016.576,3.376,3.376,0,0,1-2.448-.816c-1.1-1.008-1.1-2.88-1.1-3.648Zm-15.5-4.464a4.715,4.715,0,0,1,1.152-2.352,3.927,3.927,0,0,1,2.736-1.056,3.647,3.647,0,0,1,2.5.864,3.785,3.785,0,0,1,1.1,2.544Z" transform="translate(48 63)"/></g></svg>