<svg xmlns="http://www.w3.org/2000/svg" xmlns:xlink="http://www.w3.org/1999/xlink" width="375" height="495" viewBox="0 0 375 495">
  <defs>
    <clipPath id="clip-path">
      <rect id="Rectangle_22" data-name="Rectangle 22" width="375" height="495" fill="#fff"/>
    </clipPath>
    <clipPath id="clip-path-2">
      <rect id="Rectangle_18" data-name="Rectangle 18" width="285.879" height="353.862" fill="none"/>
    </clipPath>
  </defs>
  <g id="Mask_Group_2" data-name="Mask Group 2" clip-path="url(#clip-path)">
    <g id="img" transform="translate(18.213 286.848) rotate(-21)">
      <g id="Group_38" data-name="Group 38" transform="translate(0.056 -50.821)">
        <g id="Group_48" data-name="Group 48">
          <path id="Path_96" data-name="Path 96" d="M216.651,111.132c-28.6,33.577-2.11,72.412-2.11,72.412L165,235.957c-34.721-4.633-33.052-30.425-51.62-56.348s-66.115,3.734-79.662-36.5C20.5,103.865,65.7,104.976,26.063,74.3,1.882,55.566-67.485-41.574-66.135-64.312L63.82-228.459,295.762-157.98c23.613,51.758-51.661,236.9-79.111,269.112" transform="translate(0)" fill="#ffe98f"/>
          <path id="Path_97" data-name="Path 97" d="M216.534,23.028a16.02,16.02,0,0,0-.675-2.691,16.776,16.776,0,0,0-2.757-5.043,16.408,16.408,0,0,0-1.865-1.967,15.507,15.507,0,0,0-4.783-2.907,14.057,14.057,0,0,0-2.552-.712,14.489,14.489,0,0,0-5.527,0,14.152,14.152,0,0,0-2.54.712,15.738,15.738,0,0,0-6.648,4.874,16.579,16.579,0,0,0-2.77,5.043,17.848,17.848,0,0,0-.926,5.6,17.7,17.7,0,0,0,.926,5.6,16.382,16.382,0,0,0,2.781,5.043,13.313,13.313,0,0,0,1.854,1.954,15.122,15.122,0,0,0,4.783,2.932,14.258,14.258,0,0,0,2.54.712,14.489,14.489,0,0,0,5.527,0,14.16,14.16,0,0,0,2.552-.712,15.766,15.766,0,0,0,6.636-4.875,16.594,16.594,0,0,0,2.769-5.055,17.75,17.75,0,0,0,.927-5.6,16.246,16.246,0,0,0-.252-2.908m-6.327,2.908a9.081,9.081,0,1,1-18.136,0,9.081,9.081,0,1,1,18.136,0" transform="translate(34.171 2.348)" fill="#fff"/>
          <path id="Path_98" data-name="Path 98" d="M201.278,7.047a.562.562,0,0,0-.541-.463h-3.093a.563.563,0,0,0-.541.463l-1.026,5.112,3.113-.2,3.113.2Z" transform="translate(36.121 1.637)" fill="#fff"/>
          <path id="Path_99" data-name="Path 99" d="M186.344,13.284a.54.54,0,0,0-.65.263l-.773,1.411-.773,1.412a.605.605,0,0,0,.109.725l3.686,3.493,1.4-2.941,1.718-2.745Z" transform="translate(33.909 3.296)" fill="#fff"/>
          <path id="Path_100" data-name="Path 100" d="M184.257,29.674a.605.605,0,0,0-.109.725l.772,1.412.773,1.412a.541.541,0,0,0,.651.262l4.711-1.62-1.717-2.745-1.4-2.941Z" transform="translate(33.909 6.511)" fill="#fff"/>
          <path id="Path_101" data-name="Path 101" d="M197.1,39.372a.562.562,0,0,0,.541.463h3.093a.563.563,0,0,0,.541-.463L202.3,34.26l-3.113.2-3.113-.2Z" transform="translate(36.121 8.52)" fill="#fff"/>
          <path id="Path_102" data-name="Path 102" d="M212.153,33.486a.542.542,0,0,0,.651-.263l.772-1.411.773-1.412a.605.605,0,0,0-.109-.725l-3.686-3.493-1.395,2.941-1.718,2.745Z" transform="translate(38.214 6.511)" fill="#fff"/>
          <path id="Path_103" data-name="Path 103" d="M214.241,17.1a.605.605,0,0,0,.109-.725l-.773-1.412-.772-1.412a.541.541,0,0,0-.651-.262l-4.711,1.62,1.717,2.745,1.4,2.941Z" transform="translate(38.214 3.296)" fill="#fff"/>
          <path id="Path_104" data-name="Path 104" d="M171.177,91.575a13.79,13.79,0,0,0,.123-1.753c0-7.259-5.58-13.142-12.464-13.142a12.705,12.705,0,0,0-12.35,11.458,6.773,6.773,0,0,0-1.9-.278,7.563,7.563,0,0,0,0,15.105h26.36a5.711,5.711,0,0,0,.236-11.389" transform="translate(25.315 19.068)" fill="#fff"/>
          <path id="Path_105" data-name="Path 105" d="M180.781,59.705c0,7.256-5.578,13.137-12.459,13.137s-12.459-5.881-12.459-13.137,5.579-13.137,12.459-13.137,12.459,5.881,12.459,13.137" transform="translate(28.713 11.58)" fill="#ffbc2b"/>
        </g>
      </g>
      <text id="_" data-name="$" transform="translate(193.047 36.448)" fill="#fff" font-size="9" font-family="Helvetica"><tspan x="0" y="0">$</tspan></text>
      <g id="Group_40" data-name="Group 40" transform="translate(0 -32.672)">
        <g id="Group_39" data-name="Group 39" clip-path="url(#clip-path-2)">
          <path id="Path_106" data-name="Path 106" d="M150.454,127.29a16.273,16.273,0,1,1-16.273-16.273,16.273,16.273,0,0,1,16.273,16.273" transform="translate(21.748 20.477)" fill="#f6cb52"/>
          <path id="Path_108" data-name="Path 108" d="M79.265,109.321A14.662,14.662,0,1,1,64.6,94.659a14.662,14.662,0,0,1,14.662,14.662" transform="translate(9.211 17.46)" fill="#fff"/>
          <path id="Path_109" data-name="Path 109" d="M54.037,111.835l-2.729,8.981,8.379-4.052Z" transform="translate(9.464 20.628)" fill="#fff"/>
          <path id="Path_110" data-name="Path 110" d="M59.582,107.259a1.418,1.418,0,1,1-1.418-1.418,1.418,1.418,0,0,1,1.418,1.418" transform="translate(10.467 19.522)" fill="#ffbc2b"/>
          <path id="Path_111" data-name="Path 111" d="M63.958,107.259a1.418,1.418,0,1,1-1.418-1.418,1.418,1.418,0,0,1,1.418,1.418" transform="translate(11.274 19.522)" fill="#ffbc2b"/>
          <path id="Path_112" data-name="Path 112" d="M68.334,107.259a1.418,1.418,0,1,1-1.418-1.418,1.418,1.418,0,0,1,1.418,1.418" transform="translate(12.081 19.522)" fill="#ffbc2b"/>
          <path id="Path_113" data-name="Path 113" d="M83.029,64.342A12.171,12.171,0,1,1,70.857,52.171,12.172,12.172,0,0,1,83.029,64.342" transform="translate(10.825 9.623)" fill="#f6cb52"/>
          <path id="Path_114" data-name="Path 114" d="M75.656,62.5a3.1,3.1,0,0,0-2.895-3.267,2.833,2.833,0,0,0-2.445,1.515.512.512,0,0,1-.9,0,2.834,2.834,0,0,0-2.445-1.515A3.1,3.1,0,0,0,64.076,62.5s-.673,3.595,5.79,6.953c6.464-3.358,5.791-6.953,5.791-6.953" transform="translate(11.815 10.925)" fill="#fff"/>
          <path id="Path_115" data-name="Path 115" d="M164.383,22.547A16.437,16.437,0,1,1,147.946,6.109a16.437,16.437,0,0,1,16.438,16.438" transform="translate(24.257 1.127)" fill="#aca1f0"/>
          <path id="Path_116" data-name="Path 116" d="M155.638,11.52h-4.2V24.709H140.815L137.9,16.422h13.539" transform="translate(25.435 2.125)" fill="none" stroke="#fff" stroke-linecap="round" stroke-miterlimit="10" stroke-width="1"/>
          <path id="Path_117" data-name="Path 117" d="M140.295,25.633H151V22.655" transform="translate(25.877 4.179)" fill="none" stroke="#fff" stroke-linecap="round" stroke-miterlimit="10" stroke-width="1"/>
          <circle id="Ellipse_16" data-name="Ellipse 16" cx="1.441" cy="1.441" r="1.441" transform="translate(166.388 33.332) rotate(-76.717)" fill="none" stroke="#fff" stroke-linecap="round" stroke-miterlimit="10" stroke-width="1"/>
          <circle id="Ellipse_17" data-name="Ellipse 17" cx="1.441" cy="1.441" r="1.441" transform="translate(173.647 33.332) rotate(-76.717)" fill="none" stroke="#fff" stroke-linecap="round" stroke-miterlimit="10" stroke-width="1"/>
          <path id="Path_118" data-name="Path 118" d="M124.529,35.444H96.316L110.4,47.786l14.13-12.306v20.6H96.28V35.42h28.249Z" transform="translate(17.759 6.533)" fill="#fff"/>
          <path id="Path_119" data-name="Path 119" d="M124.524,33.72v.036l-14.13,12.306L96.31,33.72Z" transform="translate(17.764 6.22)" fill="#fff"/>
          <path id="Path_123" data-name="Path 123" d="M43.636,58.309A17.133,17.133,0,1,1,26.5,41.17,17.131,17.131,0,0,1,43.636,58.309" transform="translate(1.728 7.594)" fill="#56c4c5"/>
          <path id="Path_124" data-name="Path 124" d="M40.969,58.309H23.83V41.17A17.122,17.122,0,0,1,39.879,52.316a16.768,16.768,0,0,1,1.09,5.993" transform="translate(4.395 7.594)" fill="#fff"/>
          <path id="Path_125" data-name="Path 125" d="M40.969,56.573H23.83L39.879,50.58a16.768,16.768,0,0,1,1.09,5.993" transform="translate(4.395 9.329)" fill="#f6cb52"/>
          <path id="Path_126" data-name="Path 126" d="M122.731,83.879A12.462,12.462,0,1,1,110.27,71.417a12.461,12.461,0,0,1,12.462,12.462" transform="translate(18.041 13.173)" fill="#56c4c5"/>
          <path id="Path_130" data-name="Path 130" d="M105.775,144.49a12.462,12.462,0,1,1-12.462-12.462,12.461,12.461,0,0,1,12.462,12.462" transform="translate(14.913 24.353)" fill="#56c4c5"/>
          <rect id="Rectangle_14" data-name="Rectangle 14" width="1.98" height="5.036" transform="translate(103.418 168.567)" fill="#fff"/>
          <rect id="Rectangle_15" data-name="Rectangle 15" width="1.98" height="7.64" transform="translate(107.237 165.964)" fill="#fff"/>
          <rect id="Rectangle_16" data-name="Rectangle 16" width="1.98" height="10.8" transform="translate(111.079 162.804)" fill="#fff"/>
          <path id="Path_131" data-name="Path 131" d="M207.767,235.254,181.3,261.807a4.291,4.291,0,0,1-6.067.009l-1.31-1.305a4.291,4.291,0,0,1-.009-6.067l26.467-26.553a4.291,4.291,0,0,1,6.068-.009l1.309,1.305a4.29,4.29,0,0,1,.009,6.067" transform="translate(31.848 41.802)" fill="#56c4c5"/>
          <path id="Path_132" data-name="Path 132" d="M175.9,247.821l11.572,11.792,9.093,1.482,5.489,4.894,9.633-9.309-4.251-4.863-4.04-14.1-2.626,2.635-9.132-8.632Z" transform="translate(32.445 42.74)" fill="#ffd7b8"/>
          <path id="Path_133" data-name="Path 133" d="M181.692,244.661a3.183,3.183,0,1,1-2.629-3.653,3.183,3.183,0,0,1,2.629,3.653" transform="translate(32.346 44.446)" fill="#ffd7b8"/>
          <path id="Path_134" data-name="Path 134" d="M183.965,240.868a3.183,3.183,0,1,1-2.629-3.653,3.183,3.183,0,0,1,2.629,3.653" transform="translate(32.766 43.747)" fill="#ffd7b8"/>
          <path id="Path_135" data-name="Path 135" d="M186.666,237.366a3.183,3.183,0,1,1-2.629-3.653,3.183,3.183,0,0,1,2.629,3.653" transform="translate(33.264 43.101)" fill="#ffd7b8"/>
          <path id="Path_136" data-name="Path 136" d="M190.978,234.657A3.183,3.183,0,1,1,188.348,231a3.183,3.183,0,0,1,2.629,3.653" transform="translate(34.059 42.601)" fill="#ffd7b8"/>
          <path id="Path_137" data-name="Path 137" d="M249.954,288.589l-20.538,18L194.77,265.943,210.192,250Z" transform="translate(35.925 46.112)" fill="#56c4c5"/>
          <rect id="Rectangle_17" data-name="Rectangle 17" width="38.568" height="8.731" transform="matrix(0.706, -0.708, 0.708, 0.706, 224.16, 260.229)" fill="#56c4c5"/>
          <path id="Path_138" data-name="Path 138" d="M171.345,164.4a10.25,10.25,0,1,1-14.5.024,10.25,10.25,0,0,1,14.5-.024" transform="translate(28.379 29.772)" fill="#fff"/>
          <path id="Path_139" data-name="Path 139" d="M155.127,162.875h0a1.2,1.2,0,0,1-1.693,0l-8.226-8.2a1.2,1.2,0,0,1,1.689-1.695l8.227,8.2a1.2,1.2,0,0,1,0,1.693" transform="translate(26.719 28.153)" fill="#fff"/>
          <path id="Path_140" data-name="Path 140" d="M152.13,170.392h0a1.2,1.2,0,0,1-1.2,1.2l-11.615.019a1.2,1.2,0,0,1,0-2.394l11.615-.019a1.2,1.2,0,0,1,1.2,1.2" transform="translate(25.477 31.208)" fill="#fff"/>
          <path id="Path_141" data-name="Path 141" d="M162.561,159.68h0a1.2,1.2,0,0,1-1.2-1.2l-.019-11.615a1.2,1.2,0,1,1,2.394,0l.019,11.615a1.2,1.2,0,0,1-1.2,1.2" transform="translate(29.76 26.869)" fill="#fff"/>
          <path id="Path_142" data-name="Path 142" d="M233.273,224.224a13.964,13.964,0,0,1-3.411,5.579l-1.575,1.575-5.827,5.863a14.044,14.044,0,0,1-19.851.024l-8.137-8.1,15.374-15.421,5.567-5.579,6.289-6.313,8.137,8.1a14.049,14.049,0,0,1,3.435,14.273" transform="translate(35.87 37.231)" fill="#f6cb52"/>
          <path id="Path_143" data-name="Path 143" d="M164.282,167.978l47.866,47.711-13.511,13.556-58.179-30.253a3.864,3.864,0,0,1-.953-6.156Z" transform="translate(25.524 30.983)" fill="#f6cb52"/>
          <path id="Path_144" data-name="Path 144" d="M160.248,172.026l47.866,47.711,13.512-13.555L191.185,148.1a3.864,3.864,0,0,0-6.159-.933Z" transform="translate(29.558 26.935)" fill="#f6cb52"/>
          <path id="Path_145" data-name="Path 145" d="M203.3,192.128h0a1.581,1.581,0,0,1-2.133-.651l-18.674-35.085a1.577,1.577,0,1,1,2.785-1.482l18.674,35.085a1.583,1.583,0,0,1-.651,2.133" transform="translate(33.627 28.419)" fill="#ffe98f"/>
          <path id="Path_146" data-name="Path 146" d="M200.974,190.6a1.822,1.822,0,1,1,1.328,2.209,1.823,1.823,0,0,1-1.328-2.209" transform="translate(37.06 34.9)" fill="#ffe98f"/>
          <path id="Path_147" data-name="Path 147" d="M216.232,208.49a1.822,1.822,0,1,1,1.328,2.209,1.823,1.823,0,0,1-1.328-2.209" transform="translate(39.874 38.201)" fill="#ffe98f"/>
          <path id="Path_148" data-name="Path 148" d="M220.561,212.688a1.823,1.823,0,1,1,1.329,2.209,1.822,1.822,0,0,1-1.329-2.209" transform="translate(40.672 38.975)" fill="#ffe98f"/>
          <line id="Line_4" data-name="Line 4" y2="12.594" transform="translate(80.638 35.529)" fill="#fff"/>
          <line id="Line_5" data-name="Line 5" y2="12.594" transform="translate(80.638 35.529)" fill="none" stroke="#fff" stroke-linecap="round" stroke-miterlimit="10" stroke-width="1"/>
          <line id="Line_6" data-name="Line 6" x1="12.594" transform="translate(74.341 41.827)" fill="#fff"/>
          <line id="Line_7" data-name="Line 7" x1="12.594" transform="translate(74.341 41.827)" fill="none" stroke="#fff" stroke-linecap="round" stroke-miterlimit="10" stroke-width="1"/>
          <line id="Line_8" data-name="Line 8" y2="12.594" transform="translate(163.332 67.727)" fill="#fff"/>
          <line id="Line_9" data-name="Line 9" y2="12.594" transform="translate(163.332 67.727)" fill="none" stroke="#fff" stroke-linecap="round" stroke-miterlimit="10" stroke-width="1"/>
          <line id="Line_10" data-name="Line 10" x1="12.594" transform="translate(157.035 74.025)" fill="#fff"/>
          <line id="Line_11" data-name="Line 11" x1="12.594" transform="translate(157.035 74.025)" fill="none" stroke="#fff" stroke-linecap="round" stroke-miterlimit="10" stroke-width="1"/>
          <line id="Line_12" data-name="Line 12" y2="12.594" transform="translate(115.849 126.65)" fill="#fff"/>
          <line id="Line_13" data-name="Line 13" y2="12.594" transform="translate(115.849 126.65)" fill="none" stroke="#fff" stroke-linecap="round" stroke-miterlimit="10" stroke-width="1"/>
          <line id="Line_14" data-name="Line 14" x1="12.594" transform="translate(109.551 132.947)" fill="#fff"/>
          <line id="Line_15" data-name="Line 15" x1="12.594" transform="translate(109.551 132.947)" fill="none" stroke="#fff" stroke-linecap="round" stroke-miterlimit="10" stroke-width="1"/>
          <path id="Path_149" data-name="Path 149" d="M162.218,116.256a2.46,2.46,0,1,1-2.46-2.46,2.46,2.46,0,0,1,2.46,2.46" transform="translate(29.014 20.99)" fill="#ffbc2b"/>
          <path id="Path_150" data-name="Path 150" d="M122.973,163.87a2.46,2.46,0,1,1-2.46-2.46,2.46,2.46,0,0,1,2.46,2.46" transform="translate(21.775 29.772)" fill="#ffbc2b"/>
          <path id="Path_151" data-name="Path 151" d="M174.465,23.818a2.46,2.46,0,1,1-2.891-1.935,2.46,2.46,0,0,1,2.891,1.935" transform="translate(31.281 4.027)" fill="#ffbc2b"/>
          <path id="Path_152" data-name="Path 152" d="M82.034,87.136A2.46,2.46,0,1,1,79.143,85.2a2.46,2.46,0,0,1,2.891,1.935" transform="translate(14.232 15.706)" fill="#ffbc2b"/>
          <path id="Path_153" data-name="Path 153" d="M207.425,70.34a3.52,3.52,0,1,1-3.52-3.52,3.521,3.521,0,0,1,3.52,3.52" transform="translate(-75.911 22.49)" fill="#fff"/>
          <path id="Path_154" data-name="Path 154" d="M211.36,79.458a7.075,7.075,0,0,0-13.849,0Z" transform="translate(-76.441 23.785)" fill="#fff"/>
          <g id="thumbs-up" transform="translate(149.192 139.884)">
            <path id="Path_155" data-name="Path 155" d="M19.16,15.378a1.2,1.2,0,1,1-.039,2.4H11.7a3.383,3.383,0,0,1-2.12-.748V9.069A8.8,8.8,0,0,0,13.14,4.31a1.239,1.239,0,0,1,1.188-.972h.079a1.216,1.216,0,0,1,1.214,1.215v3.6h3.473a1.247,1.247,0,0,1,1.254,1.011A1.206,1.206,0,0,1,19.16,10.56a1.2,1.2,0,1,1,0,2.409,1.2,1.2,0,1,1,0,2.409Z" transform="translate(-5.506 -3.339)" fill="#fff"/>
            <path id="Path_156" data-name="Path 156" d="M6.113,12.07V20a.68.68,0,0,1-.68.68H3.68A.68.68,0,0,1,3,20V12.07a.68.68,0,0,1,.68-.68H5.433A.68.68,0,0,1,6.113,12.07Z" transform="translate(-3 -6.404)" fill="#fff"/>
          </g>
        </g>
      </g>
    </g>
  </g>
</svg>
