<?xml version="1.0" encoding="UTF-8"?><svg xmlns="http://www.w3.org/2000/svg" viewBox="0 0 841.89 841.89"><defs><style>.f{opacity:.1;}.g{fill:#f6cb52;}.h{fill:#e8f2fb;}.i{fill:#fff;}.j{fill:#ff5d50;}.k{fill:#8cba59;}.l{fill:#8fbd5a;}.m{fill:#8da3bd;}.n{fill:#e39cbd;}.o{fill:#dc7972;}.p{fill:#dd828e;}.q{fill:#d86156;}.r{fill:#6464eb;}.s{fill:#5979ec;}.t{fill:#56c4c5;}.u{fill:#58595b;}.v{fill:#748fee;}.w{stroke-linecap:round;stroke-linejoin:round;stroke-width:3.2px;}.w,.x{fill:none;stroke:#58595b;}.x{stroke-miterlimit:10;stroke-width:1.47px;}.y{fill:#719642;opacity:.57;}</style></defs><g id="a"><rect class="g" x="-.27" width="841.89" height="841.89"/></g><g id="b"/><g id="c"><path class="i" d="M591.13,290.66c0-30.84-25-55.84-55.83-55.84h-180.64c-30.83,0-55.82,24.99-55.82,55.84v167.49s19.63,12.36,292.29,0v-167.49Z"/><path class="j" d="M382.4,438.79c-14.47,0-25.04-10.65-25.41-22.82-.06-2.1,1.79-3.74,3.89-3.51,14.31,1.54,28.74,1.54,43.06,0,2.09-.23,3.95,1.41,3.89,3.51-.38,12.17-10.94,22.82-25.42,22.82Z"/><ellipse class="u" cx="406.96" cy="382.1" rx="6.31" ry="7.05"/><ellipse class="u" cx="352.92" cy="382.1" rx="6.31" ry="7.05"/><path class="x" d="M376.68,385.09s-8.27,16.33-7.38,19.34,9.45,1.51,9.45,1.51"/><path class="u" d="M497.32,299.57s-67.58,32.35-140.18,38.82c-34.67,3.09-98.1-20.34-101.23-30.7,0,0,15.81-1.94,19.73-13.05,3.91-11.11-26.6-9.62-30.51-19.25,0,0,24.25-2.96,32.07-10.37,7.82-7.4-21.9-5.18-30.51-12.59,0,0,34.27-6.47,69.47-42.01,35.2-35.54,67.27-65.18,159.73-57.2,79.66,6.88,114.72,66.39,120.48,99.46,0,0,13.46,7.18,13.82,23.16,.78,34.8-.95,173.65-19.06,182.63-30.12,14.94-17.72-11.92-17.72-11.92,.69-42.01-62.89-51.76-52.48-73.21,15.93-32.8-10.59,6.29-14.5-4.08s-11.46-26.75-9.11-69.7Z"/><path class="w" d="M397.27,360.36s11.47-9.17,29.43,4.2"/><path class="w" d="M336.35,365.55s7.86-12.4,29.2-5.59"/></g><g id="d"><polygon class="i" points="325.18 97.18 302.17 101.19 325.18 105.2 329.19 128.21 333.2 105.2 356.21 101.19 333.2 97.18 329.19 74.18 325.18 97.18"/><polygon class="i" points="208.46 737 187.07 740.72 208.46 744.46 212.19 765.85 215.92 744.46 237.31 740.73 215.92 737 212.19 715.61 208.46 737"/><polygon class="i" points="78.4 300.35 42.29 274.96 67.68 311.07 42.29 347.19 78.4 321.8 114.51 347.19 89.12 311.07 114.51 274.96 78.4 300.35"/><polygon class="i" points="759.38 536.86 731.42 517.21 751.08 545.16 731.42 573.12 759.38 553.46 787.33 573.12 767.68 545.16 787.33 517.21 759.38 536.86"/><g><path class="t" d="M355.33,488.77c-17.62-4.43-35.24-8.87-52.86-13.3-14.88,59.13-67.91,100.68-128.89,100.97,.08,18.17,.17,36.34,.26,54.51,85.86-.41,160.54-58.92,181.49-142.18Z"/><path class="i" d="M173.57,576.44s2.05-9.98-11.7-11.09c-13.75-1.11-9.84,10.5-9.84,10.5,0,0-37.58-10.32-40.5,27.32-2.92,37.64,62.3,27.79,62.3,27.79l-.26-54.51Z"/></g><path class="t" d="M621.73,1032.31h0c-152.23-203.68-111.16-340.57-29.91-574.25H299.07c-17.91,370.85,140.1,391.69,322.66,574.25Z"/><g><path class="f" d="M579.14,514.19s60.53,25.38,4.94,54.06c-17.7,9.13-43.75,9.9-64.49,10.31-.36-18.17-.72-30.31-1.07-48.48,21.75-.42,42.4-6.08,60.62-15.9Z"/><g><path class="t" d="M519.58,578.57c-.36-18.17-.71-36.33-1.07-54.5,60.96-1.2,113.38-43.53,127.38-102.88,17.68,4.17,35.37,8.34,53.05,12.52-19.71,83.56-93.52,143.17-179.36,144.86Z"/><path class="i" d="M645.89,421.19s-10.18-.24-8.18-13.89c2.01-13.65,12.44-7.23,12.44-7.23,0,0-1.61-38.93,35.73-33.32,37.33,5.62,13.06,66.95,13.06,66.95l-53.05-12.52Z"/></g></g><path class="i" d="M506.43,369.27s12.54-20.62,25.81-4.32c13.27,16.31,19.42,20.38,4.67,32.61-14.75,12.23-32.7-25.66-32.7-25.66l2.21-2.64Z"/></g><g id="e"><g><path class="v" d="M241.36,458.9c0,41.54-33.68,75.22-75.22,75.22s-75.22-33.68-75.22-75.22,33.68-75.22,75.22-75.22,75.22,33.68,75.22,75.22Z"/><path class="s" d="M241.33,456.74c-1.19-41.53-35.82-74.23-77.34-73.04-3.96,.11-7.83,.53-11.61,1.23,34.11,6.32,60.39,35.73,61.42,71.81,1.08,37.57-25.59,69.49-61.43,76.11,5.15,.96,10.47,1.39,15.92,1.23,41.53-1.19,74.23-35.82,73.04-77.34Z"/><path class="i" d="M160.84,506.57c-3.67,0-6.64-2.97-6.64-6.64v-65.4c0-12.85,10.46-23.31,23.31-23.31h7.87c3.67,0,6.64,2.97,6.64,6.64s-2.97,6.64-6.64,6.64h-7.87c-5.53,0-10.03,4.5-10.03,10.03v65.4c0,3.67-2.97,6.64-6.64,6.64Z"/><path class="i" d="M176.3,464.26h-30.15c-3.67,0-6.64-2.97-6.64-6.64s2.97-6.64,6.64-6.64h30.15c3.67,0,6.64,2.97,6.64,6.64s-2.97,6.64-6.64,6.64Z"/></g><g><path class="o" d="M787.06,700.3c0,48.33-39.18,87.51-87.51,87.51s-87.51-39.18-87.51-87.51,39.18-87.51,87.51-87.51,87.51,39.18,87.51,87.51Z"/><path class="q" d="M699.54,612.79c-6.78,0-13.38,.77-19.71,2.23,38.84,8.94,67.8,43.73,67.8,85.28s-28.96,76.34-67.8,85.28c6.33,1.46,12.93,2.23,19.71,2.23,48.33,0,87.51-39.18,87.51-87.51s-39.18-87.51-87.51-87.51Z"/><path class="i" d="M680.85,699.34v-27.8c0-2.05,2.21-3.32,3.99-2.3l24.06,13.9,24.06,13.9c1.77,1.03,1.77,3.58,0,4.61l-24.06,13.9-24.06,13.9c-1.77,1.02-3.99-.26-3.99-2.3v-27.8Z"/></g><g><path class="n" d="M783.38,125.75c0,52.71-42.73,95.44-95.44,95.44s-95.44-42.73-95.44-95.44,42.73-95.44,95.44-95.44,95.44,42.73,95.44,95.44Z"/><path class="p" d="M687.94,30.31c-6.59,0-13.03,.67-19.24,1.94,43.49,8.9,76.2,47.38,76.2,93.5s-32.71,84.6-76.2,93.5c6.21,1.27,12.65,1.94,19.24,1.94,52.71,0,95.44-42.73,95.44-95.44s-42.73-95.44-95.44-95.44Z"/><path class="i" d="M721.44,181.08h-67.01c-12.04,0-21.83-9.79-21.83-21.83V92.25c0-12.04,9.79-21.83,21.83-21.83h67.01c12.04,0,21.83,9.79,21.83,21.83v67.01c0,12.04-9.79,21.83-21.83,21.83Zm-67.01-93.81c-2.74,0-4.97,2.23-4.97,4.97v67.01c0,2.74,2.23,4.97,4.97,4.97h67.01c2.74,0,4.97-2.23,4.97-4.97V92.25c0-2.74-2.23-4.97-4.97-4.97h-67.01Z"/><path class="i" d="M687.94,149.78c-13.25,0-24.02-10.78-24.02-24.03s10.78-24.02,24.02-24.02,24.03,10.78,24.03,24.02-10.78,24.03-24.03,24.03Zm0-31.2c-3.95,0-7.17,3.22-7.17,7.17s3.22,7.17,7.17,7.17,7.17-3.22,7.17-7.17c0-3.95-3.21-7.17-7.17-7.17Z"/></g><g><path class="m" d="M666.38,424.6l15.6-61.52c1.23-4.87-1.71-9.8-6.58-11.05-4.87-1.23-9.82,1.71-11.05,6.58l-15.6,61.52c-1.2,4.71,1.52,9.5,6.12,10.92,.15,.05,.3,.09,.46,.13,4.87,1.23,9.81-1.71,11.05-6.58Z"/><path class="n" d="M694.74,367.53l-36.4-11.27c-4.42-1.37-6.89-6.06-5.52-10.47l12.93-41.75c1.37-4.41,6.05-6.89,10.47-5.52l36.4,11.27c.69,.21,1.07,.94,.86,1.63l-17.11,55.25c-.21,.69-.94,1.07-1.63,.86Z"/><path class="h" d="M764.63,419.61c-8.76-9.98-20.04-21.27-34.2-32.42-11.87-9.36-23.31-16.68-33.48-22.39l15.95-51.5c11.64,1.06,25.28,1.5,40.47,.48,17.92-1.21,33.55-4.16,46.34-7.44l-35.08,113.28Z"/><path class="r" d="M759.44,436.37c-4.8-1.49-7.48-6.58-6-11.38l40.08-129.42c1.49-4.8,6.58-7.48,11.38-6s7.48,6.58,6,11.38l-40.08,129.42c-1.49,4.8-6.58,7.48-11.38,6Z"/></g><g><path class="k" d="M238.04,151c0,46.67-37.84,84.5-84.5,84.5s-84.5-37.84-84.5-84.5,37.83-84.5,84.5-84.5,84.5,37.84,84.5,84.5Z"/><path class="y" d="M153.54,66.49c-4.91,0-9.72,.42-14.41,1.23,39.81,6.84,70.1,41.52,70.1,83.28s-30.29,76.44-70.1,83.28c4.68,.8,9.5,1.23,14.41,1.23,46.67,0,84.5-37.84,84.5-84.5s-37.84-84.5-84.5-84.5Z"/><g><path class="i" d="M205.05,151.78c.25-1.29,.37-2.38,.42-3.23,.09-1.41-.01-3.5-.05-4.15-1.3-22.56-24.7-40.53-53.38-40.53s-53.44,19.03-53.44,42.51c0,21.58,20.21,39.4,46.4,42.14,1.6,.17,2.75,1.61,2.58,3.21l-1.11,10.04c-.25,2.28,2.1,3.94,4.17,2.94,22.12-10.68,35.35-21.66,43.25-31.18,1.44-1.73,6.13-8.3,7.08-10.02,2.03-3.66,3.43-7.6,4.09-11.71Z"/><g><path class="l" d="M122.66,154.98v-17.9c0-1.51-1.22-2.73-2.73-2.73h0c-1.51,0-2.73,1.22-2.73,2.73v20.64c0,1.51,1.22,2.73,2.73,2.73h10.93c1.51,0,2.73-1.22,2.73-2.73h0c0-1.51-1.22-2.73-2.73-2.73h-8.2Z"/><path class="l" d="M139.52,160.45h-1.19c-1.18,0-2.14-.96-2.14-2.14v-21.83c0-1.18,.96-2.14,2.14-2.14h1.19c1.18,0,2.14,.96,2.14,2.14v21.83c0,1.18-.96,2.14-2.14,2.14Z"/><path class="l" d="M161.61,137.07v12.61s-10.92-14.24-11.08-14.43c-.52-.59-1.29-.95-2.14-.91-1.49,.06-2.63,1.36-2.63,2.84v20.53c0,1.51,1.22,2.73,2.73,2.73h0c1.51,0,2.73-1.22,2.73-2.73v-12.53s11.08,14.36,11.25,14.52c.48,.46,1.13,.74,1.85,.75,1.52,.01,2.76-1.33,2.76-2.85v-20.52c0-1.51-1.22-2.73-2.73-2.73h0c-1.51,0-2.73,1.22-2.73,2.73Z"/><path class="l" d="M187.58,137.07h0c0-1.51-1.22-2.73-2.73-2.73h-10.93c-1.51,0-2.73,1.22-2.73,2.73v20.64c0,1.51,1.22,2.73,2.73,2.73h10.93c1.51,0,2.73-1.22,2.73-2.73h0c0-1.51-1.22-2.73-2.73-2.73h-8.2v-4.85h8.2c1.51,0,2.73-1.22,2.73-2.73h0c0-1.51-1.22-2.73-2.73-2.73h-8.2v-4.85h8.2c1.51,0,2.73-1.22,2.73-2.73Z"/></g></g></g><path class="i" d="M299.07,458.06s36.15,14.8,83.98,18.61c47.83,3.8,168.07-4.6,208.77-18.61,40.7-14.01-293.56-5.85-293.56-5.85l.81,5.85Z"/></g></svg>