<?xml version="1.0" encoding="UTF-8"?><svg xmlns="http://www.w3.org/2000/svg" viewBox="0 0 841.89 841.89"><defs><style>.f{opacity:.1;}.g{fill:#f6eacd;}.h{fill:#6a61ab;}.i{fill:#ecc679;}.j{fill:#f4e197;}.k{fill:#f6cb52;}.l{fill:#e9b968;}.m{fill:#fff;}.n{fill:#eceaed;}.o{fill:#ff5d50;}.p{fill:#b8f4fc;}.q{fill:#dfdde0;}.r{fill:#1e465f;}.s{fill:#0d2330;}.t{fill:#8079b6;}.u{fill:#34708b;}.v{fill:#56c4c5;}.w{fill:#58595b;}.x{stroke-miterlimit:10;stroke-width:1.47px;}.x,.y{fill:none;stroke:#58595b;}.y{stroke-linecap:round;stroke-linejoin:round;stroke-width:2px;}</style></defs><g id="a"><rect class="k" x="-.27" width="841.89" height="841.89"/></g><g id="b"/><g id="c"><path class="m" d="M593.75,289.92c0-31.88-25-57.71-55.83-57.71h-180.64c-30.83,0-55.82,25.83-55.82,57.71v173.1s19.63,12.78,292.29,0v-173.1Z"/><path class="o" d="M382.4,438.79c-14.47,0-25.04-10.65-25.41-22.82-.06-2.1,1.79-3.74,3.89-3.51,14.31,1.54,28.74,1.54,43.06,0,2.09-.23,3.95,1.41,3.89,3.51-.38,12.17-10.94,22.82-25.42,22.82Z"/><ellipse class="w" cx="406.96" cy="382.1" rx="6.31" ry="7.05"/><ellipse class="w" cx="352.92" cy="382.1" rx="6.31" ry="7.05"/><path class="x" d="M376.68,385.09s-8.27,16.33-7.38,19.34c.89,3.01,9.45,1.51,9.45,1.51"/><path class="y" d="M370.6,377.41s4.01-2.29,10.64,.33"/><path class="w" d="M386.49,267.8s-28.68-34.02-32.02-11.34c-3.34,22.68-7.34,81.38-42.02,83.38s-60.7-33.35-48.03-57.36c12.67-24.01,40.69-23.35,32.68-42.02-8-18.68-8-26.01,9.34-48.69s48.03,2.67,52.7-1.33c4.67-4-7.34-25.35,36.02-39.35,43.36-14.01,54.7,18.01,66.7,21.35,12.01,3.34,54.03,0,92.05,34.02s73.37,118.06,56.7,184.77c0,0-9.62,47.82-15.15,58.6-5.53,10.77-26.4,15.14-22.06-3.25,4.51-19.1-39.83-20.97-36.5-48.99,3.34-28.02-13.14-26.96-30.48-28.3-17.34-1.33-79.92-22.76-83.25-78.12,0,0,10.67-40.69-11.34-41.36s-25.35,18.01-25.35,18.01Z"/><circle class="y" cx="344.08" cy="378.69" r="25.78"/><path class="y" d="M432.77,378.69c0,.87-.04,1.72-.13,2.56-1.29,13.04-12.28,23.22-25.66,23.22-14.24,0-25.78-11.54-25.78-25.78s11.54-25.78,25.78-25.78,25.78,11.54,25.78,25.78Z"/><line class="y" x1="433.18" y1="378.46" x2="507.03" y2="367.16"/></g><g id="d"><polygon class="m" points="325.18 97.18 302.17 101.19 325.18 105.2 329.19 128.21 333.2 105.2 356.21 101.19 333.2 97.18 329.19 74.18 325.18 97.18"/><polygon class="m" points="523.07 719.74 501.68 723.47 523.07 727.2 526.8 748.59 530.53 727.2 551.92 723.48 530.53 719.74 526.8 698.35 523.07 719.74"/><polygon class="m" points="78.4 300.35 42.29 274.96 67.68 311.07 42.29 347.19 78.4 321.8 114.51 347.19 89.12 311.07 114.51 274.96 78.4 300.35"/><polygon class="m" points="759.38 536.86 731.42 517.21 751.08 545.16 731.42 573.12 759.38 553.46 787.33 573.12 767.68 545.16 787.33 517.21 759.38 536.86"/><g><path class="v" d="M355.33,488.77c-17.62-4.43-35.24-8.87-52.86-13.3-14.88,59.13-67.91,100.68-128.89,100.97,.08,18.17,.17,36.34,.26,54.51,85.86-.41,160.54-58.92,181.49-142.18Z"/><path class="m" d="M173.57,576.44s2.05-9.98-11.7-11.09c-13.75-1.11-9.84,10.5-9.84,10.5,0,0-37.58-10.32-40.5,27.32-2.92,37.64,62.3,27.79,62.3,27.79l-.26-54.51Z"/></g><path class="v" d="M270.52,1069.12h0c-152.23-203.68,321.3-397.27,321.3-611.06H299.07c0,224.78-211.11,428.51-28.56,611.06Z"/><g><path class="f" d="M579.14,514.19s60.53,25.38,4.94,54.06c-17.7,9.13-43.75,9.9-64.49,10.31-.36-18.17-.72-30.31-1.07-48.48,21.75-.42,42.4-6.08,60.62-15.9Z"/><g><path class="v" d="M519.58,578.57c-.36-18.17-.71-36.33-1.07-54.5,60.96-1.2,113.38-43.53,127.38-102.88,17.68,4.17,35.37,8.34,53.05,12.52-19.71,83.56-93.52,143.17-179.36,144.86Z"/><path class="m" d="M645.89,421.19s-10.18-.24-8.18-13.89c2.01-13.65,12.44-7.23,12.44-7.23,0,0-1.61-38.93,35.73-33.32,37.33,5.62,13.06,66.95,13.06,66.95l-53.05-12.52Z"/></g></g><path class="m" d="M506.43,369.27s12.54-20.62,25.81-4.32,19.42,20.38,4.67,32.61c-14.75,12.23-32.7-25.66-32.7-25.66l2.21-2.64Z"/></g><g id="e"><g><path class="s" d="M206.25,501.44s-1.43-.42-4.22-1.14l-74.76-12.47c-38.63-3.9-61.11-2.19-61.11-2.19l-.97,123.2,130.79,15.15c10.4,1.2,19.89-6.32,21.09-16.71l8.81-76.11c1.47-12.72-7.36-26.09-19.64-29.73Z"/><path class="r" d="M40.21,510.03l-8.77,75.75c-1.2,10.4,6.32,19.89,16.71,21.09l17.05,1.97c10.4,1.2,19.89-6.32,21.09-16.71l8.77-75.75-54.85-6.35Z"/><circle class="u" cx="67.64" cy="513.21" r="27.61"/><g><circle class="r" cx="67.64" cy="513.21" r="8.49"/><path class="r" d="M205.71,449.64c-.26-9.34-8.06-17.86-17.35-18.94l-1.27-.15-15.74,6.73-13.79-10.15-2.95-.34c-9.28-1.07-18.83,5.44-21.22,14.47,0,0-18.49,69.95-22.49,104.46l.16,.02,24.91-65.66c2.62-8.39,4.68-13.5,4.72-13.62,1.36-3.35,6.41-6.34,10-5.92l33.75,3.91c3.59,.42,7.82,4.48,8.38,8.05,.02,.12,.84,5.57,1.47,14.33l9.26,69.62h.16c4-34.5,1.98-106.82,1.98-106.82Z"/></g><path class="u" d="M202,500.07c-1.44-9.23-10.22-17.66-19.5-18.74l-33.75-3.91c-9.28-1.07-19.75,5.13-23.27,13.79,0,0-11.55,28.45-15.55,62.96l92.82,10.75c4-34.51-.75-64.84-.75-64.84Z"/><circle class="r" cx="156.34" cy="559.54" r="46.72"/><circle class="m" cx="156.34" cy="559.54" r="29.73"/><g><path class="p" d="M154.02,579.57c-5.13-.59-10.04-3.14-13.49-7.5-1.09-1.38-.86-3.38,.52-4.47,1.38-1.09,3.38-.86,4.47,.52,4.73,5.97,13.43,6.97,19.39,2.25,4.42-3.5,6.25-9.28,4.67-14.71-.49-1.69,.48-3.46,2.16-3.95s3.46,.48,3.95,2.16c2.32,7.93-.36,16.37-6.82,21.49-4.36,3.45-9.72,4.81-14.85,4.22Z"/><path class="p" d="M145.42,549.39c-.81-.09-1.58-.5-2.13-1.19-1.09-1.38-.86-3.38,.52-4.47,6.46-5.12,15.29-5.8,22.48-1.73,1.53,.87,2.07,2.81,1.2,4.34-.87,1.53-2.81,2.07-4.34,1.2-4.93-2.79-10.97-2.32-15.39,1.18-.69,.55-1.54,.76-2.35,.67Z"/><rect class="p" x="160.49" y="424.53" width="21.24" height="29.73" transform="translate(-285.05 558.82) rotate(-83.39)"/></g></g><g><path class="j" d="M747.26,36.1c-41.08-13.01-85.1,9.88-98.05,50.98-8.61,27.32-1.43,55.83,16.42,75.71,3.17,3.53,4.2,8.49,2.77,13.01l-5.72,18.14c.82-.07,1.66,0,2.49,.27l58.49,18.44c.83,.26,1.57,.68,2.19,1.21l5.72-18.14c1.44-4.58,5.21-8.01,9.88-9.11,25.95-6.09,48.11-25.31,56.71-52.58,12.95-41.1-9.83-84.92-50.91-97.92Z"/><path class="i" d="M688.08,182c1.43-4.52,.4-9.48-2.77-13.01-17.85-19.87-25.03-48.39-16.42-75.71,11.89-37.73,49.98-60.11,87.93-53.45-3.06-1.43-6.25-2.68-9.56-3.73-41.08-13.01-85.1,9.88-98.05,50.98-8.61,27.32-1.43,55.83,16.42,75.71,3.17,3.53,4.2,8.49,2.77,13.01l-5.72,18.14c.82-.07,1.66,0,2.49,.27l17.34,5.47,5.57-17.67Z"/><path class="l" d="M702.62,209.94c-1.97-.62-3.07-2.72-2.45-4.7l10.07-31.97c1.01-3.21,3.09-6.04,5.86-7.96l7.2-5.01c1.41-.98,2.47-2.43,2.99-4.07l10.51-33.36c.62-1.97,2.72-3.07,4.7-2.45s3.07,2.72,2.45,4.7l-10.51,33.36c-1.01,3.21-3.09,6.04-5.86,7.96l-7.2,5.01c-1.41,.98-2.47,2.43-2.99,4.07l-10.07,31.97c-.62,1.97-2.72,3.07-4.7,2.45Z"/><path class="l" d="M683.96,204.06c-1.97-.62-3.07-2.72-2.45-4.7l10.07-31.97c.52-1.64,.47-3.43-.12-5.05l-3.03-8.23c-1.16-3.16-1.25-6.67-.23-9.88l10.51-33.36c.62-1.97,2.72-3.07,4.7-2.45s3.07,2.72,2.45,4.7l-10.51,33.36c-.52,1.64-.47,3.43,.12,5.05l3.03,8.23c1.16,3.16,1.24,6.67,.23,9.88l-10.07,31.97c-.62,1.97-2.72,3.07-4.7,2.45Z"/><path class="g" d="M780.24,112.34c.67-15.62-5.46-30.8-16.83-41.63-1.5-1.43-1.55-3.8-.13-5.29,1.43-1.5,3.8-1.55,5.29-.13,12.94,12.32,19.92,29.59,19.15,47.37-.09,2.07-1.84,3.67-3.9,3.58-2.06-.09-3.67-1.84-3.58-3.9Z"/><path class="t" d="M663.51,251.18l-.82,2.62c-2.5,7.93,1.94,16.47,9.88,18.97,7.93,2.5,16.47-1.94,18.97-9.88l.82-2.62-28.85-9.09Z"/><path class="h" d="M675.59,257.87l.82-2.62-12.91-4.07-.82,2.62c-2.5,7.93,1.94,16.47,9.88,18.97,2.32,.73,4.69,.86,6.94,.5-3.96-3.87-5.68-9.78-3.91-15.4h0Z"/><path class="i" d="M741.57,132.66l-45.22-14.25c-1.97-.62-3.07-2.72-2.45-4.7s2.72-3.07,4.7-2.45l45.22,14.25c1.97,.62,3.07,2.72,2.45,4.7s-2.72,3.07-4.7,2.45Z"/><path class="n" d="M707.95,245.89l-48.97-15.44c-3.42-1.08-7.07,.83-8.15,4.24l-1.66,5.28c-1.08,3.42,.83,7.07,4.24,8.15l48.97,15.44c3.42,1.08,7.07-.83,8.15-4.24l1.66-5.28c1.08-3.42-.83-7.07-4.24-8.15Z"/><path class="q" d="M705.16,254.73l-48.97-15.44c-2.8-.88-4.58-3.49-4.54-6.29-.35,.51-.63,1.08-.82,1.7l-1.66,5.28c-1.08,3.42,.83,7.07,4.24,8.15l48.97,15.44c3.42,1.08,7.07-.83,8.15-4.24l1.66-5.28c.2-.62,.29-1.25,.3-1.86-1.57,2.31-4.53,3.43-7.33,2.55h0Z"/><path class="n" d="M718.2,229.96l-58.49-18.44c-3.42-1.08-7.07,.83-8.15,4.24l-1.66,5.28c-1.08,3.42,.83,7.07,4.24,8.15l58.49,18.44c3.42,1.08,7.07-.83,8.15-4.24l1.66-5.28c1.08-3.42-.83-7.07-4.24-8.15Z"/><path class="q" d="M715.42,238.8l-58.49-18.44c-2.8-.88-4.58-3.49-4.54-6.29-.35,.51-.63,1.08-.82,1.7l-1.66,5.28c-1.08,3.42,.83,7.07,4.24,8.15l58.49,18.44c3.42,1.08,7.07-.83,8.15-4.24l1.66-5.28c.2-.62,.29-1.24,.3-1.86-1.57,2.31-4.53,3.43-7.33,2.55Z"/><path class="n" d="M723.7,212.53l-58.49-18.44c-3.42-1.08-7.07,.83-8.15,4.24l-1.66,5.28c-1.08,3.42,.83,7.07,4.24,8.15l58.49,18.44c3.42,1.08,7.07-.83,8.15-4.24l1.66-5.28c1.08-3.42-.83-7.07-4.24-8.15Z"/><path class="q" d="M720.91,221.36l-58.49-18.44c-2.8-.88-4.58-3.49-4.54-6.29-.35,.51-.63,1.08-.82,1.7l-1.66,5.28c-1.08,3.42,.83,7.07,4.24,8.15l58.49,18.44c3.42,1.08,7.07-.83,8.15-4.24l1.66-5.28c.2-.62,.29-1.25,.3-1.86-1.57,2.31-4.53,3.43-7.33,2.55Z"/></g></g></svg>