<?xml version="1.0" encoding="UTF-8"?><svg xmlns="http://www.w3.org/2000/svg" viewBox="0 0 841.89 841.89"><defs><style>.f{opacity:.1;}.g{fill:#eef4fb;}.h{fill:#f6cb52;}.i{fill:#fff;}.j{fill:#f1f1f1;}.k{fill:#e2e2e2;}.l{fill:#f0d181;}.m{fill:#ff5d50;}.n{fill:#7ec7ec;}.o{fill:#818992;}.p{fill:#8ad292;}.q{fill:#a0c4f3;}.r{fill:#a4dd9e;}.s{fill:#aac4f1;}.t{fill:#bedda1;}.u{fill:#d8b266;}.v{fill:#c9ac92;}.w{fill:#d2def8;}.x{fill:#d76060;}.y{fill:#d3bba8;}.a`{fill:#db9558;}.aa{fill:#da7576;}.ab{fill:#aed58c;}.ac{fill:#d77d46;}.ad{fill:#6eaee1;}.ae{fill:#5c7e97;}.af{fill:#636c73;}.ag{fill:#5c7e98;}.ah{fill:#56c4c5;}.ai{fill:#58595b;}.aj{fill:#83b1f1;}.ak{fill:#516f88;}.al{stroke-miterlimit:10;stroke-width:1.47px;}.al,.am{fill:none;stroke:#58595b;}.am{stroke-linecap:round;stroke-linejoin:round;stroke-width:2px;}</style></defs><g id="a"><rect class="h" width="841.89" height="841.89"/></g><g id="b"/><g id="c"><path class="i" d="M593.75,289.92c0-31.88-25-57.71-55.83-57.71h-180.64c-30.83,0-55.82,25.83-55.82,57.71v173.1s19.63,12.78,292.29,0v-173.1Z"/><path class="m" d="M382.4,438.79c-14.47,0-25.04-10.65-25.41-22.82-.06-2.1,1.79-3.74,3.89-3.51,14.31,1.54,28.74,1.54,43.06,0,2.09-.23,3.95,1.41,3.89,3.51-.38,12.17-10.94,22.82-25.42,22.82Z"/><ellipse class="ai" cx="406.96" cy="382.1" rx="6.31" ry="7.05"/><ellipse class="ai" cx="352.92" cy="382.1" rx="6.31" ry="7.05"/><path class="al" d="M376.68,385.09s-8.27,16.33-7.38,19.34c.89,3.01,9.45,1.51,9.45,1.51"/><path class="am" d="M370.6,377.41s4.01-2.29,10.64,.33"/><path class="ai" d="M551.07,422.7c13.6,15.35,46.7,14.94,46.7,14.94,0,0,39.23-143.83-14.01-208.27-21.35-25.84-47.05-41.17-73.31-50.32-39.23-13.67-79.72-13.56-108.81-14.12-48.56-.93-97.13,54.17-106.47,113.94-9.08,58.14,4.67,60.71,4.67,60.71,0,0,56.97-24.28,71.91-91.53,0,0,41.74,106.52,135.28,119.1h0"/><rect class="am" x="381.22" y="366.33" width="55.29" height="27.97" rx="3.93" ry="3.93"/><rect class="am" x="323.23" y="366.33" width="47.01" height="27.97" rx="3.63" ry="3.63"/></g><g id="d"><polygon class="i" points="325.18 97.18 302.17 101.19 325.18 105.2 329.19 128.21 333.2 105.2 356.21 101.19 333.2 97.18 329.19 74.18 325.18 97.18"/><polygon class="i" points="631.6 718.49 610.21 722.22 631.6 725.95 635.33 747.34 639.06 725.95 660.45 722.22 639.06 718.49 635.33 697.1 631.6 718.49"/><polygon class="i" points="93.52 165.33 57.41 139.94 82.8 176.05 57.41 212.17 93.52 186.78 129.64 212.17 104.25 176.05 129.64 139.94 93.52 165.33"/><polygon class="i" points="759.38 536.86 731.42 517.21 751.08 545.16 731.42 573.12 759.38 553.46 787.33 573.12 767.68 545.16 787.33 517.21 759.38 536.86"/><g><path class="ah" d="M375.6,540.24c-6.63-16.92-13.26-33.84-19.89-50.75-56.77,22.25-94.37,68.31-130.03,18.85-14.74,10.63-29.48,21.26-44.21,31.89,50.22,69.64,114.19,31.34,194.13,.02Z"/><path class="i" d="M225.68,508.33s9.32-4.13,2.23-15.97c-7.08-11.84-14.26-1.91-14.26-1.91,0,0-13.43-36.58-45.76-17.09-32.33,19.49,13.58,66.85,13.58,66.85l44.21-31.89Z"/></g><path class="ah" d="M574.5,1036.73h0c-152.23-203.68,17.32-364.87,17.32-578.67H299.07c0,224.78,92.87,396.11,275.43,578.67Z"/><g><path class="f" d="M579.14,514.19s60.53,25.38,4.94,54.06c-17.7,9.13-43.75,9.9-64.49,10.31-.36-18.17-.72-30.31-1.07-48.48,21.75-.42,42.4-6.08,60.62-15.9Z"/><g><path class="ah" d="M519.58,578.57c-.36-18.17-.71-36.33-1.07-54.5,60.96-1.2,113.38-43.53,127.38-102.88,17.68,4.17,35.37,8.34,53.05,12.52-19.71,83.56-93.52,143.17-179.36,144.86Z"/><path class="i" d="M645.89,421.19s-10.18-.24-8.18-13.89c2.01-13.65,12.44-7.23,12.44-7.23,0,0-1.61-38.93,35.73-33.32,37.33,5.62,13.06,66.95,13.06,66.95l-53.05-12.52Z"/></g></g><path class="i" d="M506.43,369.27s12.54-20.62,25.81-4.32c13.27,16.31,19.42,20.38,4.67,32.61-14.75,12.23-32.7-25.66-32.7-25.66l2.21-2.64Z"/><g><path class="w" d="M195.16,607.28l-113.37,36.19,50.38,164.01,119.95-40.26-6.36-19.91-8.95-20.03-2.55-15.99-32.03-100.35c-.95-2.96-4.11-4.6-7.08-3.65Z"/><path class="s" d="M239.73,765.26l-1.77-5.35-156.18-116.44c-2.96,.95-4.6,4.11-3.65,7.08l49.89,156.28c.95,2.96,4.11,4.6,7.08,3.65l113.37-36.19c2.96-.95,4.6-4.11,3.65-7.08l-16.04,5.12c2.96-.95,4.6-4.11,3.65-7.08Z"/><path class="g" d="M181,599.98l-113.37,36.19,50.38,164.01,119.95-40.26-12.77-40-16.75-36.68-.07-16.03-20.29-63.57c-.95-2.96-4.11-4.6-7.08-3.65Z"/><g><path class="o" d="M212.23,753.35l-81.18,25.91c-1.48,.47-3.07-.34-3.54-1.83s.34-3.07,1.83-3.54l81.18-25.91c1.48-.47,3.07,.34,3.54,1.83,.47,1.48-.34,3.07-1.83,3.54Z"/><path class="o" d="M207.09,737.26l-81.18,25.91c-1.48,.47-3.07-.34-3.54-1.83s.34-3.07,1.83-3.54l81.18-25.91c1.48-.47,3.07,.34,3.54,1.83s-.34,3.07-1.83,3.54Z"/><path class="o" d="M201.95,721.16l-81.18,25.91c-1.48,.47-3.07-.34-3.54-1.83s.34-3.07,1.83-3.54l81.18-25.91c1.48-.47,3.07,.34,3.54,1.83s-.34,3.07-1.83,3.54Z"/><path class="o" d="M189.66,707.35l-74.03,23.63c-1.48,.47-3.07-.34-3.54-1.83s.34-3.07,1.83-3.54l74.03-23.63c1.48-.47,3.07,.34,3.54,1.83,.47,1.48-.34,3.07-1.83,3.54Z"/><path class="o" d="M191.68,688.98l-81.18,25.91c-1.48,.47-3.07-.34-3.54-1.83s.34-3.07,1.83-3.54l81.18-25.91c1.48-.47,3.07,.34,3.54,1.83,.47,1.48-.34,3.07-1.83,3.54Z"/><path class="o" d="M186.54,672.88l-81.18,25.91c-1.48,.47-3.07-.34-3.54-1.83s.34-3.07,1.83-3.54l81.18-25.91c1.48-.47,3.07,.34,3.54,1.83s-.34,3.07-1.83,3.54Z"/><path class="o" d="M100.22,682.7c-1.48,.47-3.06-.34-3.54-1.82-.48-1.48,.33-3.07,1.81-3.54l53.23-17.19c1.49-.48,3.07,.33,3.54,1.81,.48,1.48-.33,3.07-1.81,3.54l-53.23,17.19h0Z"/><path class="o" d="M158.71,634.48l-52.91,16.89c-1.48,.47-3.07-.34-3.54-1.83-.47-1.48,.34-3.07,1.83-3.54l52.91-16.89c1.48-.47,3.07,.34,3.54,1.83s-.34,3.07-1.83,3.54Z"/></g><path class="w" d="M117.52,792.45l-49.89-156.28c-2.96,.95-4.6,4.11-3.65,7.08l49.89,156.28c.95,2.96,4.11,4.6,7.08,3.65l113.37-36.19c2.96-.95,4.6-4.11,3.65-7.08l-113.37,36.19c-2.96,.95-6.13-.69-7.08-3.65Z"/></g><g><path class="o" d="M736.9,319.6l-10.1,3.64-8.35,9.21,13.11,4.88,5.34-17.73Z"/><path class="af" d="M731.3,315.54l-15.19,10.58,2.34,6.33,18.45-12.85c1-3.32-2.75-6.04-5.6-4.06Z"/><path class="y" d="M731.56,337.33l-9.82-7.17-13.65,3.86c-1.71,1.24-1.34,9.96-1.34,9.96l19.34,9.18c.8-1.11,1.42-2.34,1.81-3.66l3.66-12.16Z"/><path class="v" d="M709.05,340.79c1-1.39,2.36-3.4,4.07-4.64l8.61-6-5.63-4.04-10.43,7.26c-1.12,.78-2.11,1.75-2.91,2.86l3.98,7.73,2.3-3.18Z"/><path class="l" d="M709.05,340.79l-84.37,110.01c-1.64,2.27,.79,5.76,5.99,9.53,7.7,5.59,14.04,5,14.04,5l81.37-112.19-17.03-12.36Z"/><path class="u" d="M629.02,451.28l80.03-110.49-6.28-4.56-81.37,112.19c-2.68,3.69,.37,10.47,6.81,15.14,6.44,4.67,13.83,5.46,16.51,1.77,0,0-3.37-.81-8.57-4.58-5.2-3.77-8.77-7.21-7.13-9.48h0Z"/></g></g><g id="e"><g><path class="q" d="M762.18,194.84c-15.61,24.32-43.03,40.33-74.15,39.97-47.83-.55-86.48-40.22-85.83-88.05,.63-46.89,38.43-84.82,85.27-85.65,.87-.02,1.58,.69,1.58,1.56v84.41c0,.54,.28,1.04,.74,1.33l71.89,44.26c.74,.46,.97,1.43,.5,2.16Z"/><path class="aj" d="M761.67,192.68l-71.89-44.26c-.46-.28-.74-.79-.74-1.33V62.68c0-.87-.71-1.58-1.58-1.56-5.61,.1-11.09,.74-16.39,1.85v90.14c0,.54,.28,1.04,.74,1.33l71.89,44.26c.74,.46,.97,1.43,.5,2.16-8.9,13.87-21.65,25.02-36.73,32,22.9-4.95,42.43-18.92,54.7-38.01,.47-.73,.24-1.71-.5-2.16h0Z"/><path class="t" d="M789.05,129.9h-83.38c-.96,0-1.73-.77-1.73-1.73V44.79c0-.96,.79-1.75,1.75-1.73,46.58,.92,84.17,38.51,85.09,85.09,.02,.96-.77,1.75-1.73,1.75h0Z"/><path class="ab" d="M705.69,43.06c-.96-.02-1.75,.77-1.75,1.73v.12c38.8,8.16,68.06,42.21,68.87,83.24,.02,.96-.77,1.75-1.73,1.75h17.97c.96,0,1.75-.79,1.73-1.75-.92-46.58-38.51-84.17-85.09-85.09Z"/><path class="aa" d="M803.56,147.42c-.3,15.42-4.63,29.85-11.97,42.3-.49,.83-1.57,1.08-2.39,.58l-67.28-41.43c-1.49-.91-.84-3.2,.91-3.2h79c.96,0,1.75,.79,1.73,1.75h0Z"/><path class="x" d="M801.83,145.67h-17.97c.96,0,1.75,.79,1.73,1.75-.25,12.69-3.23,24.71-8.36,35.51l11.98,7.37c.82,.5,1.9,.25,2.39-.58,7.34-12.45,11.66-26.88,11.97-42.3,.02-.96-.77-1.75-1.73-1.75Z"/></g><g><path class="a`" d="M216.66,542.07l-43.79-52.92c-1.02-1.23-.85-3.06,.39-4.09l17.89-14.8c1.23-1.02,3.06-.85,4.09,.39l43.79,52.92c1.02,1.23,.85,3.06-.39,4.09l-17.89,14.8c-1.23,1.02-3.06,.85-4.09-.39Z"/><path class="ac" d="M191.15,470.26l-11.18,9.25c1.23-1.02,3.06-.85,4.09,.39l43.79,52.92c1.02,1.23,.85,3.06-.39,4.09l11.18-9.25c1.23-1.02,1.41-2.85,.39-4.09l-43.79-52.92c-1.02-1.23-2.85-1.41-4.09-.39Z"/><path class="ag" d="M156.41,457.92l11.18-9.25,20.16,24.36-11.18,9.25-20.16-24.36Z"/><path class="r" d="M181.01,499.02l22.36-18.5,9.25,11.18-22.36,18.5-9.25-11.18Z"/><path class="p" d="M192.18,489.77l11.18-9.25,9.25,11.18-11.18,9.25-9.25-11.18Z"/><circle class="ae" cx="106.15" cy="385.76" r="94.33"/><path class="ak" d="M115.02,291.85c-2.43-.23-4.85-.36-7.25-.41,48.14,8.27,82.51,52.38,77.85,101.82-4.67,49.43-46.69,86.34-95.52,85.45,2.37,.41,4.77,.73,7.2,.96,51.86,4.9,97.88-33.18,102.77-85.04,4.9-51.86-33.18-97.88-85.04-102.77h0Z"/><circle class="j" cx="106.15" cy="385.76" r="79.81"/><path class="k" d="M113.65,306.3c-2.44-.23-4.85-.34-7.26-.35,40.1,7.48,68.67,44.57,64.77,85.95-3.91,41.38-38.92,72.47-79.71,72.31,2.36,.44,4.76,.78,7.19,1.01,43.81,4.14,82.83-28.15,86.96-71.96,4.14-43.81-28.14-82.83-71.96-86.96h0Z"/><g><path class="n" d="M85.98,412.61l-35.86-3.39,4.97-52.6c.12-1.32,1.3-2.29,2.62-2.17l31.08,2.93c1.32,.12,2.29,1.3,2.17,2.62l-4.97,52.6Z"/><path class="ad" d="M73.24,355.93l-5.19,54.99,17.93,1.69,4.97-52.6c.12-1.32-.84-2.49-2.17-2.62l-15.54-1.47Z"/><path class="r" d="M157.7,419.38l-35.86-3.39,2.82-29.89c.12-1.32,1.3-2.29,2.62-2.17l31.08,2.93c1.32,.12,2.29,1.3,2.17,2.62l-2.82,29.89Z"/><path class="p" d="M142.82,385.41l-3.05,32.28,17.93,1.69,2.82-29.89c.12-1.32-.84-2.49-2.17-2.62l-15.54-1.47Z"/><path class="a`" d="M121.84,415.99l-35.86-3.39,7.11-75.31c.12-1.32,1.3-2.29,2.62-2.17l31.08,2.93c1.32,.12,2.29,1.3,2.17,2.62l-7.11,75.31Z"/><path class="ac" d="M111.24,336.6l-7.33,77.7,17.93,1.69,7.11-75.31c.12-1.32-.84-2.49-2.17-2.62l-15.54-1.47Z"/></g><path class="ae" d="M168.6,416.02l-128.55-12.13c-2.4-.23-4.54,1.54-4.76,3.94s1.54,4.54,3.94,4.76l128.55,12.13c2.4,.23,4.54-1.54,4.76-3.94s-1.54-4.54-3.94-4.76Z"/></g></g></svg>