<?xml version="1.0" encoding="UTF-8"?><svg xmlns="http://www.w3.org/2000/svg" viewBox="0 0 841.89 841.89"><defs><style>.f{opacity:.1;}.g{fill:#f6cb52;}.h{fill:#eecd7c;}.i{fill:#fff;}.j{fill:#eceef5;}.k{fill:#ff5d50;}.l{fill:#a0b0c7;}.m{fill:#b94d4a;}.n{fill:#8aa0bf;}.o{fill:#b5c1d2;}.p{fill:#91a7c5;}.q{fill:#d6e0e7;}.r{fill:#dae2ec;}.s{fill:#cc6159;}.t{fill:#6e97ca;}.u{fill:#5a84bd;}.v{fill:#56c4c5;}.w{fill:#58595b;}</style></defs><g id="a"><rect class="g" x="-.27" width="841.89" height="841.89"/></g><g id="b"/><g id="c"/><g id="d"><g><path class="j" d="M557.08,282.55c-.51,0-1.02,.03-1.52,.07h0c-3.71-10.58-13.78-18.16-25.62-18.16-6.75,0-12.42,2.47-17.14,6.55-.27,.23-.61,.36-.96,.36s-.69-.13-.96-.36c-4.72-4.08-10.38-6.55-17.13-6.55-2.37,0-4.66,.3-6.85,.87h-76.78c-2.19-.57-4.48-.87-6.85-.87-6.75,0-12.41,2.47-17.13,6.55-.27,.23-.61,.36-.96,.36s-.69-.13-.96-.36c-4.72-4.08-10.38-6.55-17.14-6.55-11.84,0-21.91,7.58-25.62,18.16h0c-.5-.04-1.01-.06-1.52-.06-9.88,0-17.9,7.91-18.09,17.74-.19,10.14,8.3,18.45,18.45,18.45h216.42c10.15,0,18.64-8.3,18.45-18.45-.19-9.83-8.22-17.74-18.09-17.74Z"/><path class="r" d="M557.08,282.55c-.51,0-1.02,.03-1.52,.07h0c-3.71-10.58-13.78-18.16-25.62-18.16-2.18,0-4.25,.26-6.21,.75,8.99,2.16,16.25,8.79,19.27,17.41h0c.5-.04,1.01-.06,1.52-.06,9.88,0,17.9,7.91,18.09,17.74,.19,10.14-8.3,18.45-18.45,18.45h12.56c10.15,0,18.64-8.3,18.45-18.45-.19-9.83-8.22-17.74-18.09-17.74h0Z"/><path class="r" d="M397.56,265.32h12.56c-2.19-.57-4.48-.87-6.85-.87-2.19,0-4.26,.26-6.23,.75,.17,.04,.35,.07,.52,.12Z"/></g><polygon class="i" points="146.58 375.31 125.19 379.04 146.58 382.77 150.31 404.16 154.04 382.77 175.43 379.04 154.04 375.31 150.31 353.92 146.58 375.31"/><polygon class="i" points="78.27 147.77 42.16 122.38 67.55 158.49 42.16 194.61 78.27 169.22 114.38 194.61 88.99 158.49 114.38 122.38 78.27 147.77"/><polygon class="i" points="710.75 351.14 674.64 325.76 700.03 361.87 674.64 397.98 710.75 372.59 746.87 397.98 721.48 361.87 746.87 325.76 710.75 351.14"/><polygon class="i" points="686.79 110.92 658.84 91.26 678.49 119.22 658.84 147.17 686.79 127.52 714.75 147.17 695.09 119.22 714.75 91.26 686.79 110.92"/><g><path class="i" d="M616.78,443.53c0-38.08-29.86-68.93-66.7-68.93h-215.79c-36.82,0-66.68,30.86-66.68,68.93v206.78s23.45,15.26,349.16,0v-206.78Z"/><path class="w" d="M220.12,428.65s20.51,100.85,281.33,39.49c0,0,0,27.74,19.58,36.71,0,0,32.63-14.34,31.7,29.48,0,0,27.35,33.1,66.47,52.67,0,0,45.64-179.94,0-222.83,0,0-5.56-53.25-59.65-87.72-25.88-16.49-39.75,41.5-111.5,38.43-79.79-3.42-74.68-58.84-99.37-45.98-77.64,40.46-91.4,126.37-95.93,143.52-3.85,14.57-21.93,32.79-32.63,16.22Z"/><g><path class="v" d="M308.33,773.98c-1.27-21.67-2.55-43.34-3.82-65-72.71,4.27-139.09-41.24-161.31-110.61-20.67,6.62-41.34,13.24-62.01,19.86,31.29,97.67,124.75,161.76,227.13,155.75Z"/><path class="i" d="M143.21,598.36s12.11-1.24,8.44-17.31c-3.67-16.06-15.5-7.44-15.5-7.44,0,0-1.73-46.52-45.66-36.34-43.94,10.18-9.3,80.96-9.3,80.96l62.01-19.86Z"/></g><path class="v" d="M230.65,1374.34h0c-181.85-243.31,383.82-474.56,383.82-729.95H264.76c0,268.52-252.19,511.88-34.11,729.95Z"/><g><path class="f" d="M616.76,711.44s72.3,30.32,5.9,64.58c-21.14,10.91-52.26,11.83-77.04,12.32-.43-21.71-.86-36.21-1.28-57.91,25.98-.5,50.65-7.27,72.42-18.99Z"/><g><path class="v" d="M545.62,788.35c-.43-21.7-.85-43.4-1.28-65.1,72.83-1.43,135.44-52,152.16-122.89,21.13,4.98,42.25,9.97,63.38,14.95-23.55,99.82-111.71,171.03-214.25,173.04Z"/><path class="i" d="M696.49,600.35s-12.16-.29-9.77-16.6c2.4-16.3,14.86-8.63,14.86-8.63,0,0-1.92-46.51,42.68-39.8,44.59,6.71,15.6,79.98,15.6,79.98l-63.38-14.95Z"/></g></g></g><g><path class="h" d="M443.88,290.99l-5.13-15.38v-2.94h19.5v2.94l-5.13,15.38c-1.48,4.45-7.77,4.45-9.25,0h0Z"/><path class="l" d="M412.96,246.36l-6.56,23.04c-.89,3.11,1.45,6.21,4.69,6.21h74.85c3.24,0,5.58-3.1,4.69-6.21l-6.56-23.04v-2.94h-71.1v2.94Z"/><path class="n" d="M490.62,269.4l-6.56-23.04v-2.94h-13.52v2.94l6.56,23.04c.89,3.11-1.45,6.21-4.69,6.21h13.52c3.24,0,5.58-3.1,4.69-6.21Z"/><path class="q" d="M506.61,198.05l20.54,33.46c3.99,6.5-.69,14.85-8.31,14.85h-140.67c-7.62,0-12.3-8.36-8.31-14.85l20.54-33.46h116.21Z"/><path class="o" d="M527.15,231.51l-20.54-33.46h-13.54l20.54,33.46c3.99,6.5-.69,14.85-8.31,14.85h13.54c7.62,0,12.3-8.36,8.31-14.85Z"/><path class="j" d="M484.06,246.36c17.09-23.03,27.83-56.32,27.83-93.35,0-56.73-25.2-104.69-59.84-120.41-2.27-1.03-4.82-1.03-7.09,0-34.64,15.72-59.84,63.68-59.84,120.41,0,37.03,10.74,70.32,27.83,93.35h71.1Z"/><path class="r" d="M452.05,32.6c-2.27-1.03-4.82-1.03-7.09,0-1.08,.49-2.16,1.02-3.22,1.57,32.97,17.16,56.61,63.89,56.61,118.84,0,37.03-10.74,70.32-27.83,93.35h13.54c17.09-23.03,27.83-56.32,27.83-93.35,0-56.73-25.2-104.69-59.84-120.41h0Z"/><circle class="l" cx="448.54" cy="139.02" r="39.01"/><circle class="t" cx="448.57" cy="139.04" r="19.51"/><path class="s" d="M452.05,32.6c-2.27-1.03-4.82-1.03-7.09,0-18.17,8.25-33.75,25.38-44.45,47.98h95.99c-10.7-22.61-26.27-39.73-44.45-47.98Z"/><path class="m" d="M442.75,33.66c-.34,.17-.67,.34-1.01,.51,16.79,8.74,31.16,25.15,41.22,46.41h13.54c-10.7-22.61-26.27-39.74-44.45-47.98-2.27-1.03-4.82-1.03-7.09,0-.56,.25-1.11,.51-1.66,.78-.18,.09-.37,.19-.55,.28Z"/><path class="s" d="M412.96,246.36h71.1c4.36-5.87,8.3-12.41,11.76-19.5h-94.61c3.46,7.09,7.4,13.63,11.76,19.5h0Z"/><path class="m" d="M482.27,226.86c-3.46,7.09-7.4,13.63-11.76,19.5h13.54c4.36-5.87,8.3-12.41,11.76-19.5h-13.54Z"/><path class="q" d="M458.26,246.36v-39.01c0-5.39-4.37-9.75-9.75-9.75s-9.75,4.37-9.75,9.75v39.01h19.5Z"/><path class="u" d="M448.51,119.59c-2.38,0-4.66,.43-6.77,1.21,7.43,2.75,12.73,9.9,12.73,18.29s-5.3,15.54-12.73,18.29c2.11,.78,4.39,1.21,6.77,1.21,10.77,0,19.5-8.73,19.5-19.5s-8.73-19.5-19.5-19.5Z"/><path class="p" d="M448.51,100.09c-2.32,0-4.59,.21-6.8,.6,18.3,3.22,32.2,19.18,32.2,38.4s-13.9,35.18-32.2,38.4c2.21,.39,4.48,.6,6.8,.6,21.54,0,39.01-17.46,39.01-39.01s-17.46-39.01-39.01-39.01Z"/></g></g><g id="e"><path class="k" d="M392.65,597.04c-23.18,0-40.1-17.05-40.7-36.55-.1-3.37,2.87-5.98,6.22-5.62,22.92,2.47,46.03,2.47,68.96,0,3.35-.36,6.33,2.26,6.22,5.62-.6,19.5-17.52,36.55-40.71,36.55Z"/></g></svg>