<?xml version="1.0" encoding="UTF-8"?><svg xmlns="http://www.w3.org/2000/svg" xmlns:xlink="http://www.w3.org/1999/xlink" viewBox="0 0 763 776.54"><defs><style>.h{fill:url(#g);}.i{fill:url(#f);}.j{opacity:.1;}.k{fill:#f6f4f4;}.l{fill:#0277bd;}.m{fill:#01579b;}.n{fill:#696969;}.o{fill:#676767;}.p{fill:#6a6a6a;}.q{fill:#f6cb52;}.r{fill:#faffff;}.s{fill:#fff;}.t{fill:#ff5d50;}.u{fill:#7d7d7e;}.v{fill:#6b6b6b;}.w{fill:#6b6b6c;}.x{fill:#7e7e7f;}.y{fill:#7f7f80;}.a`{fill:#818182;}.aa{fill:#818183;}.ab{fill:#686868;}.ac{fill:#747475;}.ad{fill:#6c6c6d;}.ae{fill:#7c7c7d;}.af{fill:#848486;}.ag{fill:#666;}.ah{fill:#737374;}.ai{fill:#858587;}.aj{fill:#d8d8d8;}.ak{fill:#c8d4ea;}.al{fill:#707071;}.am{fill:#717172;}.an{fill:#6f6f70;}.ao{fill:#727273;}.ap{fill:#868688;}.aq{fill:#6d6d6e;}.ar{fill:#6e6e6f;}.as{fill:#808081;}.at{fill:#56c4c5;}.au{fill:#58595b;}.av{fill:#838385;}.aw{fill:#767677;}.ax{fill:#777778;}.ay{fill:#79797a;}.b`{fill:#7a7a7b;}.ba{fill:#787879;}.bb{fill:#828284;}.bc{fill:#757576;}.bd{fill:#7b7b7c;}.be{fill:none;stroke:#58595b;stroke-miterlimit:10;stroke-width:.92px;}.bf{opacity:.48;}.bf,.bg{fill:#f5f5f5;}.bg{opacity:.82;}</style><linearGradient id="f" x1="-28.98" y1="734.45" x2="3.27" y2="734.45" gradientTransform="translate(266.62) rotate(-180) scale(1 -1)" gradientUnits="userSpaceOnUse"><stop offset="0" stop-color="#ea826e"/><stop offset=".45" stop-color="#fa948b"/><stop offset="1" stop-color="#f18e9e"/></linearGradient><linearGradient id="g" x1="-28.99" y1="734.45" x2="3.29" y2="734.45" gradientTransform="translate(266.62) rotate(-180) scale(1 -1)" gradientUnits="userSpaceOnUse"><stop offset="0" stop-color="#9a5a54"/><stop offset=".05" stop-color="#a3655f"/><stop offset=".13" stop-color="#bb837f"/><stop offset=".24" stop-color="#e2b5b1"/><stop offset=".3" stop-color="#fad2cf"/><stop offset=".4" stop-color="#fab1ab"/><stop offset=".5" stop-color="#fa9b93"/><stop offset=".55" stop-color="#fa948b"/><stop offset=".63" stop-color="#fa978e"/><stop offset=".69" stop-color="#faa098"/><stop offset=".75" stop-color="#fab0a9"/><stop offset=".81" stop-color="#fac6c2"/><stop offset=".83" stop-color="#fad1ce"/><stop offset=".86" stop-color="#dbadaa"/><stop offset=".9" stop-color="#ba8681"/><stop offset=".93" stop-color="#a26a64"/><stop offset=".96" stop-color="#935953"/><stop offset=".98" stop-color="#8e534d"/></linearGradient></defs><g id="a"/><g id="b"><g id="c"><g><path class="bg" d="M0,427.39v54.94c0,9.94,8.06,18,18,18H214.98c9.94,0,18-8.06,18-18v-46.42l24.52-25.77-239.45-.75c-9.96-.03-18.05,8.04-18.05,18Z"/><polygon class="s" points="203.94 442.68 25.19 441.85 25.21 436.36 203.96 437.18 203.94 442.68"/><polygon class="s" points="203.94 460.75 25.19 459.92 25.21 454.43 203.96 455.26 203.94 460.75"/><rect class="s" x="165.84" y="440.08" width="5.49" height="70.73" transform="translate(-307.68 641.7) rotate(-89.72)"/></g><g><path class="bg" d="M759.26,558.52v54.94c0,9.94-8.06,18-18,18h-196.98c-9.94,0-18-8.06-18-18v-46.42l-24.52-25.77,239.45-.75c9.96-.03,18.05,8.04,18.05,18Z"/><polygon class="s" points="554.46 572.38 733.21 571.56 733.19 566.06 554.44 566.89 554.46 572.38"/><polygon class="s" points="554.46 590.46 733.21 589.63 733.19 584.14 554.44 584.96 554.46 590.46"/><rect class="s" x="554.45" y="602.4" width="70.73" height="5.49" transform="translate(-2.97 2.91) rotate(-.28)"/></g><path class="bf" d="M223.63,166.89H50.47c-8.57,0-15.52-5.63-15.52-12.58V85.66c0-6.95,6.95-12.58,15.52-12.58H197.4c8.57,0,15.52,5.63,15.52,12.58v72.56l10.7,8.67Z"/></g><g id="d"><path class="s" d="M547.31,207.44c0-19.3-15.64-34.94-34.94-34.94h-113.03c-19.29,0-34.93,15.64-34.93,34.94v104.8s12.28,7.73,182.9,0v-104.8Z"/><path class="au" d="M334.27,218.1s10.95,53.84,150.18,21.08c0,0,0,14.81,10.45,19.6,0,0,17.42-7.65,16.92,15.74,0,0,14.6,17.67,35.48,28.12,0,0,24.37-96.06,0-118.95,0,0-6.49-62.14-93.59-62.14s-98.84,75.83-102.03,87.9c-2.05,7.78-11.71,17.5-17.42,8.66Z"/><path class="s" d="M494.31,256.63s7.85-12.9,16.15-2.7,12.15,12.75,2.92,20.41-20.46-16.06-20.46-16.06l1.38-1.65Z"/><path class="t" d="M416.7,300.13c-9.06,0-15.67-6.66-15.9-14.28-.04-1.32,1.12-2.34,2.43-2.2,8.95,.97,17.99,.97,26.95,0,1.31-.14,2.47,.88,2.43,2.2-.24,7.62-6.85,14.28-15.91,14.28Z"/><ellipse class="au" cx="432.07" cy="264.66" rx="3.95" ry="4.41"/><ellipse class="au" cx="398.25" cy="264.66" rx="3.95" ry="4.41"/><path class="be" d="M413.12,266.53s-5.17,10.22-4.62,12.1,5.91,.94,5.91,.94"/></g><g id="e"><path class="s" d="M323.65,73.8c0-23.58-21.08-42.69-47.08-42.69s-47.08,19.11-47.08,42.69,21.08,42.69,47.08,42.69c5.25,0,10.31-.78,15.03-2.22,3.98,4.36,10.47,9.12,20.78,11.51,0,0-6.72-7.54-8.91-16.94,12.2-7.71,20.18-20.53,20.18-35.04Z"/><path class="s" d="M167.15,244.83c0-26.05-23.29-47.17-52.02-47.17s-52.02,21.12-52.02,47.17,23.29,47.17,52.02,47.17c5.81,0,11.39-.86,16.61-2.45,4.4,4.82,11.56,10.08,22.96,12.72,0,0-7.43-8.34-9.84-18.72,13.48-8.52,22.3-22.68,22.3-38.71Z"/><g><path class="s" d="M658.12,313.44c0-26.05,23.29-47.17,52.02-47.17,28.73,0,52.02,21.12,52.02,47.17s-23.29,47.17-52.02,47.17c-5.81,0-11.39-.86-16.61-2.45-4.4,4.82-11.56,10.08-22.96,12.72,0,0,7.43-8.34,9.84-18.72-13.48-8.52-22.3-22.68-22.3-38.71Z"/><path class="s" d="M669.95,370.32c.07-.08,7.04-7.98,9.51-17.78-13.9-9.01-22.18-23.58-22.18-39.1,0-26.47,23.71-48.01,52.86-48.01,29.15,0,52.86,21.54,52.86,48.01,0,26.47-23.71,48.01-52.86,48.01-5.59,0-11.08-.79-16.34-2.34-5.76,6.14-13.5,10.37-23.03,12.58l-2.57,.6,1.76-1.97Z"/></g><g><g><g><g><path class="aj" d="M487.27,661.69l.18,9.66c.26,3.89-2.58,7.11-5.79,9l-149.17,87.84c-19.28,10.99-21.16,11.26-41.37,.18l-51.46-30.69c-3.04-1.81-4.88-5.1-4.84-8.64l.11-10.24,66.81,41.38c7.67,4.56,13.42,3.2,20.3-.86l165.23-97.62Z"/><path class="k" d="M238.22,726.32l55,32.48c17.14,9.66,22.17,7.35,37.28-1.44l153.48-89.48c4.4-2.56,4.38-8.93-.04-11.46l-60.12-34.48c-7.76-4.57-17.65-4.58-26.09,.29l-159.53,92.12c-4.61,2.66-4.6,9.32,.02,11.96Z"/><path class="r" d="M239.97,725.33l53.86,31.19c18,9.35,18.44,9.13,38.01-1.88h0l150.11-87.62c3.54-2.31,4.43-7.82,.12-10.27l-58.67-33.4c-7.58-4.42-17.22-4.44-25.46,.28l-155.68,89.25c-6.98,3.64-7.53,8.83-2.31,12.46h0Z"/><polygon class="ak" points="458.61 675.02 387.26 633.68 259.91 707.03 330.36 747.82 458.61 675.02"/></g><g><path class="i" d="M289.89,743.84l5.25-3.04c.61-.35,.6-1.24-.02-1.58l-24.34-14.13c-.6-.32-1.31-.34-1.93-.05l-4.99,2.95c-.66,.31-.7,1.23-.07,1.6l24.41,14.25c.52,.3,1.17,.31,1.69,0Z"/><path class="h" d="M288.2,743.85l-24.41-14.25c-.3-.18-.47-.49-.46-.83,.02-.35,.21-.64,.52-.79l5-2.95c.62-.29,1.34-.27,1.94,.05l24.34,14.13c.3,.16,.48,.46,.48,.8,0,.34-.17,.64-.46,.81l-5.25,3.04c-.26,.15-.56,.23-.85,.23s-.59-.08-.86-.23Zm-19.33-18.8l-5,2.95c-.3,.14-.49,.43-.51,.76-.01,.33,.15,.64,.44,.8l24.41,14.25c.52,.3,1.16,.3,1.67,0l5.25-3.04c.28-.16,.45-.45,.44-.78,0-.33-.18-.61-.46-.77l-24.34-14.13c-.31-.17-.66-.26-1.01-.26-.31,0-.62,.07-.9,.2Z"/></g></g><path class="r" d="M289.9,743.68l5.24-3.05c.61-.36,.6-1.24-.03-1.58l-24.04-13.96c-.6-.32-1.31-.34-1.93-.05l-4.99,2.95c-.66,.43-.52,1.42,.11,1.79l23.95,13.9c.52,.3,1.17,.3,1.69,0Z"/></g><g><path class="ap" d="M427.36,637.96l9.32,5.52,9.32,5.52c.47,.28,.62,.88,.34,1.35h0c-.28,.47-.88,.62-1.35,.34l-9.32-5.52-9.32-5.52c-.47-.28-.62-.88-.34-1.35h0c.28-.47,.88-.62,1.35-.34Z"/><path class="ai" d="M426.02,638.3c.28-.46,.88-.62,1.34-.34l9.11,5.4,.21,.12,8.88,5.27s.44,.26,.44,.26c.29,.18,.45,.48,.47,.8h0c0,.14-.02,.28-.08,.42-.02,.04-.04,.09-.06,.13h0c-.26,.44-.85,.57-1.32,.3l-9.32-5.52-9.31-5.52c-.11-.07-.21-.16-.29-.25-.23-.31-.28-.72-.09-1.06Z"/><path class="af" d="M426.02,638.3c.28-.46,.88-.61,1.34-.34l9.12,5.41,.21,.12,8.89,5.27s.43,.26,.44,.27c.28,.18,.44,.49,.45,.8h0c0,.14-.02,.28-.08,.41-.02,.04-.03,.08-.06,.12h0c-.24,.41-.82,.52-1.29,.25l-9.32-5.52-9.3-5.51c-.11-.06-.22-.16-.29-.25-.24-.3-.29-.71-.11-1.03Z"/><path class="av" d="M426.02,638.29c.28-.46,.88-.61,1.34-.33l9.12,5.41,.21,.12,8.9,5.27s.43,.26,.43,.27c.28,.18,.44,.49,.44,.81h0c0,.14-.03,.28-.09,.41-.01,.04-.03,.08-.05,.11h0c-.23,.39-.79,.48-1.26,.2l-9.32-5.52-9.29-5.51c-.1-.06-.22-.16-.29-.25-.24-.3-.31-.69-.14-.99Z"/><path class="bb" d="M426.02,638.29c.28-.46,.87-.6,1.34-.33l9.13,5.41,.21,.12,8.9,5.28s.42,.26,.43,.27c.28,.19,.43,.5,.42,.81h0c0,.14-.03,.28-.1,.41-.01,.04-.03,.07-.05,.11h0c-.21,.36-.76,.43-1.23,.15l-9.32-5.52-9.28-5.5c-.1-.06-.22-.16-.29-.25-.24-.3-.32-.67-.17-.96Z"/><path class="aa" d="M426.03,638.29c.28-.45,.87-.6,1.33-.33l9.14,5.42,.21,.12,8.91,5.28s.42,.26,.43,.28c.27,.19,.42,.5,.41,.82h0c0,.14-.04,.28-.1,.41-.01,.03-.03,.07-.04,.1h0c-.2,.33-.74,.38-1.2,.1l-9.32-5.52-9.27-5.5c-.1-.06-.22-.16-.29-.24-.25-.29-.33-.66-.2-.93Z"/><path class="a`" d="M426.03,638.28c.28-.45,.87-.6,1.33-.32l9.14,5.42,.21,.12,8.92,5.29s.41,.26,.43,.28c.27,.19,.41,.51,.39,.82h0c0,.14-.04,.28-.11,.4,0,.03-.02,.06-.04,.09h0c-.18,.31-.71,.33-1.17,.05l-9.32-5.52-9.26-5.49c-.09-.06-.23-.16-.29-.24-.25-.29-.35-.64-.23-.9Z"/><path class="as" d="M426.03,638.28c.28-.45,.87-.59,1.33-.32l9.15,5.42,.21,.12,8.93,5.29s.41,.25,.43,.29c.27,.2,.4,.51,.38,.82h0c0,.14-.05,.28-.12,.4,0,.03-.02,.06-.04,.08h0c-.17,.28-.68,.28-1.14,0l-9.32-5.52-9.25-5.49c-.09-.05-.23-.16-.29-.24-.25-.29-.36-.63-.25-.87Z"/><path class="y" d="M426.03,638.28c.28-.44,.87-.59,1.33-.32l9.15,5.43,.21,.12,8.93,5.3s.4,.25,.42,.29c.26,.2,.39,.52,.36,.83h0c-.01,.14-.05,.27-.12,.4,0,.03-.02,.05-.03,.08h0c-.15,.25-.65,.23-1.12-.04l-9.32-5.52-9.25-5.48c-.09-.05-.23-.16-.29-.24-.25-.28-.37-.61-.28-.84Z"/><path class="x" d="M426.04,638.27c.28-.44,.87-.58,1.32-.31l9.16,5.43,.2,.12,8.94,5.3s.4,.25,.42,.29c.26,.2,.38,.52,.35,.83h0c-.01,.14-.06,.27-.13,.39,0,.02-.01,.05-.03,.07h0c-.13,.23-.62,.19-1.09-.09l-9.32-5.52-9.24-5.48c-.08-.05-.23-.16-.29-.24-.26-.28-.39-.59-.31-.8Z"/><path class="u" d="M426.04,638.27c.28-.44,.87-.58,1.32-.31l9.17,5.43,.2,.12,8.95,5.3s.4,.25,.42,.3c.25,.21,.38,.53,.34,.84h0c-.02,.14-.06,.27-.14,.39,0,.02-.01,.04-.02,.06h0c-.12,.2-.59,.14-1.06-.14l-9.32-5.52-9.23-5.47c-.08-.05-.24-.16-.29-.23-.26-.28-.4-.58-.34-.77Z"/><path class="ae" d="M426.04,638.27c.28-.44,.87-.57,1.32-.31l9.17,5.44,.2,.12,8.95,5.31c.05,.03,.39,.25,.42,.3,.25,.21,.37,.53,.32,.84h0c-.02,.14-.07,.27-.14,.39,0,.02,0,.04-.02,.05h0c-.1,.17-.56,.09-1.03-.19l-9.32-5.52-9.22-5.47c-.08-.05-.24-.16-.29-.23-.26-.27-.41-.56-.37-.74Z"/><path class="bd" d="M426.04,638.26c.29-.43,.86-.57,1.32-.3l9.18,5.44,.2,.12,8.96,5.31c.06,.03,.39,.25,.41,.3,.25,.21,.36,.54,.31,.85h0c-.02,.14-.07,.27-.15,.39,0,.02,0,.03-.01,.05h0c-.09,.15-.54,.04-1-.24l-9.32-5.52-9.21-5.46c-.08-.04-.24-.16-.29-.23-.27-.27-.43-.54-.39-.71Z"/><path class="b`" d="M426.05,638.26c.29-.43,.86-.57,1.31-.3l9.18,5.44,.2,.12,8.97,5.32c.06,.04,.38,.25,.41,.31,.24,.22,.35,.54,.29,.85h0c-.02,.14-.08,.27-.16,.38,0,.01,0,.03,0,.04h0c-.07,.12-.51,0-.97-.28l-9.32-5.52-9.2-5.46c-.07-.04-.25-.16-.29-.23-.27-.27-.44-.53-.42-.68Z"/><path class="ay" d="M426.05,638.26c.29-.43,.86-.56,1.31-.3l9.19,5.45,.2,.12,8.98,5.32c.06,.04,.37,.25,.41,.31,.2,.26,.34,.55,.28,.86h0c-.03,.14-.08,.27-.16,.38,0,.01,0,.02,0,.03h0c-.06,.09-.48-.06-.94-.33l-9.32-5.52-9.19-5.45c-.07-.04-.25-.17-.29-.23-.27-.26-.45-.51-.45-.64Z"/><path class="ba" d="M426.05,638.25c.29-.42,.86-.56,1.31-.29l9.2,5.45,.2,.12,8.98,5.33c.07,.04,.36,.25,.41,.31,.2,.26,.33,.55,.26,.86h0c-.03,.14-.09,.27-.17,.38,0,0,0,.02,0,.02h0c-.04,.07-.45-.1-.92-.38l-9.32-5.52-9.18-5.44c-.07-.04-.25-.17-.29-.22-.27-.26-.47-.5-.48-.61Z"/><path class="ax" d="M426.05,638.25c.29-.42,.86-.55,1.31-.29l9.2,5.45,.2,.12,8.99,5.33c.07,.04,.36,.25,.41,.32,.19,.26,.32,.56,.25,.87h0c-.03,.14-.09,.26-.18,.37,0,0,0,.01,0,.02h0s-.42-.15-.89-.43l-9.32-5.52-9.18-5.44c-.06-.04-.25-.17-.29-.22-.28-.26-.48-.48-.51-.58Z"/><path class="aw" d="M426.06,638.25c.29-.42,.86-.55,1.3-.28l9.21,5.46,.2,.12,9,5.33c.08,.05,.35,.25,.4,.32,.19,.26,.31,.56,.24,.87h0c-.03,.14-.1,.26-.18,.37h0s-.39-.19-.86-.47l-9.32-5.52-9.17-5.43c-.06-.03-.26-.17-.3-.22-.28-.25-.49-.46-.53-.55Z"/><path class="aw" d="M426.06,638.24c.29-.42,.86-.54,1.3-.28l9.21,5.46,.2,.12,9,5.34c.08,.05,.35,.25,.4,.32,.19,.26,.31,.57,.22,.88h0c-.04,.14-.1,.26-.19,.37,0,0,.01,0,.01,0h0s-.36-.25-.83-.52l-9.32-5.52-9.16-5.43c-.06-.03-.26-.17-.3-.22-.28-.25-.51-.45-.56-.52Z"/><path class="bc" d="M426.06,638.24c.29-.41,.86-.54,1.3-.28l9.22,5.47,.2,.12,9.01,5.34c.09,.05,.35,.25,.4,.33,.19,.26,.3,.57,.21,.88h0c-.04,.14-.11,.26-.2,.37,0,0,.01,0,.02,0h0s-.34-.3-.8-.57l-9.32-5.52-9.15-5.42c-.05-.03-.26-.17-.3-.22-.29-.25-.52-.43-.59-.49Z"/><path class="ac" d="M426.06,638.23c.29-.41,.85-.54,1.3-.27l9.23,5.47,.2,.12,9.02,5.35c.09,.05,.34,.25,.4,.33,.18,.27,.29,.58,.19,.89h0c-.04,.14-.11,.26-.21,.36,.01,0,.02,0,.02-.01h0c.04-.07-.31-.34-.77-.62l-9.32-5.52-9.14-5.42s-.26-.17-.3-.21c-.29-.24-.53-.42-.62-.45Z"/><path class="ah" d="M426.07,638.23c.29-.41,.85-.53,1.29-.27l9.23,5.47,.2,.12,9.03,5.35c.1,.06,.34,.25,.4,.33,.18,.27,.28,.58,.18,.89h0c-.04,.14-.12,.26-.21,.36,.01,0,.02-.01,.03-.02h0c.06-.09-.28-.39-.74-.67l-9.32-5.52-9.13-5.41s-.27-.17-.3-.21c-.29-.24-.55-.4-.65-.42Z"/><path class="ao" d="M426.07,638.23c.29-.4,.85-.53,1.29-.27l9.24,5.48,.2,.12,9.03,5.35c.1,.06,.33,.25,.39,.34,.18,.27,.27,.59,.16,.9h0c-.05,.14-.12,.26-.22,.36,.01,0,.02-.02,.03-.03h0c.07-.12-.25-.44-.72-.72l-9.32-5.52-9.12-5.41s-.27-.17-.3-.21c-.3-.24-.56-.38-.67-.39Z"/><path class="am" d="M426.07,638.22c.29-.4,.85-.52,1.29-.26l9.24,5.48,.2,.12,9.04,5.36c.11,.06,.33,.25,.39,.34,.18,.27,.26,.59,.15,.9h0c-.05,.14-.13,.26-.23,.35,.01,0,.03-.02,.03-.03h0c.09-.15-.22-.49-.69-.77l-9.32-5.52-9.11-5.4s-.27-.17-.3-.21c-.3-.24-.57-.37-.7-.36Z"/><path class="al" d="M426.07,638.22c.29-.4,.85-.52,1.29-.26l9.25,5.48,.2,.12,9.05,5.36c.11,.07,.32,.24,.39,.35,.18,.27,.25,.6,.14,.91h0c-.05,.14-.13,.25-.23,.35,.02-.01,.03-.03,.04-.04h0c.1-.17-.19-.54-.66-.81l-9.32-5.52-9.11-5.4s-.28-.17-.3-.2c-.3-.23-.59-.35-.73-.33Z"/><path class="an" d="M426.08,638.22c.29-.4,.85-.51,1.28-.26l9.26,5.49,.2,.12,9.05,5.37c.12,.07,.32,.24,.39,.35,.17,.27,.25,.6,.12,.91h0c-.05,.14-.14,.25-.24,.35,.02-.01,.03-.03,.04-.05h0c.12-.2-.16-.59-.63-.86l-9.32-5.52-9.1-5.39s-.28-.17-.3-.2c-.3-.23-.6-.34-.76-.29Z"/><path class="ar" d="M426.08,638.21c.3-.39,.85-.51,1.28-.25l9.26,5.49,.2,.12,9.06,5.37c.12,.07,.32,.24,.39,.35,.17,.27,.24,.61,.11,.92h0c-.06,.14-.14,.25-.25,.35,.02-.02,.03-.03,.05-.06h0c.13-.23-.13-.63-.6-.91l-9.32-5.52-9.09-5.39s-.28-.17-.3-.2c-.31-.23-.61-.32-.79-.26Z"/><path class="aq" d="M426.08,638.21c.3-.39,.85-.51,1.28-.25l9.27,5.49,.19,.12,9.07,5.38c.12,.07,.31,.24,.38,.36,.17,.28,.23,.61,.09,.92h0c-.06,.13-.15,.25-.25,.34,.02-.02,.04-.04,.05-.06h0c.15-.25-.11-.68-.57-.96l-9.32-5.52-9.08-5.38s-.28-.18-.3-.2c-.31-.22-.63-.3-.81-.23Z"/><path class="ad" d="M426.08,638.21c.3-.39,.84-.5,1.28-.25l9.27,5.5,.19,.12,9.08,5.38c.13,.08,.31,.24,.38,.36,.17,.28,.22,.62,.08,.93h0c-.06,.13-.15,.25-.26,.34,.02-.02,.04-.04,.06-.07h0c.17-.28-.08-.73-.54-1.01l-9.32-5.52-9.07-5.38s-.29-.18-.3-.2c-.31-.22-.64-.29-.84-.2Z"/><path class="w" d="M426.09,638.2c.3-.39,.84-.5,1.27-.24l9.28,5.5,.19,.11,9.08,5.38c.13,.08,.31,.24,.38,.36,.17,.28,.21,.62,.06,.93h0c-.06,.13-.16,.25-.27,.34,.02-.02,.04-.05,.06-.08h0c.18-.31-.05-.78-.52-1.06l-9.32-5.52-9.06-5.37s-.29-.18-.3-.19c-.32-.22-.65-.27-.87-.17Z"/><path class="v" d="M426.09,638.2c.3-.38,.84-.49,1.27-.24l9.29,5.5,.19,.11,9.09,5.39c.14,.08,.3,.24,.38,.37,.16,.28,.2,.63,.05,.94h0c-.07,.13-.16,.25-.27,.33,.02-.03,.05-.05,.07-.09h0c.2-.33-.02-.83-.49-1.1l-9.32-5.52-9.05-5.37s-.29-.18-.3-.19c-.32-.21-.67-.25-.9-.13Z"/><path class="p" d="M426.09,638.2c.3-.38,.84-.49,1.27-.24l9.29,5.51,.19,.11,9.1,5.39c.14,.08,.3,.24,.37,.37,.16,.28,.19,.64,.03,.94h0c-.07,.13-.17,.25-.28,.33,.03-.03,.05-.06,.07-.09h0c.21-.36,0-.88-.46-1.15l-9.32-5.52-9.05-5.36s-.3-.18-.3-.19c-.32-.21-.68-.24-.93-.1Z"/><path class="n" d="M426.09,638.19c.3-.38,.84-.48,1.27-.23l9.3,5.51,.19,.11,9.1,5.4c.15,.09,.29,.23,.37,.37,.16,.29,.18,.64,.02,.95h0c-.07,.13-.17,.24-.29,.33,.03-.03,.05-.06,.07-.1h0c.23-.39,.04-.92-.43-1.2l-9.32-5.52-9.04-5.36s-.3-.18-.3-.19c-.32-.21-.69-.22-.95-.07Z"/><path class="ab" d="M426.1,638.19c.3-.37,.84-.48,1.26-.23l9.3,5.52,.19,.11,9.11,5.4c.15,.09,.29,.23,.37,.38,.16,.29,.18,.65,0,.95h0c-.07,.13-.18,.24-.29,.33,.03-.03,.06-.07,.08-.11h0c.24-.41,.07-.97-.4-1.25l-9.32-5.52-9.03-5.35s-.3-.18-.3-.19c-.33-.2-.71-.21-.98-.04Z"/><path class="o" d="M426.1,638.19c.3-.37,.84-.48,1.26-.23l9.31,5.52,.19,.11,9.12,5.41c.16,.09,.29,.23,.37,.38,.16,.29,.17,.65,0,.96h0c-.08,.13-.18,.24-.3,.32,.03-.04,.06-.07,.08-.11h0c.26-.44,.09-1.02-.37-1.3l-9.32-5.52-9.02-5.35-.31-.18c-.33-.2-.72-.19-1.01,0Z"/><path class="ag" d="M446.11,650.55c.28-.47,.12-1.07-.34-1.35l-9.32-5.52-9.32-5.52c-.33-.2-.73-.17-1.04,.02,.3-.37,.84-.47,1.26-.22l9.32,5.52,9.32,5.52c.47,.28,.62,.88,.34,1.35h0c-.08,.13-.19,.24-.31,.32,.03-.04,.06-.08,.09-.12Z"/></g></g><g><path class="at" d="M364.44,371.62c.22-11.37,.45-22.74,.67-34.1-38.15-.75-70.94-27.24-79.7-64.37-11.07,2.61-22.13,5.22-33.2,7.83,12.34,52.29,58.52,89.59,112.23,90.64Z"/><path class="s" d="M285.41,273.15s6.37-.15,5.12-8.69c-1.26-8.54-7.79-4.52-7.79-4.52,0,0,1-24.36-22.35-20.85-23.36,3.52-8.17,41.9-8.17,41.9l33.2-7.83Z"/></g><path class="at" d="M346.69,694.55h0c-95.25-127.45,201.05-248.58,201.05-382.36h-183.18c0,140.65-132.1,268.13-17.87,382.36Z"/><path class="s" d="M295.34,687.25c0-1.42,.54-2.71,1.41-3.69-.17-.35-.28-.74-.28-1.15,0-1.14,.75-2.1,1.78-2.42,.27-3,2.79-5.34,5.86-5.34,1.94,0,3.65,.94,4.72,2.39,.16-.03,.33-.05,.49-.05,1.29,0,2.37,.84,2.75,2,2.16,.84,3.69,2.93,3.69,5.38,0,1.91-.94,3.61-2.37,4.66,.3,.48,.48,1.05,.48,1.66,0,1.72-1.39,3.11-3.11,3.11-.49,0-.96-.12-1.38-.33-.98,1.03-2.36,1.67-3.89,1.67-1.31,0-2.51-.47-3.44-1.25-.16,.03-.33,.04-.5,.04-1.17,0-2.19-.61-2.76-1.54-2.03-.83-3.46-2.81-3.46-5.14Z"/><path class="s" d="M352.38,630.29c0-3.04,1.15-5.8,3.02-7.9-.38-.74-.59-1.57-.59-2.46,0-2.44,1.6-4.49,3.8-5.19,.58-6.41,5.97-11.44,12.53-11.44,4.15,0,7.81,2.01,10.11,5.11,.34-.06,.7-.1,1.06-.1,2.75,0,5.08,1.8,5.88,4.28,4.62,1.79,7.9,6.26,7.9,11.51,0,4.1-2,7.71-5.07,9.96,.65,1.03,1.03,2.24,1.03,3.54,0,3.68-2.98,6.65-6.65,6.65-1.06,0-2.06-.25-2.95-.7-2.1,2.2-5.05,3.58-8.33,3.58-2.8,0-5.37-1.01-7.37-2.67-.35,.05-.7,.09-1.06,.09-2.49,0-4.68-1.32-5.9-3.29-4.34-1.77-7.4-6.02-7.4-11Z"/><path class="s" d="M233.54,670.63c0-3.58,1.36-6.84,3.57-9.32-.44-.87-.7-1.86-.7-2.9,0-2.87,1.89-5.3,4.49-6.12,.69-7.56,7.04-13.49,14.79-13.49,4.89,0,9.22,2.37,11.93,6.03,.41-.07,.82-.12,1.25-.12,3.25,0,5.99,2.12,6.94,5.05,5.45,2.11,9.32,7.39,9.32,13.59,0,4.83-2.36,9.1-5.98,11.76,.76,1.21,1.22,2.64,1.22,4.18,0,4.33-3.51,7.85-7.85,7.85-1.25,0-2.43-.3-3.48-.82-2.48,2.6-5.96,4.23-9.84,4.23-3.31,0-6.34-1.19-8.7-3.15-.41,.06-.83,.1-1.25,.1-2.94,0-5.52-1.56-6.97-3.88-5.12-2.09-8.73-7.11-8.73-12.98Z"/><polygon class="s" points="338.25 309.25 328.22 311 338.25 312.75 340 322.78 341.75 312.75 351.79 311 341.75 309.25 340 299.22 338.25 309.25"/><polygon class="s" points="576.25 240.18 566.22 241.93 576.25 243.68 578 253.71 579.75 243.68 589.79 241.93 579.75 240.18 578 230.14 576.25 240.18"/><polygon class="s" points="344.67 82.85 334.64 84.6 344.67 86.35 346.42 96.39 348.17 86.35 358.21 84.6 348.17 82.85 346.42 72.82 344.67 82.85"/><polygon class="s" points="379.14 512.48 369.11 514.23 379.14 515.98 380.89 526.02 382.64 515.98 392.68 514.24 382.64 512.48 380.89 502.45 379.14 512.48"/><polygon class="s" points="290.82 525.27 280.79 527.02 290.82 528.77 292.57 538.8 294.32 528.77 304.35 527.02 294.32 525.27 292.57 515.23 290.82 525.27"/><polygon class="s" points="509.76 413.94 497.2 405.11 506.03 417.67 497.2 430.23 509.76 421.4 522.32 430.23 513.49 417.67 522.32 405.11 509.76 413.94"/><polygon class="s" points="563.87 116.44 551.31 107.61 560.14 120.17 551.31 132.73 563.87 123.9 576.43 132.73 567.6 120.17 576.43 107.61 563.87 116.44"/><polygon class="s" points="437.3 8.83 424.73 0 433.57 12.56 424.73 25.12 437.3 16.29 449.86 25.12 441.02 12.56 449.86 0 437.3 8.83"/><polygon class="s" points="530.02 66.24 526.14 63.51 528.87 67.39 526.14 71.28 530.02 68.55 533.91 71.28 531.18 67.39 533.91 63.51 530.02 66.24"/><polygon class="s" points="346.42 244.23 343.15 241.93 345.45 245.2 343.15 248.48 346.42 246.17 349.7 248.48 347.4 245.2 349.7 241.93 346.42 244.23"/><g><polygon class="t" points="412.07 318.16 408.95 312.96 413.61 312.96 418.26 312.96 415.14 318.16 420.84 360.23 413.61 369.26 406.37 360.23 412.07 318.16"/><g><g><polygon class="j" points="412.56 312.96 404.5 323.64 390.7 312.96 412.56 312.96"/><polygon class="at" points="412.56 312.96 404.5 322.44 390.7 312.96 412.56 312.96"/></g><g><polygon class="j" points="414.23 312.96 424.2 323.64 441.3 312.96 414.23 312.96"/><polygon class="at" points="414.23 312.96 424.2 322.44 441.3 312.96 414.23 312.96"/></g></g></g><g><path class="j" d="M539.81,347.31s37.87,15.88,3.09,33.83c-11.08,5.71-27.37,6.2-40.36,6.45-.23-11.37-.45-18.97-.67-30.33,13.61-.26,26.53-3.81,37.93-9.95Z"/><g><path class="at" d="M502.54,387.59c-.22-11.37-.45-22.74-.67-34.1,38.15-.75,70.95-27.24,79.7-64.37,11.07,2.61,22.13,5.22,33.2,7.83-12.33,52.29-58.52,89.59-112.23,90.64Z"/><path class="s" d="M581.57,289.12s-6.37-.15-5.12-8.69c1.26-8.54,7.79-4.52,7.79-4.52,0,0-1-24.36,22.35-20.85,23.36,3.52,8.17,41.9,8.17,41.9l-33.2-7.83Z"/></g></g><g><path class="au" d="M729.29,308.1h-8.14l-.82,5.49c.49-.07,.95-.12,1.73-.12,1.66,0,3.28,.36,4.61,1.16,1.66,.93,3.05,2.79,3.05,5.49,0,4.17-3.31,7.29-7.95,7.29-2.35,0-4.3-.66-5.33-1.32l.73-2.21c.88,.52,2.62,1.2,4.58,1.2,2.71,0,5.06-1.79,5.04-4.66-.02-2.75-1.86-4.71-6.13-4.71-1.24,0-2.18,.1-2.97,.22l1.38-10.26h10.21v2.42Z"/><path class="au" d="M746.98,316.14c0,7.25-2.71,11.27-7.43,11.27-4.17,0-7.01-3.91-7.08-10.97,0-7.18,3.1-11.13,7.44-11.13s7.08,4.02,7.08,10.83Zm-11.6,.3c0,5.57,1.71,8.72,4.34,8.72,2.95,0,4.36-3.45,4.36-8.89s-1.33-8.71-4.34-8.71c-2.52,0-4.36,3.09-4.36,8.88Z"/></g><g><path class="au" d="M277.31,81.89c.82,.51,2.72,1.33,4.74,1.33,3.69,0,4.85-2.35,4.84-4.14-.03-3-2.74-4.27-5.53-4.28h-1.62v-2.17h1.62c2.1,0,4.76-1.08,4.76-3.61,0-1.72-1.09-3.22-3.76-3.22-1.7,0-3.35,.75-4.26,1.41l-.78-2.09c1.12-.83,3.3-1.65,5.59-1.65,4.23,0,6.14,2.49,6.14,5.11,0,2.21-1.35,4.08-3.95,5.03v.07c2.63,.5,4.75,2.5,4.75,5.48,0,3.41-2.68,6.41-7.8,6.41-2.4,0-4.49-.74-5.54-1.46l.77-2.21Z"/><path class="au" d="M307.7,74.29c0,7.25-2.71,11.27-7.44,11.27-4.17,0-7.01-3.91-7.08-10.97,0-7.18,3.1-11.13,7.44-11.13s7.08,4.02,7.08,10.83Zm-11.6,.3c0,5.57,1.71,8.72,4.34,8.72,2.95,0,4.36-3.45,4.36-8.89s-1.34-8.71-4.34-8.71c-2.52,0-4.36,3.09-4.36,8.88Z"/></g><path class="t" d="M253.57,64.32c2.71,.46,4.72,3.23,4.96,5.6,.28-2.37,1.86-4.39,4.66-5.47,3.38-1.3,7.46,2.05,7.76,6.12,.24,3.23-1.45,6.2-3.15,8.79-2.67,4.09-9.84,8.92-9.84,8.92,.57,0-6.03-4.83-8.7-8.92-1.7-2.6-3.39-5.56-3.15-8.79,.3-4.07,3.93-6.85,7.47-6.25Z"/><g><path class="au" d="M111.47,237.09h-.07l-3.71,2-.55-2.2,4.67-2.49h2.45v21.37h-2.79v-18.69Z"/><path class="au" d="M135.62,244.87c0,7.25-2.71,11.27-7.44,11.27-4.17,0-7.01-3.91-7.08-10.97,0-7.18,3.1-11.13,7.44-11.13s7.08,4.02,7.08,10.83Zm-11.6,.3c0,5.57,1.71,8.72,4.34,8.72,2.95,0,4.36-3.45,4.36-8.89s-1.34-8.71-4.34-8.71c-2.52,0-4.36,3.09-4.36,8.88Z"/><path class="au" d="M151.83,244.87c0,7.25-2.71,11.27-7.44,11.27-4.17,0-7.01-3.91-7.08-10.97,0-7.18,3.1-11.13,7.44-11.13s7.08,4.02,7.08,10.83Zm-11.6,.3c0,5.57,1.71,8.72,4.34,8.72,2.95,0,4.36-3.45,4.36-8.89s-1.34-8.71-4.34-8.71c-2.52,0-4.36,3.09-4.36,8.88Z"/></g><g><path class="q" d="M95.85,239.51c0,3.92-3.18,7.1-7.1,7.1s-7.1-3.18-7.1-7.1,3.18-7.1,7.1-7.1,7.1,3.18,7.1,7.1Z"/><path class="q" d="M88.76,244.75c-6.04,0-10.93,4.89-10.93,10.93h21.86c0-6.04-4.89-10.93-10.93-10.93Z"/></g><g><rect class="l" x="696.5" y="309.32" width="11.17" height="19.15"/><path class="m" d="M695.7,328.47v-19.15c0-.44,.36-.8,.8-.8h11.17c.44,0,.8,.36,.8,.8v19.15c0,.44-.36,.8-.8,.8h-11.17c-.44,0-.8-.36-.8-.8Zm11.17-18.36h-9.58v17.56h9.58v-17.56Z"/><path class="s" d="M696.5,310.91l-1.6-.8-4.79-10.37v-5.59c-.7-.51-1.53-.79-2.39-.8-1.4,0-3.99,2.59-3.99,5.59,.18,2.46,.72,4.88,1.6,7.18h-11.17c-1.1,0-2.12,.57-2.7,1.51-.93,1.5-.47,3.47,1.03,4.4-.84,.42-1.41,1.25-1.51,2.18-.16,1.52,.94,2.89,2.46,3.05-.49,.45-.79,1.07-.87,1.73-.16,1.52,.94,2.89,2.46,3.06-.56,.53-.88,1.27-.88,2.04,0,1.54,1.26,2.78,2.8,2.78h14.76c1.72-.02,3.4-.58,4.79-1.6v-14.37Z"/><path class="m" d="M673.36,324.08c0-.55,.13-1.1,.38-1.6-1.21-.61-1.97-1.84-1.97-3.19,0-.55,.13-1.1,.38-1.6-.34-.17-.65-.39-.92-.66-1.4-1.39-1.41-3.65-.02-5.05-.67-.73-1.04-1.68-1.04-2.68,0-2.2,1.79-3.99,3.99-3.99h10.06c-.73-2.06-1.16-4.21-1.28-6.38,0-3.46,2.94-6.38,4.79-6.38,1.04,.02,2.05,.35,2.89,.97,.19,.15,.3,.38,.3,.62v5.41l4.6,9.96,1.35,.67c.27,.14,.44,.41,.44,.71v14.37c0,.21-.08,.42-.23,.57-1.54,1.17-3.42,1.81-5.35,1.83h-14.76c-1.98,0-3.59-1.61-3.59-3.59Zm22.35,.83v-13.51l-1.16-.58c-.16-.08-.29-.21-.37-.38l-4.79-10.37c-.05-.11-.07-.22-.07-.34v-5.15c-.49-.27-1.04-.42-1.6-.43-.87,0-3.19,2.17-3.19,4.79,.18,2.36,.7,4.68,1.54,6.9,.03,.09,.05,.19,.05,.28,0,.44-.36,.8-.8,.8h-11.17c-.82,0-1.58,.43-2.01,1.13-.7,1.12-.36,2.6,.77,3.3,.12,.08,.22,.18,.29,.31,.2,.39,.05,.87-.34,1.08-.6,.3-1.01,.89-1.08,1.56-.11,1.09,.67,2.06,1.76,2.17,.19,.02,.36,.11,.49,.25,.3,.32,.29,.83-.03,1.13-.35,.33-.57,.77-.62,1.24-.11,1.09,.67,2.06,1.76,2.17,.19,.02,.36,.11,.49,.25,.3,.32,.29,.83-.03,1.13-.4,.37-.63,.9-.63,1.44,0,1.1,.89,1.99,2,2h14.76c1.41-.04,2.78-.44,3.99-1.16h0Z"/></g></g></g></svg>