<svg xmlns="http://www.w3.org/2000/svg" width="46.486" height="41.019" viewBox="0 0 46.486 41.019">
  <g id="chat" transform="translate(0 -30.11)">
    <g id="Group_24" data-name="Group 24" transform="translate(0 30.11)">
      <path id="Path_11" data-name="Path 11" d="M221.345,191.141H199.736a.681.681,0,1,0,0,1.362h21.609a.681.681,0,1,0,0-1.362Z" transform="translate(-180.982 -176.52)" fill="#f61313"/>
      <path id="Path_12" data-name="Path 12" d="M221.345,248.474H199.736a.681.681,0,1,0,0,1.362h21.609a.681.681,0,0,0,0-1.362Z" transform="translate(-180.982 -228.648)" fill="#f61313"/>
      <path id="Path_13" data-name="Path 13" d="M221.345,305.807H199.736a.681.681,0,1,0,0,1.362h21.609a.681.681,0,1,0,0-1.362Z" transform="translate(-180.982 -280.775)" fill="#f61313"/>
      <path id="Path_14" data-name="Path 14" d="M169.005,125.549H143.071a3.965,3.965,0,0,0-3.961,3.961v16.308a3.965,3.965,0,0,0,3.961,3.961h18.178a.628.628,0,0,1,.5.24l5.87,7.432a1.17,1.17,0,0,0,.922.453,1.2,1.2,0,0,0,.4-.068,1.171,1.171,0,0,0,.8-1.119v-7.005a3.979,3.979,0,0,0,3.237-3.893V129.51a3.965,3.965,0,0,0-3.961-3.961Zm2.6,20.269a2.608,2.608,0,0,1-2.565,2.6.681.681,0,0,0-.672.681v7.11l-5.554-7.032a1.982,1.982,0,0,0-1.564-.758H143.071a2.6,2.6,0,0,1-2.6-2.6V129.51a2.6,2.6,0,0,1,2.6-2.6h25.935a2.6,2.6,0,0,1,2.6,2.6Z" transform="translate(-126.48 -116.884)" fill="#f61313"/>
      <path id="Path_15" data-name="Path 15" d="M10.032,50.035a1.816,1.816,0,0,0-1.175.675L4.18,56.632V50.7a.681.681,0,0,0-.672-.681,2.182,2.182,0,0,1-2.146-2.173v-14.2a2.177,2.177,0,0,1,2.174-2.174H26.113a2.177,2.177,0,0,1,2.174,2.174v2.627a.681.681,0,0,0,1.362,0V33.646a3.54,3.54,0,0,0-3.536-3.536H3.536A3.54,3.54,0,0,0,0,33.646v14.2A3.552,3.552,0,0,0,2.818,51.3V57.33a1.106,1.106,0,0,0,.752,1.058,1.14,1.14,0,0,0,.374.064,1.106,1.106,0,0,0,.872-.428l5.11-6.47a.46.46,0,0,1,.3-.171.681.681,0,1,0-.191-1.348Z" transform="translate(0 -30.11)" fill="#f61313"/>
    </g>
  </g>
</svg>
