<svg xmlns="http://www.w3.org/2000/svg" width="42" height="43.394" viewBox="0 0 42 43.394">
  <path id="chat_1_" data-name="chat (1)" d="M33.761,39.078a.678.678,0,0,1-.678.678H24.475a.678.678,0,1,1,0-1.356h8.608A.678.678,0,0,1,33.761,39.078Zm2.08-27.591a1.148,1.148,0,1,1,1.148,1.148,1.148,1.148,0,0,1-1.148-1.148Zm.939,0a.208.208,0,1,0,.208-.208.208.208,0,0,0-.208.208Zm-6.377,0a1.148,1.148,0,1,1,1.148,1.148A1.148,1.148,0,0,1,30.4,11.487Zm.939,0a.208.208,0,1,0,.208-.208.208.208,0,0,0-.208.208Zm9.936,0a1.148,1.148,0,1,1,1.148,1.148A1.148,1.148,0,0,1,41.279,11.487Zm.939,0a.208.208,0,1,0,.208-.208A.208.208,0,0,0,42.218,11.487ZM24.2,24.416a1.148,1.148,0,1,1-1.148-1.148A1.148,1.148,0,0,1,24.2,24.416Zm-.939,0a.208.208,0,1,0-.208.208.208.208,0,0,0,.208-.208Zm-4.5,0a1.148,1.148,0,1,1-1.148-1.148,1.148,1.148,0,0,1,1.148,1.148Zm-.939,0a.208.208,0,1,0-.208.208.208.208,0,0,0,.208-.208Zm-4.5,0a1.148,1.148,0,1,1-1.148-1.148,1.148,1.148,0,0,1,1.148,1.148Zm-.939,0a.208.208,0,1,0-.208.208.208.208,0,0,0,.208-.208Zm37.839,2.031v3.8a2.267,2.267,0,0,1-2.264,2.264H41.475v7.142A3.926,3.926,0,0,1,37.4,43.394H20.233a3.926,3.926,0,0,1-4.078-3.743V28.579H10.488a2.267,2.267,0,0,1-2.264-2.264v-3.8a2.267,2.267,0,0,1,2.264-2.264h5.667V3.743A3.926,3.926,0,0,1,20.233,0H37.4a3.926,3.926,0,0,1,4.078,3.743V7.325h2.639a2.267,2.267,0,0,1,2.264,2.264v3.8a2.267,2.267,0,0,1-2.264,2.264H41.475v8.533H47.96a2.267,2.267,0,0,1,2.264,2.264ZM44.114,8.681H29.863a.909.909,0,0,0-.908.908v3.8a.909.909,0,0,0,.908.908H44.114a.909.909,0,0,0,.908-.908v-3.8a.909.909,0,0,0-.908-.908ZM25.172,2.16h6.837v-.8H25.172ZM10.488,27.223H24.739a.909.909,0,0,0,.908-.908v-3.8a.909.909,0,0,0-.908-.908H10.488a.909.909,0,0,0-.908.908v3.8A.909.909,0,0,0,10.488,27.223Zm29.631,5.286H33.709a2.267,2.267,0,0,1-2.264-2.264v-3.8a2.267,2.267,0,0,1,2.264-2.264H40.12V15.65H29.863A2.267,2.267,0,0,1,27.6,13.386v-3.8a2.267,2.267,0,0,1,2.264-2.264H40.119V3.743A2.574,2.574,0,0,0,37.4,1.356H33.365V2.838a.678.678,0,0,1-.678.678H24.494a.678.678,0,0,1-.678-.678V1.356H20.233a2.574,2.574,0,0,0-2.722,2.387v16.51H24.74A2.267,2.267,0,0,1,27,22.518v3.8a2.267,2.267,0,0,1-2.264,2.264H17.511V39.651a2.574,2.574,0,0,0,2.722,2.387H37.4a2.574,2.574,0,0,0,2.722-2.387Zm8.749-6.061a.909.909,0,0,0-.908-.908H33.709a.909.909,0,0,0-.908.908v3.8a.909.909,0,0,0,.908.908H47.96a.909.909,0,0,0,.908-.908Zm-1.449,1.9A1.148,1.148,0,1,1,46.272,27.2a1.148,1.148,0,0,1,1.148,1.148Zm-.939,0a.208.208,0,1,0-.208.208.208.208,0,0,0,.208-.208Zm-4.5,0A1.148,1.148,0,1,1,40.834,27.2a1.148,1.148,0,0,1,1.148,1.148Zm-.939,0a.208.208,0,1,0-.208.208.208.208,0,0,0,.208-.208Zm-4.5,0A1.148,1.148,0,1,1,35.4,27.2a1.148,1.148,0,0,1,1.148,1.148Zm-.939,0a.208.208,0,1,0-.208.208.208.208,0,0,0,.208-.208Z" transform="translate(-8.224)" fill="#53e1e3"/>
</svg>
