<svg xmlns="http://www.w3.org/2000/svg" width="51.996" height="51.997" viewBox="0 0 51.996 51.997">
  <path id="target" d="M51.888,9.554a.71.71,0,0,0-.57-.48l-4.694-.7,1.1-1.1a.71.71,0,0,0,0-1L45.658,4.195a.71.71,0,0,0-1,0l-1.1,1.1L42.85.606a.71.71,0,0,0-1.2-.4L36.456,5.4A24.779,24.779,0,1,0,46.524,15.468l5.19-5.19a.71.71,0,0,0,.174-.724ZM24.22,27.7a2.179,2.179,0,0,0,3.077,0l2.192-2.192A5.011,5.011,0,0,1,29.8,27.2a5.075,5.075,0,1,1-5.075-5.075,5.007,5.007,0,0,1,1.691.307l-2.192,2.192a2.175,2.175,0,0,0,0,3.078ZM27.5,21.342a6.522,6.522,0,1,0,3.077,3.078L34,21a11.02,11.02,0,0,1,1.891,6.2A11.165,11.165,0,1,1,24.722,16.036a11.023,11.023,0,0,1,6.2,1.891Zm4.432-4.432a12.43,12.43,0,0,0-7.214-2.294A12.586,12.586,0,1,0,37.308,27.2a12.428,12.428,0,0,0-2.293-7.213l3.341-3.343a17.282,17.282,0,1,1-3.077-3.078ZM45.154,5.7,46.221,6.77,26.293,26.7a.755.755,0,0,1-1.068-1.068Zm-3.5-3.492.644,4.34-4.74,4.74-.644-4.34ZM24.722,50.546A23.344,23.344,0,1,1,35.481,6.487a.709.709,0,0,0-.026.319l.853,5.736-.016.016a18.708,18.708,0,1,0,3.077,3.077l.016-.016,5.736.853a.7.7,0,0,0,.1.008.716.716,0,0,0,.213-.036,23.338,23.338,0,0,1-20.716,34.1ZM44.974,15.013l-4.34-.644,4.74-4.74,4.34.644Z" transform="translate(0.072 0)" fill="#f5ca52"/>
</svg>
