<svg xmlns="http://www.w3.org/2000/svg" width="50.288" height="51.184" viewBox="0 0 50.288 51.184">
  <g id="idea" transform="translate(-4.449 0)">
    <path id="Path_6" data-name="Path 6" d="M116.558,23.726a.764.764,0,0,0-.753-.718h-8.694l1.411-3.217a.766.766,0,0,0,.012-.578l-.722-1.854a7.767,7.767,0,0,0,1.165-.54l1.811,1.12a.758.758,0,0,0,.956-.134l1.751-1.923a.756.756,0,0,0,.037-.973l-1.3-1.67a7.663,7.663,0,0,0,.394-1.1l2.076-.479a.755.755,0,0,0,.585-.774L115.157,8.3a.756.756,0,0,0-.66-.711l-2.114-.268a7.66,7.66,0,0,0-.5-1.052l1.125-1.792a.755.755,0,0,0-.135-.964l-1.936-1.737a.756.756,0,0,0-.965-.037l-1.689,1.3a7.767,7.767,0,0,0-1.112-.394l-.48-2.057A.754.754,0,0,0,105.914,0l-2.607.132a.756.756,0,0,0-.711.658l-.271,2.1a7.761,7.761,0,0,0-1.067.5l-1.811-1.12a.756.756,0,0,0-.956.134L96.74,4.328A.755.755,0,0,0,96.7,5.3L98,6.97a7.679,7.679,0,0,0-.32.849L94.144,6.267a.756.756,0,0,0-1,.389l-3,6.852V1.77a.756.756,0,0,0-1.511,0V5.08A16.128,16.128,0,0,0,75.81,12.445a.756.756,0,0,0,1.267.824A14.619,14.619,0,0,1,88.633,6.592V38.583H83.974a1.158,1.158,0,0,1-1.153-1.16V34.832a.756.756,0,0,0-.4-.665,14.678,14.678,0,0,1-7.052-17.276.756.756,0,0,0-1.443-.45A16.191,16.191,0,0,0,81.31,35.277v2.147a2.675,2.675,0,0,0,1.908,2.561v3.58a4.2,4.2,0,0,0,4.192,4.192h1.223v2.673a.756.756,0,0,0,1.511,0V32.343l7.7,3.376-.173.987a6.384,6.384,0,0,0-.743.306l-1.357-.945a.755.755,0,0,0-.966.086l-1.492,1.494a.756.756,0,0,0-.085.967l.947,1.356a6.386,6.386,0,0,0-.305.743L92.052,41a.756.756,0,0,0-.624.747l.009,2.119a.756.756,0,0,0,.62.74l1.625.3a6.462,6.462,0,0,0,.314.753L93.063,47a.756.756,0,0,0,.087.965l1.5,1.5a.756.756,0,0,0,.965.086l1.346-.934a6.468,6.468,0,0,0,.753.313l.3,1.625a.756.756,0,0,0,.741.619l2.119.007h0a.756.756,0,0,0,.744-.625l.284-1.616a6.377,6.377,0,0,0,.743-.306l1.357.945a.755.755,0,0,0,.966-.086L106.466,48a.756.756,0,0,0,.085-.967l-.947-1.356a6.389,6.389,0,0,0,.305-.743l1.616-.285a.756.756,0,0,0,.624-.747l-.009-2.119a.756.756,0,0,0-.62-.74l-1.528-.279c2.163-.01,4.359-.01,6.494-.01a.771.771,0,0,0,.693-.224l3.176-3.377a.756.756,0,0,0,.205-.518V23.764C116.561,23.751,116.559,23.739,116.558,23.726Zm-2.5.793-1.722,1.831H101.495l1.722-1.831ZM105.531,11.5a.77.77,0,0,0-.4-.418l-2.868-1.257a2.868,2.868,0,1,1,3.774,2.971Zm-.748,2.244.816,2.1.863,2.216-3-1.325Zm-5.3-7.333-1.2-1.539.9-.989,1.672,1.034a.756.756,0,0,0,.812-.011,6.254,6.254,0,0,1,1.57-.741.756.756,0,0,0,.525-.625l.25-1.933,1.346-.068.443,1.9a.756.756,0,0,0,.585.569,6.253,6.253,0,0,1,1.636.579.756.756,0,0,0,.808-.071l1.559-1.2.995.893L110.35,5.864a.756.756,0,0,0,.01.82,6.157,6.157,0,0,1,.744,1.555.756.756,0,0,0,.626.523l1.949.247.067,1.324-1.915.442a.756.756,0,0,0-.57.583,6.147,6.147,0,0,1-.584,1.622.756.756,0,0,0,.072.817l1.2,1.539-.9.989-1.672-1.034a.756.756,0,0,0-.811.01,6.258,6.258,0,0,1-1.3.65l-.679-1.744A4.359,4.359,0,1,0,100.833,9.2l-1.757-.77a6.171,6.171,0,0,1,.48-1.2.755.755,0,0,0-.072-.817ZM87.41,46.245a2.684,2.684,0,0,1-2.681-2.681v-3.47h3.9v6.15Zm2.734-28.973,4.085-9.316,9.6,4.209-2.053,4.649a.756.756,0,0,0,.386,1l4.674,2.065-1.374,3.134H102.89a.755.755,0,0,0-.55.238l-3.176,3.377a1.388,1.388,0,0,0-.218.845v7h-.2l-8.6-3.772Zm16.491,26-1.449.256a.756.756,0,0,0-.6.558,4.869,4.869,0,0,1-.518,1.263.756.756,0,0,0,.032.815l.849,1.217-.6.6-1.217-.848a.756.756,0,0,0-.815-.032,4.871,4.871,0,0,1-1.263.519.755.755,0,0,0-.557.6l-.254,1.449-.855,0-.268-1.461a.756.756,0,0,0-.552-.595,4.962,4.962,0,0,1-1.27-.528.756.756,0,0,0-.815.03l-1.208.839-.612-.611.838-1.209a.756.756,0,0,0,.029-.815,4.966,4.966,0,0,1-.53-1.27.756.756,0,0,0-.6-.552l-1.461-.267,0-.855,1.449-.256a.756.756,0,0,0,.6-.558,4.87,4.87,0,0,1,.518-1.263.756.756,0,0,0-.032-.815l-.849-1.217.6-.6,1.217.848a.755.755,0,0,0,.815.032,4.876,4.876,0,0,1,1.263-.519.755.755,0,0,0,.557-.6l.254-1.449.855,0,.268,1.461a.756.756,0,0,0,.552.595,4.959,4.959,0,0,1,1.27.528.755.755,0,0,0,.815-.03L104.3,37.7l.612.611-.838,1.209a.756.756,0,0,0-.029.815,4.966,4.966,0,0,1,.53,1.27.756.756,0,0,0,.6.552l1.461.267Zm6.752-5.169c0-.744,0-2.582,0-2.582a.756.756,0,0,0-1.511,0v3.722c-1.908,0-3.855,0-5.78.01l.42-.606a.756.756,0,0,0-.087-.965l-1.5-1.5a.756.756,0,0,0-.965-.086l-1.346.934a6.47,6.47,0,0,0-.754-.313l-.3-1.625a.9.9,0,0,0-1.093-.62c-.012-.839.079-5.228,0-6.574h11.407v3.683a.756.756,0,0,0,1.511,0s0-2.841,0-4.141l1.662-1.768V36.339Z" transform="translate(-61.824 0)" fill="#058dff"/>
    <path id="Path_7" data-name="Path 7" d="M306.576,390.994h-.011a3.4,3.4,0,0,0-3.407,3.421,3.45,3.45,0,0,0,3.435,3.432h.011a3.4,3.4,0,0,0,3.407-3.421,3.45,3.45,0,0,0-3.435-3.432Zm1.37,4.787a1.869,1.869,0,0,1-1.349.555,1.939,1.939,0,0,1-1.929-1.927,1.892,1.892,0,0,1,1.9-1.9,1.939,1.939,0,0,1,1.929,1.927A1.884,1.884,0,0,1,307.946,395.781Z" transform="translate(-268.614 -351.602)" fill="#058dff"/>
    <path id="Path_8" data-name="Path 8" d="M71.934,49.818a.774.774,0,0,0,.534-1.29l-2.577-2.577a.756.756,0,0,0-1.069,1.068L71.4,49.6A.753.753,0,0,0,71.934,49.818Z" transform="translate(-57.688 -41.12)" fill="#058dff"/>
    <path id="Path_9" data-name="Path 9" d="M8.826,204.487H5.182a.756.756,0,0,0,0,1.511H8.826A.756.756,0,0,0,8.826,204.487Z" transform="translate(0 -183.885)" fill="#058dff"/>
    <path id="Path_10" data-name="Path 10" d="M73.688,336.9l-2.576,2.577a.756.756,0,0,0,1.069,1.068l2.576-2.577A.756.756,0,0,0,73.688,336.9Z" transform="translate(-59.745 -302.758)" fill="#058dff"/>
  </g>
</svg>
