<svg id="Capa_1" enable-background="new 0 0 512 512" height="512" viewBox="0 0 512 512" width="512" xmlns="http://www.w3.org/2000/svg" xmlns:xlink="http://www.w3.org/1999/xlink"><radialGradient id="Path_00000108296685483463910010000010376667745769527187_" cx="-1341.338" cy="6883.762" gradientTransform="matrix(800 0 0 -799.999 1073169 5507508.5)" gradientUnits="userSpaceOnUse" r=".697"><stop offset="0" stop-color="#09f"/><stop offset=".6098" stop-color="#a033ff"/><stop offset=".9348" stop-color="#ff5280"/><stop offset="1" stop-color="#ff7061"/></radialGradient><g id="logo" clip-rule="evenodd" fill-rule="evenodd"><path id="Path" d="m256 0c-144.213 0-256 105.636-256 248.32 0 74.633 30.587 139.125 80.398 183.67 4.182 3.743 6.706 8.986 6.877 14.597l1.394 45.537c.445 14.526 15.449 23.977 28.741 18.109l50.812-22.431c4.307-1.9 9.134-2.253 13.673-1.004 23.35 6.421 48.201 9.841 74.104 9.841 144.212 0 256-105.636 256-248.32s-111.787-248.319-255.999-248.319z" fill="url(#Path_00000108296685483463910010000010376667745769527187_)"/><path id="Path_00000132047020611933167100000006482439701923528102_" d="m102.273 320.94 75.2-119.306c11.962-18.98 37.577-23.706 55.525-10.245l59.81 44.858c5.488 4.117 13.038 4.094 18.503-.053l80.777-61.304c10.782-8.182 24.855 4.721 17.64 16.171l-75.2 119.307c-11.963 18.979-37.578 23.706-55.525 10.244l-59.812-44.859c-5.487-4.115-13.038-4.093-18.502.054l-80.777 61.304c-10.782 8.181-24.856-4.721-17.639-16.171z" fill="#fff"/></g></svg>