<svg xmlns="http://www.w3.org/2000/svg" width="89.5" height="66.851" viewBox="0 0 89.5 66.851"><defs><style>.a{fill:#76bb8a;}</style></defs><g transform="translate(-108.427 -138.086)"><path class="a" d="M200.6,159.064,192.15,173.83a2.121,2.121,0,0,1-1.325.773H173.93a2.122,2.122,0,0,1-1.326-.773l-8.447-14.766a2.166,2.166,0,0,1,0-1.546l8.447-14.767a2.123,2.123,0,0,1,1.326-.772h16.894a2.122,2.122,0,0,1,1.325.772l8.447,14.767a2.166,2.166,0,0,1,0,1.546m3.608-3.024-8.982-15.7a4.941,4.941,0,0,0-3.863-2.252H173.4a4.939,4.939,0,0,0-3.863,2.252l-8.982,15.7a5.033,5.033,0,0,0,0,4.5l8.982,15.7A4.94,4.94,0,0,0,173.4,178.5H191.36a4.941,4.941,0,0,0,3.863-2.251l8.982-15.7a5.038,5.038,0,0,0,0-4.5" transform="translate(-29.662 0)"/><rect class="a" width="13.348" height="2.859" transform="translate(139.367 158.554)"/><rect class="a" width="10.731" height="2.86" transform="translate(141.984 163.682)"/><rect class="a" width="8.113" height="2.86" transform="translate(144.601 168.81)"/><path class="a" d="M120.817,261a81.61,81.61,0,0,1,4.31,8.518.5.5,0,0,1-.279.725l-.8.342a.481.481,0,0,1-.7-.3,82.193,82.193,0,0,0-4.09-8.418.487.487,0,0,1,.2-.744l.638-.343a.483.483,0,0,1,.718.221m-6.244.785a32.083,32.083,0,0,1-4.07,8.519.5.5,0,0,1-.738.161l-.618-.342a.468.468,0,0,1-.18-.745,32.594,32.594,0,0,0,3.711-8.216.467.467,0,0,1,.679-.342l.877.3a.479.479,0,0,1,.339.664m10.893-4.107v.04a.478.478,0,0,1-.539.544H108.966a.479.479,0,0,1-.539-.544v-.04a.479.479,0,0,1,.539-.544h6.963v-3.2a.478.478,0,0,1,.539-.544h.958a.478.478,0,0,1,.539.544v3.2h6.963a.478.478,0,0,1,.539.544" transform="translate(0 -66.292)"/><path class="a" d="M174.281,264.584h4.669v-3h-4.669Zm0-3.967h4.669v-2.859h-4.669Zm-5.925-3.886h4.569a27.2,27.2,0,0,0,2.174-2.276h-5.127a18.921,18.921,0,0,1-1.616,2.276m-.1,3.886h4.07v-2.859h-4.07Zm-.2,3.967h4.27v-3h-4.07a27.723,27.723,0,0,1-.2,3m2.754-11.719c-.08.161-.159.362-.28.6h6.025a.478.478,0,0,1,.539.544v.04a1.043,1.043,0,0,1-.219.684,23.139,23.139,0,0,1-1.9,1.994h5.406a.478.478,0,0,1,.539.544v10.552c0,2.134-.259,2.416-2.633,2.416-.24,0-1.058-.039-2.414-.08-.359-.02-.559-.2-.559-.544-.02-.343.18-.524.559-.5,1.276.04,2,.1,2.195.1.858,0,.878-.02.878-1.329v-2.316H167.9a11.491,11.491,0,0,1-1.836,4.611.469.469,0,0,1-.758.121l-.579-.483a.532.532,0,0,1-.139-.745c1.217-2.014,1.7-4.41,1.7-8.558v-1.631l-.837.684a.429.429,0,0,1-.738-.161l-.2-.4a.553.553,0,0,1,.159-.746,16.5,16.5,0,0,0,4.37-5.879.552.552,0,0,1,.678-.343l.738.141a.445.445,0,0,1,.36.685" transform="translate(-32.196 -65.507)"/><path class="a" d="M226.946,256.416c.918.423,1.636.826,2.155,1.128a9.8,9.8,0,0,0,1.316-1.309c-.358-.241-.757-.544-1.256-.886a14.488,14.488,0,0,1-2.215,1.067m4.35-2.759a12.223,12.223,0,0,1-1.117.987l1.077.745a.468.468,0,0,1,.1.765l-.24.3.02.02c.379.141.459.443.179.725a10.147,10.147,0,0,1-1.137,1.007l1.077.745a.477.477,0,0,1,.1.765l-.06.08a.5.5,0,0,1-.779.081c-.6-.443-1.057-.765-1.356-.987a14.1,14.1,0,0,1-2.055,1.007.63.63,0,0,1-.738-.142c-.26-.241-.18-.5.2-.664a15.38,15.38,0,0,0,1.556-.846c-.579-.342-1.058-.624-1.437-.805-.339-.182-.419-.443-.18-.745l.16-.2-.24-.221c-.3-.281-.24-.584.14-.745a10.165,10.165,0,0,0,1.556-.845c-.579-.343-1.058-.624-1.437-.805a.45.45,0,0,1-.18-.745.485.485,0,0,1,.678-.121,18.744,18.744,0,0,1,1.915.967,10.714,10.714,0,0,0,1.038-.967.583.583,0,0,1,.738-.181l.239.1c.379.161.459.443.18.725m-9.9.443c1.137-.121,2.474-.363,4.01-.665a.514.514,0,1,1,.2,1.007c-.9.181-1.816.322-2.694.463l.04,1.088h2.493a.478.478,0,0,1,.539.543c0,.161-.179.241-.539.241H223l.06,1.47h2.393a.479.479,0,0,1,.539.544c0,.161-.179.261-.539.261H223.1l.06,1.531h11.532l.04-1.531h-2.334a.478.478,0,0,1-.539-.543c0-.162.179-.262.539-.262h2.374l.04-1.47h-2.414a.478.478,0,0,1-.539-.544q0-.242.539-.241h2.453l.06-1.41h-2.634a.478.478,0,0,1-.538-.544c0-.261.179-.4.538-.4h4.13a.485.485,0,0,1,.539.564l-.279,6.383h.638a.478.478,0,0,1,.539.544v2.215a.478.478,0,0,1-.539.543h-.9a.478.478,0,0,1-.539-.543v-1.833H221.978v1.833a.478.478,0,0,1-.539.543h-.9a.478.478,0,0,1-.539-.543v-2.215a.478.478,0,0,1,.539-.544h.619l-.259-5.9a.506.506,0,0,1,.5-.584m13.387,9.3a.67.67,0,0,1-.359.645,32.071,32.071,0,0,1-4.768,2.4H237.4a.478.478,0,0,1,.539.544c0,.3-.179.463-.539.463h-7.162v2.053c0,1.168-.3,1.37-2.613,1.37-.8,0-1.716-.02-2.774-.081a.526.526,0,0,1-.538-.544c-.02-.342.179-.524.559-.5,1.3.04,2.135.1,2.534.1.878,0,.778.1.778-.826v-1.57h-7.741a.478.478,0,0,1-.539-.544c0-.3.179-.463.539-.463h7.741v-.383a.478.478,0,0,1,.539-.544h.559a37.271,37.271,0,0,0,3.372-1.631h-9.058a.478.478,0,0,1-.538-.543c0-.242.179-.383.538-.383h10.654c.36,0,.539.161.539.443" transform="translate(-64.093 -65.938)"/><path class="a" d="M292.244,258.713a.472.472,0,0,1-.539.523h-5.527a.479.479,0,0,1-.539-.543c0-.322.18-.483.539-.483H291.7c.359,0,.539.181.539.5m2.334-3.02v2.7a.478.478,0,0,1-.539.543h-.918a.478.478,0,0,1-.539-.543v-2.215h-7.322v2.215a.478.478,0,0,1-.539.543h-.858a.478.478,0,0,1-.539-.543v-2.7a.479.479,0,0,1,.539-.544h3.851v-1.691a.478.478,0,0,1,.539-.544h.958a.478.478,0,0,1,.539.544v1.691h4.289a.479.479,0,0,1,.539.544m-.28,6.726a.478.478,0,0,1-.538.543h-2.733v5.618c0,.926-.139.906.978.906.638,0,.738,0,.938-.544a14.132,14.132,0,0,0,.2-2.558c.02-.383.22-.564.579-.523l.778.08a.508.508,0,0,1,.5.584c-.02.6-.02.966-.08,1.57a2.675,2.675,0,0,1-.718,2.115,2.131,2.131,0,0,1-.9.282,13.537,13.537,0,0,1-1.357.06c-2.494,0-2.893-.242-2.893-1.47v-6.122h-1.157c-.04,4.209-1.337,6.162-5.427,7.733a.536.536,0,0,1-.718-.242l-.06-.121a.449.449,0,0,1,.24-.725c2.933-1.188,3.95-2.879,4.03-6.645H284.1a.478.478,0,0,1-.539-.543.472.472,0,0,1,.539-.524h9.656a.472.472,0,0,1,.538.524m-11.252-7.169c-1.058,2.719-1.536,3.685-1.915,4.652a6.23,6.23,0,0,1,1.8,4.47c0,1.692-.8,2.558-2.793,2.558a.511.511,0,0,1-.539-.483c-.06-.322.12-.524.5-.524h-.16c.859,0,1.2-.362,1.2-1.852a5.73,5.73,0,0,0-1.456-3.806.644.644,0,0,1-.1-.745,38.154,38.154,0,0,0,1.815-4.772h-2.374v15.526a.478.478,0,0,1-.539.543H277.8a.478.478,0,0,1-.539-.543V254.323a.479.479,0,0,1,.539-.544h4.848a.478.478,0,0,1,.539.544v.241a1.748,1.748,0,0,1-.14.685" transform="translate(-97.07 -66.02)"/></g></svg>