<svg xmlns="http://www.w3.org/2000/svg" width="48" height="48" viewBox="0 0 48 48"><defs><style>.a{fill:#fff;}</style></defs><path class="a" d="M26,20.048A5.952,5.952,0,1,0,31.952,26,5.952,5.952,0,0,0,26,20.048Zm23.832-5.88a15.672,15.672,0,0,0-1.008-5.424,9.6,9.6,0,0,0-5.568-5.568,15.672,15.672,0,0,0-5.424-1.008C34.736,2,33.824,2,26,2s-8.736,0-11.832.168A15.672,15.672,0,0,0,8.744,3.176,9.6,9.6,0,0,0,3.176,8.744a15.672,15.672,0,0,0-1.008,5.424C2,17.264,2,18.176,2,26s0,8.736.168,11.832A16.464,16.464,0,0,0,3.176,43.28,9.456,9.456,0,0,0,5.36,46.64a9.336,9.336,0,0,0,3.384,2.184,15.672,15.672,0,0,0,5.424,1.008C17.264,50,18.176,50,26,50s8.736,0,11.832-.168a15.672,15.672,0,0,0,5.424-1.008A9.336,9.336,0,0,0,46.64,46.64a9.456,9.456,0,0,0,2.184-3.36,15.84,15.84,0,0,0,1.008-5.448C50,34.736,50,33.824,50,26s0-8.736-.168-11.832Zm-6.1,19.2a13.752,13.752,0,0,1-.936,4.32A9.264,9.264,0,0,1,37.688,42.8a13.752,13.752,0,0,1-4.344.84H18.656a13.752,13.752,0,0,1-4.344-.84A8.934,8.934,0,0,1,9.2,37.688a13.176,13.176,0,0,1-.816-4.344c0-1.9,0-2.4,0-7.344V18.656A13.176,13.176,0,0,1,9.2,14.312a8.424,8.424,0,0,1,2.064-3.144A8.616,8.616,0,0,1,14.312,9.2a13.752,13.752,0,0,1,4.344-.84H33.344a13.752,13.752,0,0,1,4.344.84A8.934,8.934,0,0,1,42.8,14.312a13.752,13.752,0,0,1,.84,4.344c0,1.9,0,2.4,0,7.344s.168,5.448.1,7.344ZM39.9,15.512a5.712,5.712,0,0,0-3.384-3.384A9.6,9.6,0,0,0,33.2,11.6H18.8a9.6,9.6,0,0,0-3.312.624A5.712,5.712,0,0,0,12.1,15.488a10.248,10.248,0,0,0-.5,3.312V33.2a10.248,10.248,0,0,0,.624,3.312A5.712,5.712,0,0,0,15.608,39.9a10.248,10.248,0,0,0,3.192.624H33.2a9.6,9.6,0,0,0,3.312-.624A5.712,5.712,0,0,0,39.9,36.512,9.6,9.6,0,0,0,40.52,33.2V18.8a9.072,9.072,0,0,0-.624-3.312ZM26,35.168A9.144,9.144,0,0,1,16.856,26h0A9.168,9.168,0,1,1,26,35.168Zm9.6-16.536a2.16,2.16,0,0,1,0-4.3h0a2.16,2.16,0,0,1,0,4.3Z" transform="translate(-2 -2)"/></svg>