<svg xmlns="http://www.w3.org/2000/svg" width="48" height="48" viewBox="0 0 48 48"><defs><style>.a{fill:#fff;}</style></defs><path class="a" d="M30.272,19.9h0a.912.912,0,0,0-.912.912v4.008L26,20.36a.96.96,0,0,0-.792-.456h0a.912.912,0,0,0-.912.912v6.816a.912.912,0,0,0,.912.912h0a.912.912,0,0,0,.912-.912V23.6l3.336,4.584h0a.648.648,0,0,0,.36.264.768.768,0,0,0,.336,0h0A.792.792,0,0,0,30.8,28.4l.24-.168h0a.936.936,0,0,0,.264-.648V20.816a.912.912,0,0,0-1.032-.912ZM19.28,26.648H16.736V20.816a.912.912,0,0,0-.912-.912h0a.912.912,0,0,0-.912.912v6.816a.912.912,0,0,0,.912.912H19.28a.936.936,0,0,0,.936-.912h0a.936.936,0,0,0-.936-.984ZM21.944,19.9h0a.936.936,0,0,0-.936.912v6.816a.936.936,0,0,0,.936.912h0a.912.912,0,0,0,.912-.912V20.816a.912.912,0,0,0-.912-.912ZM40.184,2H11.816A9.84,9.84,0,0,0,2,11.816V40.184A9.84,9.84,0,0,0,11.816,50H40.184A9.84,9.84,0,0,0,50,40.184V11.816A9.84,9.84,0,0,0,40.184,2Zm.744,29.472a3.719,3.719,0,0,1-.312.408h0A13.2,13.2,0,0,1,38.7,33.8c-4.8,4.488-12.864,9.864-13.944,9.024s1.536-4.224-1.272-4.8a2.4,2.4,0,0,1-.6,0h0c-8.256-1.152-14.4-6.936-14.4-13.872,0-7.8,7.9-14.112,17.616-14.112s17.616,6.312,17.616,14.112a12,12,0,0,1-2.784,7.32Zm-4.1-11.544H33.2a.912.912,0,0,0-.912.912v6.816a.912.912,0,0,0,.912.912h3.552a.912.912,0,0,0,.912-.912h0a.912.912,0,0,0-.912-.912H34.28V25.3h2.544a.936.936,0,0,0,.912-.936h0a.912.912,0,0,0-.912-.912H34.28V21.992h2.544a.912.912,0,0,0,.912-.912h0a.912.912,0,0,0-.912-1.152Z" transform="translate(-2 -2)"/></svg>