<svg xmlns="http://www.w3.org/2000/svg" width="60" height="60" viewBox="0 0 60 60"><defs><style>.a{fill:#891818;}.b{fill:#fff;}</style></defs><path class="a" d="M60,46.3A13.694,13.694,0,0,1,46.3,60H13.7A13.694,13.694,0,0,1,0,46.3V13.711A13.714,13.714,0,0,1,13.711,0H46.09A13.9,13.9,0,0,1,60,13.91Z"/><g transform="translate(8.216 8.228)"><path class="b" d="M100.645,70.6H83.923A13.427,13.427,0,0,0,70.5,84.023v16.711a13.409,13.409,0,0,0,13.423,13.411h16.711a13.407,13.407,0,0,0,13.411-13.411V84.023A13.392,13.392,0,0,0,100.645,70.6Zm9.23,28.525a10.836,10.836,0,0,1-10.839,10.839H85.532A10.836,10.836,0,0,1,74.692,99.125V85.62A10.836,10.836,0,0,1,85.532,74.781H99.037A10.843,10.843,0,0,1,109.876,85.62Z" transform="translate(-70.5 -70.6)"/><path class="b" d="M174.686,159a11.553,11.553,0,1,0,11.386,11.552A11.464,11.464,0,0,0,174.686,159Zm0,18.493a6.953,6.953,0,1,1,6.852-6.952A6.9,6.9,0,0,1,174.686,177.493Z" transform="translate(-152.309 -148.698)"/><path class="b" d="M332.88,135.5a2.89,2.89,0,1,1-2.89-2.9A2.89,2.89,0,0,1,332.88,135.5Z" transform="translate(-296.931 -125.31)"/></g></svg>