<svg xmlns="http://www.w3.org/2000/svg" width="60" height="60" viewBox="0 0 60 60"><defs><style>.a{fill:#891818;}.b{fill:#fff;fill-rule:evenodd;}</style></defs><path class="a" d="M60,46.535A13.466,13.466,0,0,1,46.535,60H13.465A13.473,13.473,0,0,1,0,46.535V13.465A13.473,13.473,0,0,1,13.465,0h33.07A13.473,13.473,0,0,1,60,13.465Z"/><path class="b" d="M116.107,178.2a3.933,3.933,0,0,1-2.589-2.494c-1.118-3.053-1.448-15.826.706-18.343a4.251,4.251,0,0,1,2.825-1.492c5.814-.618,23.81-.536,25.882.21a4.05,4.05,0,0,1,2.542,2.424c1.224,3.158,1.271,14.649-.165,17.691a3.871,3.871,0,0,1-1.824,1.818C141.318,179.147,118.968,179.136,116.107,178.2Zm9.251-5.99,10.487-5.384-10.487-5.419Z" transform="translate(-99.513 -137.179)"/></svg>