<svg xmlns="http://www.w3.org/2000/svg" viewBox="0 0 32 32"><defs><style>.a{fill:#3f5d45;}</style></defs><path class="a" d="M25.067,32H6.934A6.919,6.919,0,0,1,0,25.067V6.934A6.92,6.92,0,0,1,6.934,0H25.067A6.919,6.919,0,0,1,32,6.934V25.067A6.919,6.919,0,0,1,25.067,32ZM16,5.6a10.4,10.4,0,1,0,0,20.8,10.191,10.191,0,0,0,3.227-.507l.613-.213a.429.429,0,0,0,.267-.534l-.587-1.84a.426.426,0,0,0-.394-.29.444.444,0,0,0-.139.023l-.614.214A7.273,7.273,0,0,1,16,23.627,7.627,7.627,0,1,1,23.627,16a8.023,8.023,0,0,1-.48,2.667c-.238.662-.777,1.2-1.2,1.2A1.068,1.068,0,0,1,20.88,18.8V11.467a.422.422,0,0,0-.426-.427h-1.92a.454.454,0,0,0-.426.4V11.6l-.134-.08a5.064,5.064,0,1,0-2.4,9.521,5,5,0,0,0,2.72-.8l.106-.053.054.106a3.861,3.861,0,0,0,1.41,1.69,3.815,3.815,0,0,0,2.11.63,4.252,4.252,0,0,0,3.813-3.066A11,11,0,0,0,26.4,16,10.412,10.412,0,0,0,16,5.6Zm-.426,12.907A2.507,2.507,0,1,1,18.08,16,2.51,2.51,0,0,1,15.574,18.507Z"/></svg>