<svg xmlns="http://www.w3.org/2000/svg" viewBox="0 0 40 40"><defs><style>.a{fill:#eaf0ed;}</style></defs><path class="a" d="M-7738.784-516.571a19.893,19.893,0,0,1-6.357-4.287,19.9,19.9,0,0,1-4.288-6.357A19.878,19.878,0,0,1-7751-535a19.886,19.886,0,0,1,1.572-7.785,19.92,19.92,0,0,1,4.288-6.357,19.92,19.92,0,0,1,6.357-4.285A19.874,19.874,0,0,1-7731-555a19.884,19.884,0,0,1,7.785,1.572,19.968,19.968,0,0,1,6.357,4.285,19.937,19.937,0,0,1,4.285,6.357A19.877,19.877,0,0,1-7711-535a19.87,19.87,0,0,1-1.572,7.785,19.915,19.915,0,0,1-4.285,6.357,19.942,19.942,0,0,1-6.357,4.287A19.884,19.884,0,0,1-7731-515,19.874,19.874,0,0,1-7738.784-516.571Zm.194-36.4a19.428,19.428,0,0,0-6.2,4.178,19.48,19.48,0,0,0-4.179,6.2A19.377,19.377,0,0,0-7750.5-535a19.37,19.37,0,0,0,1.533,7.59,19.466,19.466,0,0,0,4.179,6.2,19.459,19.459,0,0,0,6.2,4.178A19.359,19.359,0,0,0-7731-515.5a19.373,19.373,0,0,0,7.59-1.533,19.475,19.475,0,0,0,6.2-4.178,19.433,19.433,0,0,0,4.178-6.2A19.361,19.361,0,0,0-7711.5-535a19.368,19.368,0,0,0-1.533-7.59,19.446,19.446,0,0,0-4.178-6.2,19.444,19.444,0,0,0-6.2-4.178A19.373,19.373,0,0,0-7731-554.5,19.359,19.359,0,0,0-7738.59-552.967Zm.583,34.553a17.946,17.946,0,0,1-5.721-3.859,17.909,17.909,0,0,1-3.857-5.721A17.871,17.871,0,0,1-7749-535a17.878,17.878,0,0,1,1.416-7.007,17.951,17.951,0,0,1,3.857-5.721,17.908,17.908,0,0,1,5.721-3.857A17.9,17.9,0,0,1-7731-553a17.893,17.893,0,0,1,7,1.414,17.946,17.946,0,0,1,5.723,3.857,17.959,17.959,0,0,1,3.857,5.721A17.911,17.911,0,0,1-7713-535a17.9,17.9,0,0,1-1.414,7.007,17.917,17.917,0,0,1-3.857,5.721,17.983,17.983,0,0,1-5.723,3.859,17.893,17.893,0,0,1-7,1.414A17.9,17.9,0,0,1-7738.006-518.414Zm-1.048-6.256a10.015,10.015,0,0,0,3.941.766,10.126,10.126,0,0,0,6.544-2.042,5.907,5.907,0,0,0,2.342-4.527,5.857,5.857,0,0,0-2.4-4.721l-2.611-2.346c-1.126-1.015-2.227-2.161-2.227-4.019,0-2.122,1.844-3.607,4.486-3.607a5.375,5.375,0,0,1,2.972.908,3.468,3.468,0,0,1,1.544,2.933,5.681,5.681,0,0,1-.243,1.65l-.021.08h.352l2.023-5.6-.44-.088a1.049,1.049,0,0,1-1.056.763,5.428,5.428,0,0,1-1.724-.4,9.849,9.849,0,0,0-3.408-.656,9.036,9.036,0,0,0-5.371,1.646,5.054,5.054,0,0,0-2.223,4.044c0,2.249,1.159,3.76,2.9,5.338l2.082,1.9a4.652,4.652,0,0,1,1.761,3.638,4.394,4.394,0,0,1-1.426,3.391,5.912,5.912,0,0,1-4,1.3,6.062,6.062,0,0,1-3.321-1.023,3.623,3.623,0,0,1-1.694-3.025,4.95,4.95,0,0,1,.375-1.714l.006-.016h-.381l-2.082,5.836.411.088a1.159,1.159,0,0,1,1.115-.938A4.956,4.956,0,0,1-7739.055-524.669Zm16.638-10.534v0a3.72,3.72,0,0,1-.745,1.181l-.107.136c-.045.062-.093.126-.144.189a1.964,1.964,0,0,0-.541,1.132.79.79,0,0,0,.854.786.89.89,0,0,0,.918-.92,5.793,5.793,0,0,0-.087-.739l-.029-.2a4.134,4.134,0,0,1-.058-1.5l.007-.052a5.585,5.585,0,0,1,.788,1.552c.243.669.42,1.154,1.117,1.154a.906.906,0,0,0,.869-.936c0-.381-.258-.673-.768-.87a9.193,9.193,0,0,1-1.955-.951,4.816,4.816,0,0,1,.552-.031,9.154,9.154,0,0,1,1.2.1l.192.029a4.071,4.071,0,0,0,.542.054.846.846,0,0,0,.936-.87.919.919,0,0,0-.868-.918,2.174,2.174,0,0,0-1.237.718,3.787,3.787,0,0,1-1.336.852,4.116,4.116,0,0,1,.836-1.319c.045-.062.093-.124.142-.187a1.96,1.96,0,0,0,.543-1.134.788.788,0,0,0-.852-.784.89.89,0,0,0-.92.918,5.515,5.515,0,0,0,.09.739l.027.2a4.344,4.344,0,0,1,.068,1.554,5.638,5.638,0,0,1-.792-1.547c-.251-.673-.432-1.161-1.13-1.161a.905.905,0,0,0-.868.938c0,.381.257.673.769.868a8.789,8.789,0,0,1,1.953.953,4.837,4.837,0,0,1-.556.029,9.058,9.058,0,0,1-1.2-.1c-.066-.008-.132-.018-.2-.027a3.579,3.579,0,0,0-.537-.056.848.848,0,0,0-.936.87.919.919,0,0,0,.87.918,2.175,2.175,0,0,0,1.235-.718,3.924,3.924,0,0,1,1.35-.852Z" transform="translate(7751 555)"/></svg>