<svg xmlns="http://www.w3.org/2000/svg" viewBox="0 0 114.145 17.736"><defs><style>.a{fill:#3f5d45;}</style></defs><path class="a" d="M-1.152.048-.816.12A.952.952,0,0,1,.1-.648c1.248,0,2.04.984,4.68.984,4.584,0,7.272-2.664,7.272-5.376A4.813,4.813,0,0,0,10.08-8.9l-2.136-1.92A4.339,4.339,0,0,1,6.12-14.112c0-1.776,1.56-2.952,3.672-2.952,1.56,0,3.7.936,3.7,3.144a4.807,4.807,0,0,1-.216,1.416h.288l1.656-4.584-.36-.072a.859.859,0,0,1-.864.624c-1.08,0-2.112-.864-4.2-.864-3.432,0-6.216,2.04-6.216,4.656,0,1.752.864,3,2.376,4.368l1.7,1.56A3.832,3.832,0,0,1,9.1-3.84C9.1-1.56,7.464,0,4.656,0,2.88,0,.552-1.128.552-3.312A4.051,4.051,0,0,1,.864-4.728H.552ZM24.216.312A6.929,6.929,0,0,1,25.272-.96c.48-.48.888-.84,1.632-1.464l1.2-.984c1.632-1.32,3.552-3.144,3.552-5.328,0-.912-.384-1.872-1.464-1.872a1.241,1.241,0,0,0-1.344,1.2c0,.96.552,1.344.552,2.328,0,1.488-.7,2.784-3.024,4.68a3.755,3.755,0,0,0-.456-1.368,10.479,10.479,0,0,1-1.2-3.744,3.715,3.715,0,0,1,1.416-3l-.216-.264-.48.384-.624.528a1.282,1.282,0,0,0-1.224-.744,1.241,1.241,0,0,0-1.344,1.2c0,.96.552,1.344.552,2.328,0,1.488-.84,2.784-3.168,4.68a3.755,3.755,0,0,0-.456-1.368,10.479,10.479,0,0,1-1.2-3.744,3.715,3.715,0,0,1,1.416-3l-.216-.264-.48.384c-1.68,1.344-2.928,2.832-2.928,4.512a5.868,5.868,0,0,0,.648,2.232L17.04-2.3A3.17,3.17,0,0,1,17.472-.96a2.173,2.173,0,0,1-.288,1.1l.288.168A6.929,6.929,0,0,1,18.528-.96c.48-.48.888-.84,1.632-1.464l1.2-.984c.456-.36.936-.744,1.392-1.176.12.312.264.624.408.936L23.784-2.3A3.17,3.17,0,0,1,24.216-.96a2.173,2.173,0,0,1-.288,1.1Zm16.3-2.928c-.456.648-1.7,2.5-3.84,2.5-1.1,0-1.848-.552-1.848-2.112A11.47,11.47,0,0,1,35.5-5.664a7.61,7.61,0,0,0,1.008.048c1.272,0,5.736-.432,5.736-3.024,0-1.3-1.368-1.968-3.072-1.968-3.6,0-6.816,4.32-6.816,7.2A3.639,3.639,0,0,0,36.288.312,5.43,5.43,0,0,0,40.8-2.424Zm-.528-6.6a3.371,3.371,0,0,1-3.648,3.264A6.013,6.013,0,0,1,35.616-6c.528-1.656,1.8-4.272,3.456-4.272C39.624-10.272,39.984-9.912,39.984-9.216Zm10.92,6.6c-.456.648-1.7,2.5-3.84,2.5-1.1,0-1.848-.552-1.848-2.112a11.47,11.47,0,0,1,.672-3.432,7.61,7.61,0,0,0,1.008.048c1.272,0,5.736-.432,5.736-3.024,0-1.3-1.368-1.968-3.072-1.968-3.6,0-6.816,4.32-6.816,7.2A3.639,3.639,0,0,0,46.68.312a5.43,5.43,0,0,0,4.512-2.736Zm-.528-6.6a3.371,3.371,0,0,1-3.648,3.264A6.013,6.013,0,0,1,46.008-6c.528-1.656,1.8-4.272,3.456-4.272C50.016-10.272,50.376-9.912,50.376-9.216ZM53.808-2.9A4.051,4.051,0,0,0,53.5-1.488c0,1.176.816,1.8,2.112,1.8a3.527,3.527,0,0,0,3.408-2.376l-.264-.12c-.288.672-1.128,1.944-2.16,1.944a.707.707,0,0,1-.744-.744A4.436,4.436,0,0,1,56.16-2.4L58.9-9.96h2.5l.072-.336H58.992l.864-2.352H57.384L56.5-10.3H54.432l-.1.336H56.4ZM72.96-10.3h-2.5l-.456,1.248h-.024a1.583,1.583,0,0,0-1.608-1.56c-2.856,0-7.272,3.888-7.272,7.8,0,2.04,1.128,3.12,2.64,3.12C65.5.312,66.888-1.416,67.68-2.5h.048a4.842,4.842,0,0,0-.216,1.248c0,.96.72,1.56,1.848,1.56a3.562,3.562,0,0,0,3.408-2.448l-.264-.12c-.168.384-.96,2.016-2.136,2.016-.36,0-.528-.24-.528-.624a7.07,7.07,0,0,1,.5-2.16ZM68.04-3.72c-.336.984-2.424,3.528-3.7,3.528-.576,0-.768-.384-.768-1.32,0-2.712,2.472-8.64,4.848-8.64A1.268,1.268,0,0,1,69.7-8.712a5.626,5.626,0,0,1-.432,1.68Zm11.832-6.552c.552,0,.84.312.84.7s-.408.6-.408,1.152a.907.907,0,0,0,.984.936A1.149,1.149,0,0,0,82.512-8.76c0-1.128-1.2-1.848-2.616-1.848-2.064,0-4.08,1.512-4.08,3.216a3.79,3.79,0,0,0,.96,2.3l1.152,1.512A2.542,2.542,0,0,1,78.5-1.848,2,2,0,0,1,76.392-.024,1.032,1.032,0,0,1,75.216-1.08c0-.48.288-.984.288-1.464a.725.725,0,0,0-.768-.744,1.305,1.305,0,0,0-1.344,1.416c0,1.392,1.416,2.184,2.952,2.184,1.8,0,4.464-1.128,4.464-3.288a3.084,3.084,0,0,0-.648-1.776L78.744-6.6a3.046,3.046,0,0,1-.792-2.016A1.778,1.778,0,0,1,79.872-10.272ZM83.736-2.9a4.051,4.051,0,0,0-.312,1.416c0,1.176.816,1.8,2.112,1.8a3.527,3.527,0,0,0,3.408-2.376l-.264-.12c-.288.672-1.128,1.944-2.16,1.944a.707.707,0,0,1-.744-.744A4.436,4.436,0,0,1,86.088-2.4l2.736-7.56h2.5l.072-.336H88.92l.864-2.352H87.312L86.424-10.3H84.36l-.1.336h2.064Zm15.432.288c-.456.648-1.7,2.5-3.84,2.5-1.1,0-1.848-.552-1.848-2.112a11.47,11.47,0,0,1,.672-3.432,7.61,7.61,0,0,0,1.008.048c1.272,0,5.736-.432,5.736-3.024,0-1.3-1.368-1.968-3.072-1.968-3.6,0-6.816,4.32-6.816,7.2A3.639,3.639,0,0,0,94.944.312a5.43,5.43,0,0,0,4.512-2.736Zm-.528-6.6a3.371,3.371,0,0,1-3.648,3.264A6.013,6.013,0,0,1,94.272-6c.528-1.656,1.8-4.272,3.456-4.272C98.28-10.272,98.64-9.912,98.64-9.216Zm9.408-3.216a5.881,5.881,0,0,1,1.2-1.9,3.46,3.46,0,0,0,.984-1.9,1.134,1.134,0,0,0-1.224-1.128,1.273,1.273,0,0,0-1.32,1.32,11.5,11.5,0,0,0,.168,1.344,6.142,6.142,0,0,1,.1,2.232c-1.488-1.944-1.08-3.888-2.76-3.888A1.308,1.308,0,0,0,103.944-15c0,.48.288.936,1.1,1.248a13.033,13.033,0,0,1,2.808,1.368,9.982,9.982,0,0,1-2.52-.1,8.375,8.375,0,0,0-1.056-.12,1.212,1.212,0,0,0-1.344,1.248,1.319,1.319,0,0,0,1.248,1.32,3.139,3.139,0,0,0,1.776-1.032,5.5,5.5,0,0,1,1.944-1.224,6.1,6.1,0,0,1-1.224,1.9,3.46,3.46,0,0,0-.984,1.9,1.134,1.134,0,0,0,1.224,1.128,1.273,1.273,0,0,0,1.32-1.32,11.5,11.5,0,0,0-.168-1.344A5.961,5.961,0,0,1,108-12.264c1.488,1.944,1.056,3.888,2.736,3.888a1.308,1.308,0,0,0,1.248-1.344c0-.48-.288-.936-1.1-1.248a13.033,13.033,0,0,1-2.808-1.368,9.982,9.982,0,0,1,2.52.1,8.375,8.375,0,0,0,1.056.12,1.212,1.212,0,0,0,1.344-1.248,1.319,1.319,0,0,0-1.248-1.32,3.139,3.139,0,0,0-1.776,1.032A5.419,5.419,0,0,1,108.048-12.432Z" transform="translate(1.152 17.4)"/></svg>