<svg xmlns="http://www.w3.org/2000/svg" width="50" height="50" viewBox="0 0 50 50"><defs><style>.a{stroke:#000;stroke-width:2px;}</style></defs><g transform="translate(1 1)"><path class="a" d="M25,38A13,13,0,1,0,12,25,13.015,13.015,0,0,0,25,38Zm0-24A11,11,0,1,1,14,25,11.013,11.013,0,0,1,25,14Z" transform="translate(-1 -1)"/><rect class="a" width="2" height="7" transform="translate(23)"/><rect class="a" width="2" height="7" transform="translate(23 41)"/><rect class="a" width="7" height="2" transform="translate(41 23)"/><rect class="a" width="7" height="2" transform="translate(0 23)"/><rect class="a" width="7" height="2" transform="translate(35.315 11.274) rotate(-45)"/><rect class="a" width="7" height="2" transform="translate(6.321 40.265) rotate(-45)"/><rect class="a" width="2" height="7" transform="translate(35.313 36.727) rotate(-45)"/><rect class="a" width="2" height="7" transform="translate(6.322 7.736) rotate(-45)"/></g></svg>