<svg xmlns="http://www.w3.org/2000/svg" xmlns:xlink="http://www.w3.org/1999/xlink" width="96" height="24" viewBox="0 0 96 24"><defs><style>.a{fill:none;}.b{clip-path:url(#a);}.c{fill:#6c51e2;}</style><clipPath id="a"><rect class="a" width="96" height="24" transform="translate(79 198)"/></clipPath></defs><g class="b" transform="translate(-79 -198)"><path class="c" d="M4.9-5.592q.264.024.528.024H8.592q.264,0,.528-.024L7.056-11.184ZM3.12,0q-.408-.1-.8-.156a5.524,5.524,0,0,0-.828-.06,5.359,5.359,0,0,0-.8.06A5.869,5.869,0,0,0-.048,0L1.368-3.192q.336-.72.744-1.668t.852-2.028q.444-1.08.924-2.256l.96-2.352q.264-.672.6-1.548T6.1-14.772q.312-.852.576-1.536t.384-.972q.408.1.84.156a6.105,6.105,0,0,0,.84.06,6.273,6.273,0,0,0,.864-.06q.432-.06.84-.156.264.864.672,2.028t.876,2.448q.468,1.284.96,2.568t.924,2.388q.5,1.272.9,2.256t.756,1.86q.36.876.756,1.764T17.184,0a9.736,9.736,0,0,0-1.56-.18Q14.76-.216,14.04-.216q-.768,0-1.548.06T10.944,0q-.24-.912-.492-1.752t-.564-1.68q-.792,0-1.584-.012T6.72-3.456q-.624,0-1.26.012T4.2-3.432a16.414,16.414,0,0,0-.576,1.7Q3.384-.864,3.12,0Zm21.6-2.424q.24,0,.96-.012t1.6-.048q.876-.036,1.764-.084A13.678,13.678,0,0,0,30.5-2.712q-.048.264-.084.612a7.637,7.637,0,0,0-.036.78,5.973,5.973,0,0,0,.036.66q.036.324.084.66-1.512-.12-2.7-.168T25.44-.216q-1.3,0-2.976.048T18.984,0a16.022,16.022,0,0,0,.288-2.232q.072-1.176.072-2.208V-5.688q0-1.152-.012-2.1t-.024-1.788q-.012-.84-.036-1.62t-.048-1.62q-.048-1.1-.072-2.268a19.851,19.851,0,0,0-.144-2.1,21.7,21.7,0,0,0,3.072.216q.744,0,1.428-.048t1.4-.168q-.072.624-.108,1.668t-.072,2.22q-.036,1.176-.048,2.328t-.012,1.992v1.1q0,.336.012,1.116T24.7-5.112q0,.864.012,1.632T24.72-2.424Zm15.744.672a3.1,3.1,0,0,0,1.488-.336,3.4,3.4,0,0,0,1.056-.876,4.452,4.452,0,0,0,.7-1.26A9.376,9.376,0,0,0,44.112-5.7,12.207,12.207,0,0,0,44.3-7.224q.048-.768.048-1.416a20.174,20.174,0,0,0-.132-2.22,8.127,8.127,0,0,0-.552-2.208,4.3,4.3,0,0,0-1.224-1.692,3.242,3.242,0,0,0-2.148-.672,3.146,3.146,0,0,0-2.052.636,4.3,4.3,0,0,0-1.212,1.6,7.324,7.324,0,0,0-.576,2.1,17.014,17.014,0,0,0-.144,2.124q0,.744.036,1.572a12.269,12.269,0,0,0,.18,1.632,9.057,9.057,0,0,0,.408,1.524,4.323,4.323,0,0,0,.732,1.284,3.326,3.326,0,0,0,1.152.888A3.814,3.814,0,0,0,40.464-1.752ZM40.272-17.4a12.856,12.856,0,0,1,3.864.564,9.12,9.12,0,0,1,3.132,1.668,7.735,7.735,0,0,1,2.088,2.724,8.794,8.794,0,0,1,.756,3.756,9.306,9.306,0,0,1-.768,3.924,7.75,7.75,0,0,1-2.1,2.772,8.5,8.5,0,0,1-3.156,1.62,14.316,14.316,0,0,1-3.912.516,12.067,12.067,0,0,1-3.72-.564A8.947,8.947,0,0,1,33.384-2.1a7.859,7.859,0,0,1-2.076-2.76,8.836,8.836,0,0,1-.756-3.732,9.143,9.143,0,0,1,.744-3.8,7.8,7.8,0,0,1,2.052-2.76,8.787,8.787,0,0,1,3.084-1.68A12.622,12.622,0,0,1,40.272-17.4Zm12.7,9.48q0-.312-.012-1.068t-.012-1.6q0-.864-.012-1.608t-.012-1.032q0-.816-.048-1.8t-.168-2.16q.648.072,1.452.144t1.5.072q.672,0,1.5-.06t1.452-.156q-.072.84-.12,1.752T58.4-13.62q-.036.9-.048,1.728t-.012,1.524q.552.024,1.224.036t1.392.012q.624,0,1.32-.024t1.368-.024q0-.72-.012-1.572t-.048-1.74q-.036-.888-.084-1.788t-.12-1.716q.648.072,1.464.144t1.488.072q.672,0,1.5-.06t1.452-.156q-.144,1.512-.2,3.12t-.06,3.744q0,1.608.024,2.94t.06,2.544q.036,1.212.072,2.376T69.264,0A22.553,22.553,0,0,0,66.12-.216q-.7,0-1.38.06T63.36,0q.1-.792.156-1.908T63.6-4.164q.024-1.14.036-2.16t.012-1.644q-.648,0-1.32-.024t-1.344-.024q-.624,0-1.32.012t-1.32.036q0,.648.012,1.668t.036,2.16Q58.416-3,58.464-1.9t.12,1.9Q57.84-.12,57.1-.168T55.584-.216q-.912,0-1.584.06T52.7,0l.1-1.2q.048-.528.084-1.332t.048-1.728q.012-.924.024-1.884T52.968-7.92Zm22.92,2.328q.264.024.528.024h3.168q.264,0,.528-.024l-2.064-5.592ZM74.112,0q-.408-.1-.8-.156a5.524,5.524,0,0,0-.828-.06,5.36,5.36,0,0,0-.8.06A5.869,5.869,0,0,0,70.944,0L72.36-3.192q.336-.72.744-1.668t.852-2.028q.444-1.08.924-2.256l.96-2.352q.264-.672.6-1.548t.648-1.728q.312-.852.576-1.536t.384-.972q.408.1.84.156a6.105,6.105,0,0,0,.84.06,6.273,6.273,0,0,0,.864-.06q.432-.06.84-.156.264.864.672,2.028T82.98-12.8q.468,1.284.96,2.568t.924,2.388q.5,1.272.9,2.256t.756,1.86q.36.876.756,1.764T88.176,0a9.736,9.736,0,0,0-1.56-.18q-.864-.036-1.584-.036-.768,0-1.548.06T81.936,0q-.24-.912-.492-1.752t-.564-1.68q-.792,0-1.584-.012t-1.584-.012q-.624,0-1.26.012t-1.26.012a16.413,16.413,0,0,0-.576,1.7Q74.376-.864,74.112,0Z" transform="translate(82.824 219)"/></g></svg>