<svg xmlns="http://www.w3.org/2000/svg" width="40" height="40" viewBox="0 0 40 40"><defs><style>.a{fill:none;}.b{fill:#fbbc05;}.b,.c,.d,.e{fill-rule:evenodd;}.c{fill:#ea4335;}.d{fill:#34a853;}.e{fill:#4285f4;}</style></defs><g transform="translate(8 8)"><rect class="a" width="24" height="24"/><path class="b" d="M6.283,40.965a7.1,7.1,0,0,1,.361-2.228L2.6,35.648a12.085,12.085,0,0,0,0,10.63L6.64,43.183a7.1,7.1,0,0,1-.357-2.218" transform="translate(-1.11 -28.963)"/><path class="c" d="M18.725,4.91A6.955,6.955,0,0,1,23.15,6.492L26.647,3A12.012,12.012,0,0,0,7.938,6.685l4.045,3.089A7.083,7.083,0,0,1,18.725,4.91" transform="translate(-6.449)"/><path class="d" d="M18.725,80.745a7.083,7.083,0,0,1-6.742-4.864L7.938,78.969a11.983,11.983,0,0,0,10.787,6.686,11.454,11.454,0,0,0,7.831-2.991L22.717,79.7a7.435,7.435,0,0,1-3.992,1.05" transform="translate(-6.449 -61.65)"/><path class="e" d="M76.93,54.546a9.942,9.942,0,0,0-.273-2.182h-11.2V57H71.9a5.405,5.405,0,0,1-2.455,3.588l3.84,2.968a11.937,11.937,0,0,0,3.642-9.011" transform="translate(-53.181 -42.544)"/></g><rect class="a" width="40" height="40"/></svg>