<svg id="圖層_1" data-name="圖層 1" xmlns="http://www.w3.org/2000/svg" viewBox="0 0 122 55"><defs><style>.cls-1{fill:none;}.cls-2{isolation:isolate;}.cls-3{fill:#f8b52e;}</style></defs><g id="Group_537" data-name="Group 537"><rect id="Rectangle_1191" data-name="Rectangle 1191" class="cls-1" width="121" height="55"/><g class="cls-2"><path class="cls-3" d="M8.64,37.86a10.21,10.21,0,0,1-1.24.21,13.67,13.67,0,0,1-1.68.11,7,7,0,0,1-1.45-.13A2.53,2.53,0,0,1,3.2,37.6a1.9,1.9,0,0,1-.64-.9,4.19,4.19,0,0,1-.22-1.51V18.24a1.59,1.59,0,0,1,.41-1.17,3,3,0,0,1,1.14-.67,13.06,13.06,0,0,1,2.79-.63,25.37,25.37,0,0,1,3.15-.2q5,0,7.59,2.13a7,7,0,0,1,2.63,5.76,8.49,8.49,0,0,1-.56,3.18,6.56,6.56,0,0,1-1.65,2.45,7.48,7.48,0,0,1-2.77,1.58,12,12,0,0,1-3.87.56H8.64ZM10.51,26.3a3.42,3.42,0,0,0,2.32-.7,2.68,2.68,0,0,0,.81-2.14,2.65,2.65,0,0,0-.84-2.11,3.68,3.68,0,0,0-2.47-.74l-.95,0a5.49,5.49,0,0,0-.78.09V26.3Z"/><path class="cls-3" d="M23.26,19.53a3.11,3.11,0,0,1,3.34-3.35H38.48a4.35,4.35,0,0,1,.45,1.05,4.41,4.41,0,0,1,.2,1.37,2.65,2.65,0,0,1-.59,1.94,2.19,2.19,0,0,1-1.57.58H29.38v3.34h8.1a5.35,5.35,0,0,1,.45,1,4.54,4.54,0,0,1,.19,1.35,2.69,2.69,0,0,1-.57,1.94,2.08,2.08,0,0,1-1.55.58H29.38v3.78h9.25a4.09,4.09,0,0,1,.45,1,4.78,4.78,0,0,1,.2,1.37,2.67,2.67,0,0,1-.6,2,2.09,2.09,0,0,1-1.56.6H26.6a3.11,3.11,0,0,1-3.34-3.35Z"/><path class="cls-3" d="M42,21.22a4.28,4.28,0,0,1-.47-1.08,4.52,4.52,0,0,1-.22-1.44,2.72,2.72,0,0,1,.63-2,2.25,2.25,0,0,1,1.64-.61h15.7a4.7,4.7,0,0,1,.46,1.08,4.52,4.52,0,0,1,.22,1.44,2.72,2.72,0,0,1-.63,2,2.25,2.25,0,0,1-1.64.61h-4V37.86a10.45,10.45,0,0,1-1.25.21,13.51,13.51,0,0,1-1.67.11,7.07,7.07,0,0,1-1.46-.13,2.49,2.49,0,0,1-1.06-.45,1.91,1.91,0,0,1-.65-.9,4.45,4.45,0,0,1-.21-1.51v-14Z"/><path class="cls-3" d="M69.3,37.86a10.21,10.21,0,0,1-1.24.21,13.67,13.67,0,0,1-1.68.11,6.9,6.9,0,0,1-1.45-.13,2.48,2.48,0,0,1-1.07-.45,2,2,0,0,1-.65-.9A4.45,4.45,0,0,1,63,35.19V18.24a1.59,1.59,0,0,1,.41-1.17,3,3,0,0,1,1.14-.67,13.06,13.06,0,0,1,2.79-.63,25.37,25.37,0,0,1,3.15-.2q5,0,7.59,2.13a7,7,0,0,1,2.63,5.76,8.49,8.49,0,0,1-.56,3.18,6.56,6.56,0,0,1-1.65,2.45,7.53,7.53,0,0,1-2.78,1.58,11.94,11.94,0,0,1-3.86.56H69.3ZM71.17,26.3a3.42,3.42,0,0,0,2.32-.7,2.68,2.68,0,0,0,.81-2.14,2.65,2.65,0,0,0-.84-2.11A3.68,3.68,0,0,0,71,20.61l-.95,0a5.49,5.49,0,0,0-.78.09V26.3Z"/><path class="cls-3" d="M83.92,19.53a3.11,3.11,0,0,1,3.34-3.35H99.14a4.35,4.35,0,0,1,.45,1.05,4.73,4.73,0,0,1,.2,1.37,2.65,2.65,0,0,1-.59,1.94,2.19,2.19,0,0,1-1.57.58H90v3.34h8.09a4.34,4.34,0,0,1,.45,1,4.24,4.24,0,0,1,.2,1.35,2.69,2.69,0,0,1-.57,1.94,2.08,2.08,0,0,1-1.55.58H90v3.78h9.25a4.09,4.09,0,0,1,.45,1,4.78,4.78,0,0,1,.2,1.37,2.67,2.67,0,0,1-.6,2,2.09,2.09,0,0,1-1.56.6H87.26a3.11,3.11,0,0,1-3.34-3.35Z"/><path class="cls-3" d="M102.63,21.22a4.7,4.7,0,0,1-.46-1.08A4.52,4.52,0,0,1,102,18.7a2.72,2.72,0,0,1,.63-2,2.25,2.25,0,0,1,1.64-.61h15.69a4.28,4.28,0,0,1,.47,1.08,4.52,4.52,0,0,1,.22,1.44,2.72,2.72,0,0,1-.63,2,2.25,2.25,0,0,1-1.64.61h-4V37.86a9.86,9.86,0,0,1-1.24.21,13.51,13.51,0,0,1-1.67.11,7.07,7.07,0,0,1-1.46-.13,2.49,2.49,0,0,1-1.06-.45,1.85,1.85,0,0,1-.65-.9,4.45,4.45,0,0,1-.21-1.51v-14Z"/></g></g></svg>