<svg xmlns="http://www.w3.org/2000/svg" width="100" height="69.987" viewBox="0 0 100 69.987"><defs><style>.a{fill:#650300;}</style></defs><path class="a" d="M35.491,98.938A21.483,21.483,0,1,1,56.975,77.454,21.508,21.508,0,0,1,35.491,98.938Zm0-38.967A17.483,17.483,0,1,0,52.975,77.453,17.5,17.5,0,0,0,35.491,59.971Z" transform="translate(-14.008 -28.951)"/><path class="a" d="M92.346,98.938A21.483,21.483,0,1,1,113.83,77.454,21.508,21.508,0,0,1,92.346,98.938Zm0-38.967A17.483,17.483,0,1,0,109.83,77.453,17.5,17.5,0,0,0,92.346,59.971Z" transform="translate(-13.83 -28.951)"/><g transform="translate(1.967)"><path class="a" d="M17.976,70.566a2,2,0,0,1-1.894-2.644l10.964-32.2c1.24-4.928,7.281-7.728,13.519-6.25a2,2,0,1,1-.922,3.892c-4.068-.964-8.066.584-8.729,3.379l-.053.184L19.869,69.211A2,2,0,0,1,17.976,70.566Z" transform="translate(-15.975 -29.076)"/><path class="a" d="M109.714,70.566a2,2,0,0,1-1.894-1.355L96.773,36.748a4.552,4.552,0,0,0-2.812-3,9.473,9.473,0,0,0-5.917-.382,2,2,0,0,1-.922-3.892,13.482,13.482,0,0,1,8.439.609,8.458,8.458,0,0,1,5.079,5.642l10.966,32.195a2,2,0,0,1-1.892,2.643Z" transform="translate(-15.797 -29.076)"/></g><path class="a" d="M72.86,79.454a1.979,1.979,0,0,1-.906-.219,20.242,20.242,0,0,0-8.243-1.651,17.2,17.2,0,0,0-7.738,1.6,2,2,0,1,1-1.994-3.467,20.792,20.792,0,0,1,9.732-2.136,23.826,23.826,0,0,1,10.06,2.088,2,2,0,0,1-.911,3.781Z" transform="translate(-13.919 -28.989)"/></svg>