<svg xmlns="http://www.w3.org/2000/svg" width="34" height="34" viewBox="0 0 34 34"><defs><style>.a{fill:#fff;stroke:#fff;stroke-width:2px;}</style></defs><g transform="translate(-0.5 -0.5)"><path class="a" d="M20.273,29.273a9.356,9.356,0,0,0,9-9c0-4.71-4.29-8-9-8a7.655,7.655,0,0,0-8,8C12.273,24.982,15.563,29.273,20.273,29.273Zm0-16a6.853,6.853,0,0,1,7,7,6.853,6.853,0,0,1-7,7,6.853,6.853,0,0,1-7-7A6.853,6.853,0,0,1,20.273,13.273Z" transform="translate(-3.773 -3.773)"/><rect class="a" width="1" height="5" transform="translate(16.5 1.5)"/><rect class="a" width="1" height="5" transform="translate(16.5 28.5)"/><rect class="a" width="5" height="1" transform="translate(28.5 16.5)"/><rect class="a" width="5" height="1" transform="translate(1.5 16.5)"/><rect class="a" width="4.599" height="1.314" transform="translate(24.203 8.408) rotate(-45)"/><rect class="a" width="4.599" height="1.314" transform="translate(5.153 27.455) rotate(-45)"/><rect class="a" width="1.314" height="4.599" transform="translate(24.202 25.131) rotate(-45)"/><rect class="a" width="1.314" height="4.599" transform="translate(5.154 6.083) rotate(-45)"/></g></svg>