<svg xmlns="http://www.w3.org/2000/svg" width="100" height="100" viewBox="0 0 100 100"><defs><style>.a{fill:#650300;}</style></defs><path class="a" d="M63.876,113.878h0a50,50,0,1,1,50-50A50.059,50.059,0,0,1,63.872,113.878ZM63.87,17.867a46.011,46.011,0,1,0,0,92.022h0a46.011,46.011,0,0,0-.006-92.022Z" transform="translate(-13.87 -13.878)"/><g transform="translate(34.247 14.374)"><path class="a" d="M64.478,92.325c-8.949,0-16.23-6.819-16.23-15.2a2,2,0,0,1,4,0c0,6.185,5.486,11.217,12.23,11.217s12.229-5.032,12.229-11.217S71.222,65.909,64.478,65.909c-8.949,0-16.23-6.818-16.23-15.2s7.281-15.2,16.23-15.2a16.656,16.656,0,0,1,12.434,5.43,1.985,1.985,0,0,1-.161,2.811,2.007,2.007,0,0,1-2.823-.16,12.648,12.648,0,0,0-9.449-4.1c-6.744,0-12.23,5.031-12.23,11.216s5.486,11.217,12.23,11.217c8.948,0,16.229,6.819,16.229,15.2S73.426,92.325,64.478,92.325Z" transform="translate(-48.248 -28.252)"/><path class="a" d="M64.032,99.585a2,2,0,0,1-2-1.993V30.245a2,2,0,0,1,4,0V97.592A2,2,0,0,1,64.032,99.585Z" transform="translate(-48.248 -28.252)"/></g></svg>