<svg xmlns="http://www.w3.org/2000/svg" width="50" height="50" viewBox="0 0 50 50"><defs><style>.a{fill:#aa0601;stroke:#aa0601;stroke-width:2px;}</style></defs><path class="a" d="M25,38A13,13,0,1,0,12,25,13.015,13.015,0,0,0,25,38Zm0-24A11,11,0,1,1,14,25,11.013,11.013,0,0,1,25,14Z"/><rect class="a" width="2" height="7" transform="translate(24 1)"/><rect class="a" width="2" height="7" transform="translate(24 42)"/><rect class="a" width="7" height="2" transform="translate(42 24)"/><rect class="a" width="7" height="2" transform="translate(1 24)"/><rect class="a" width="7" height="2" transform="translate(36.315 12.274) rotate(-45)"/><rect class="a" width="7" height="2" transform="translate(7.321 41.265) rotate(-45)"/><rect class="a" width="2" height="7" transform="translate(36.313 37.727) rotate(-45)"/><rect class="a" width="2" height="7" transform="translate(7.322 8.736) rotate(-45)"/></svg>