<svg xmlns="http://www.w3.org/2000/svg" width="48" height="48" viewBox="0 0 48 48"><defs><style>.a{fill:none;}.b{fill:#aa0601;}</style></defs><g transform="translate(-64 -64)"><path class="a" d="M193.754,145.465a6.033,6.033,0,0,0-2.556-.455,5.554,5.554,0,0,0-3.516,1.155,4.878,4.878,0,0,0-1.935,3.344,4.82,4.82,0,0,0-.007.938.234.234,0,0,0,.234.21h1.659a.234.234,0,0,0,.234-.234,5.133,5.133,0,0,1,.063-.8,2.812,2.812,0,0,1,1.122-1.745,3.408,3.408,0,0,1,2.174-.671,4.108,4.108,0,0,1,1.589.241,2.431,2.431,0,0,1,1.677,2.22c0,1.406-.852,2.049-2.358,3.061a4.807,4.807,0,0,0-2.408,4.16v.859a.234.234,0,0,0,.234.234h1.719a.234.234,0,0,0,.234-.234v-.859a2.594,2.594,0,0,1,1.441-2.344c1.559-1.048,3.325-2.234,3.325-4.877A4.6,4.6,0,0,0,193.754,145.465Z" transform="translate(-103.222 -67.992)"/><path class="b" d="M88,64a24,24,0,1,0,24,24A24.006,24.006,0,0,0,88,64Zm1.305,37.75H85.529a.321.321,0,0,1-.32-.321V97.654a.321.321,0,0,1,.32-.321h3.776a.321.321,0,0,1,.32.321v3.775A.321.321,0,0,1,89.305,101.75ZM91.43,89.375c-2.026,1.36-2.305,2.606-2.305,3.75V94.5a.375.375,0,0,1-.375.375H86a.375.375,0,0,1-.375-.375V93.125a7.692,7.692,0,0,1,3.853-6.657c2.41-1.618,3.773-2.643,3.773-4.9,0-1.533-.875-2.7-2.686-3.558a6.564,6.564,0,0,0-2.542-.386A5.455,5.455,0,0,0,84.543,78.7a4.478,4.478,0,0,0-1.793,2.8,8.214,8.214,0,0,0-.105,1.285.375.375,0,0,1-.375.375H79.614a.375.375,0,0,1-.375-.336,7.711,7.711,0,0,1,.011-1.5,7.822,7.822,0,0,1,3.1-5.35,8.912,8.912,0,0,1,5.625-1.848,9.8,9.8,0,0,1,4.09.728c3.026,1.439,4.689,3.825,4.689,6.718C96.75,85.8,93.924,87.7,91.43,89.375Z"/></g></svg>