<svg xmlns="http://www.w3.org/2000/svg" xmlns:xlink="http://www.w3.org/1999/xlink" width="48" height="48" viewBox="0 0 48 48"><defs><style>.a,.c{fill:#fff;}.a{stroke:#fff;}.b{clip-path:url(#a);}</style><clipPath id="a"><rect class="a" width="48" height="48" transform="translate(0.008)"/></clipPath></defs><g class="b" transform="translate(-0.008)"><g transform="translate(3.7 3.692)"><path class="c" d="M31.812,40.615H8.8A8.78,8.78,0,0,1,0,31.82V8.8A8.79,8.79,0,0,1,8.8,0H31.812a8.792,8.792,0,0,1,8.8,8.8V31.82a8.782,8.782,0,0,1-8.8,8.795ZM20.239,6.5c-8.155,0-14.79,5.392-14.79,12.017a10.79,10.79,0,0,0,3.509,7.788A15.84,15.84,0,0,0,17.8,30.365c.741.157,1.185.41,1.285.748a3.13,3.13,0,0,1,.039,1.345l0,.028c-.063.393-.173,1.073-.2,1.23l-.007.046a1.072,1.072,0,0,0,.082.817.506.506,0,0,0,.4.151,2.239,2.239,0,0,0,.808-.2c1.713-.726,8.607-5.093,11.612-8.6a10.649,10.649,0,0,0,3.217-7.411C35.029,11.9,28.394,6.5,20.239,6.5Z" transform="translate(0 0)"/><g transform="translate(10.402 15.345)"><g transform="translate(0)"><path class="c" d="M48.234,45.3H47.2a.294.294,0,0,0-.3.267V51.9a.272.272,0,0,0,.3.267h1.034a.294.294,0,0,0,.3-.267V45.567a.294.294,0,0,0-.3-.267" transform="translate(-41.365 -45.233)"/><path class="c" d="M60.735,45.3h-1a.294.294,0,0,0-.3.267v3.768l-2.9-3.934a.033.033,0,0,0-.033-.033h0l-.033-.033H55.4a.294.294,0,0,0-.3.267v6.335a.272.272,0,0,0,.3.267h1.034a.294.294,0,0,0,.3-.267V48.167l2.9,3.934c.033.033.033.067.067.067h1.034a.294.294,0,0,0,.3-.267V45.567a.294.294,0,0,0-.3-.267" transform="translate(-46.831 -45.233)"/><path class="c" d="M34.7,50.535H31.934V45.5a.3.3,0,0,0-.3-.3H30.6a.3.3,0,0,0-.3.3v6.335h0a.474.474,0,0,0,.067.2h0a.474.474,0,0,0,.2.067h4.068a.272.272,0,0,0,.267-.3V50.768c.1-.1-.033-.233-.2-.233" transform="translate(-30.3 -45.167)"/><path class="c" d="M80.234,46.734a.272.272,0,0,0,.267-.3V45.4a.294.294,0,0,0-.267-.3H76.167a.474.474,0,0,0-.2.067h0a.474.474,0,0,0-.067.2h0V51.7h0a.474.474,0,0,0,.067.2h0a.474.474,0,0,0,.2.067h4.068a.272.272,0,0,0,.267-.3V50.635a.294.294,0,0,0-.267-.3H77.467V49.4h2.767a.272.272,0,0,0,.267-.3V48.067a.294.294,0,0,0-.267-.3H77.467V46.734Z" transform="translate(-60.697 -45.1)"/></g></g></g></g></svg>