<svg xmlns="http://www.w3.org/2000/svg" width="100" height="100" viewBox="0 0 100 100"><defs><style>.a{fill:#650300;}</style></defs><g transform="translate(0 0)"><path class="a" d="M63.908,113.872h0a50,50,0,1,1,50-50A50.06,50.06,0,0,1,63.9,113.872ZM63.9,17.862a46.01,46.01,0,1,0,0,92.021h0A46.01,46.01,0,0,0,63.9,17.862Z" transform="translate(-13.902 -13.872)"/><path class="a" d="M63.907,99.241h0a35.37,35.37,0,1,1,35.37-35.37A35.415,35.415,0,0,1,63.9,99.241Zm0-66.755a31.385,31.385,0,1,0,0,62.769h0a31.385,31.385,0,0,0,0-62.769Z" transform="translate(-13.902 -13.872)"/><path class="a" d="M64.031,70.234a6.232,6.232,0,1,1,4.406-1.822A6.2,6.2,0,0,1,64.031,70.234Zm0-8.468a2.218,2.218,0,0,0-1.58.655,2.241,2.241,0,0,0,0,3.164,2.293,2.293,0,0,0,3.157,0,2.235,2.235,0,0,0-1.579-3.816Z" transform="translate(-14.031 -14.001)"/></g><path class="a" d="M67.025,63.007a2,2,0,0,1-1.414-3.414l13.8-13.8a2,2,0,0,1,2.828,2.828l-13.8,13.8A1.99,1.99,0,0,1,67.025,63.007Z" transform="translate(-14.061 -13.97)"/><path class="a" d="M61.016,62.986A1.992,1.992,0,0,1,59.6,62.4L49.352,52.149A2,2,0,0,1,52.18,49.32L62.43,59.572a2,2,0,0,1-1.414,3.414Z" transform="translate(-14.006 -13.977)"/></svg>