<svg xmlns="http://www.w3.org/2000/svg" width="48" height="37.733" viewBox="0 0 48 37.733"><defs><style>.a{fill:#aa0601;}</style></defs><path class="a" d="M48.733,19.7l.067-.067c0-.067.067-.067.067-.133a.065.065,0,0,1,.067-.067A.233.233,0,0,1,49,19.3v-.667c0-.067,0-.133-.067-.133,0-.067,0-.067-.067-.067,0-.067-.067-.067-.067-.133l-.067-.067a.065.065,0,0,0-.067-.067l-7.8-9.2a1.418,1.418,0,0,0-1-.467H10.133a1.418,1.418,0,0,0-1,.467l-7.8,9a.065.065,0,0,1-.067.067L1.2,18.1c0,.067-.067.067-.067.133a.065.065,0,0,1-.067.067A.233.233,0,0,1,1,18.433V19.1c0,.067,0,.133.067.133,0,.067,0,.067.067.067,0,.067.067.067.067.133l.067.067a.065.065,0,0,0,.067.067L24,45.833h0l.133.133.067.067h.067a.233.233,0,0,0,.133.067.065.065,0,0,1,.067.067c.067,0,.067,0,.133.067h.8c.067,0,.067,0,.133-.067A.065.065,0,0,0,25.6,46.1c.067,0,.067-.067.133-.067H25.8l.067-.067L26,45.833h0L48.667,19.567C48.667,19.7,48.733,19.7,48.733,19.7Zm-35.8.467,7.467,17.6L5.267,20.167Zm13.4,0H34.2L26.333,38.633ZM23.667,38.633,15.8,20.167h7.867Zm13.4-18.467h7.667L29.6,37.833ZM44.733,17.5H37.067l-2.733-6.333h4.933ZM34.2,17.5H26.333V11.167h5.133ZM23.667,11.167V17.5H15.8l2.733-6.333Zm-12.933,0h4.933L12.933,17.5H5.267Z" transform="translate(-1 -8.5)"/></svg>