<svg xmlns="http://www.w3.org/2000/svg" width="32" height="25.155" viewBox="0 0 32 25.155"><defs><style>.a{fill:#fff;}</style></defs><path class="a" d="M32.822,15.967l.044-.044c0-.044.044-.044.044-.089a.044.044,0,0,1,.044-.044A.155.155,0,0,1,33,15.7v-.444c0-.044,0-.089-.044-.089,0-.044,0-.044-.044-.044,0-.044-.044-.044-.044-.089l-.044-.044a.044.044,0,0,0-.044-.044l-5.2-6.133a.945.945,0,0,0-.667-.311H7.089a.945.945,0,0,0-.667.311l-5.2,6a.044.044,0,0,1-.044.044l-.044.044c0,.044-.044.044-.044.089a.044.044,0,0,1-.044.044A.155.155,0,0,1,1,15.122v.444c0,.044,0,.089.044.089,0,.044,0,.044.044.044,0,.044.044.044.044.089l.044.044a.044.044,0,0,0,.044.044L16.333,33.389h0l.089.089.044.044h.044a.155.155,0,0,0,.089.044.044.044,0,0,1,.044.044c.044,0,.044,0,.089.044h.533c.044,0,.044,0,.089-.044a.044.044,0,0,0,.044-.044c.044,0,.044-.044.089-.044h.044l.044-.044.089-.089h0L32.778,15.878C32.778,15.967,32.822,15.967,32.822,15.967Zm-23.867.311,4.978,11.733L3.844,16.278Zm8.933,0h5.244L17.889,28.589ZM16.111,28.589,10.867,16.278h5.244Zm8.933-12.311h5.111L20.067,28.056ZM30.156,14.5H25.044l-1.822-4.222h3.289Zm-7.022,0H17.889V10.278h3.422Zm-7.022-4.222V14.5H10.867l1.822-4.222Zm-8.622,0h3.289L8.956,14.5H3.844Z" transform="translate(-1 -8.5)"/></svg>