<svg xmlns="http://www.w3.org/2000/svg" xmlns:xlink="http://www.w3.org/1999/xlink" width="48" height="48" viewBox="0 0 48 48"><defs><style>.a,.b{fill:#fff;}.a{stroke:#fff;}.c{clip-path:url(#a);}.d{clip-path:url(#b);}</style><clipPath id="a"><rect class="a" width="48" height="48" transform="translate(0)"/></clipPath><clipPath id="b"><rect class="b" width="39.385" height="40.615" transform="translate(0 0)"/></clipPath></defs><g transform="translate(0.471)"><g class="c" transform="translate(-0.471 0)"><g class="d" transform="translate(4.923 3.692)"><path class="b" d="M40.008,20A20,20,0,1,0,16.878,39.766V25.786H11.8V20h5.079V15.6c0-5.013,2.985-7.783,7.556-7.783a30.765,30.765,0,0,1,4.477.391v4.923H26.388c-2.485,0-3.258,1.543-3.258,3.126V20h5.548l-.887,5.782H23.129V39.766A20.007,20.007,0,0,0,40.008,20Z" transform="translate(-0.343 0.308)"/></g></g></g></svg>