<svg xmlns="http://www.w3.org/2000/svg" width="24" height="24" viewBox="0 0 24 24"><path d="M49,34a5.015,5.015,0,0,1,5,5V49a5.015,5.015,0,0,1-5,5H39a5.015,5.015,0,0,1-5-5V39a5.015,5.015,0,0,1,5-5H49m0-2H39a7.021,7.021,0,0,0-7,7V49a7.021,7.021,0,0,0,7,7H49a7.021,7.021,0,0,0,7-7V39A7.021,7.021,0,0,0,49,32Z" transform="translate(-32 -32)"/><path d="M350.963,109.936a1.629,1.629,0,1,1,1.156-.477A1.633,1.633,0,0,1,350.963,109.936Z" transform="translate(-332.545 -102.72)"/><path d="M150.531,146.177a4.354,4.354,0,1,1-4.354,4.354,4.354,4.354,0,0,1,4.354-4.354m0-2.177a6.531,6.531,0,1,0,6.531,6.531A6.531,6.531,0,0,0,150.531,144Z" transform="translate(-138.531 -138.531)"/></svg>