<svg xmlns="http://www.w3.org/2000/svg" xmlns:xlink="http://www.w3.org/1999/xlink" width="151" height="40" viewBox="0 0 151 40"><defs><style>.a{fill:none;}.b,.f{fill:#2a8356;}.b{stroke:#707070;}.c{clip-path:url(#a);}.d{fill:#121212;}.e{clip-path:url(#b);}</style><clipPath id="a"><rect class="a" width="103" height="24" transform="translate(72 35)"/></clipPath><clipPath id="b"><rect class="b" width="40" height="40"/></clipPath></defs><g transform="translate(-208 -260)"><g class="c" transform="translate(184 233)"><path class="d" d="M9.6-3.72H4.584L3.432,0H.144L5.568-16.8H8.856L14.256,0H10.8ZM5.352-6.36h3.6l-1.7-5.616H7.032ZM21.24-9.936h-.12l.144,1.992V0h-3.12V-16.8h2.88L26.832-6.528h.12l-.216-2.016V-16.8h3.12V0h-2.88ZM35.16-5.5H37.8V-3.12l.144.048a7.177,7.177,0,0,0,1.212.4,6.089,6.089,0,0,0,1.4.156,3.5,3.5,0,0,0,2.088-.54,1.7,1.7,0,0,0,.744-1.452,1.628,1.628,0,0,0-.612-1.32,6.18,6.18,0,0,0-1.512-.888q-.9-.384-1.968-.768a9.393,9.393,0,0,1-1.968-.972A5.42,5.42,0,0,1,35.82-9.936a3.979,3.979,0,0,1-.612-2.3,4.624,4.624,0,0,1,.42-1.98A4.552,4.552,0,0,1,36.8-15.768a5.453,5.453,0,0,1,1.812-1.008,7.257,7.257,0,0,1,2.352-.36,15.68,15.68,0,0,1,2.88.264,7.793,7.793,0,0,1,2.256.72v4.872h-2.64v-2.664a.453.453,0,0,1-.144-.024,8.975,8.975,0,0,0-1.14-.228,8.9,8.9,0,0,0-1.212-.084,3.146,3.146,0,0,0-1.812.456A1.417,1.417,0,0,0,38.5-12.6a1.6,1.6,0,0,0,.612,1.3,6.758,6.758,0,0,0,1.512.912q.9.408,1.968.816a10.314,10.314,0,0,1,1.968,1A5.42,5.42,0,0,1,46.068-7.1a3.844,3.844,0,0,1,.612,2.232A5.063,5.063,0,0,1,46.2-2.6,4.579,4.579,0,0,1,44.856-.972a5.9,5.9,0,0,1-2.04.984,9.549,9.549,0,0,1-2.544.324A9.329,9.329,0,0,1,38.58.192a11.132,11.132,0,0,1-1.44-.36,9.841,9.841,0,0,1-1.164-.456q-.5-.24-.816-.408ZM54.6-7.416,54.648-5.4h.1l.408-1.9,1.44-4.464H59.04L60.384-7.3l.432,1.9h.1l.048-2.064.672-9.336h3.024L62.928,0H60.144l-1.8-5.3-.552-2.3h-.12L57.1-5.3,55.152,0h-2.88L50.544-16.8h3.288ZM68.88-16.8H79.9v2.928H72.168V-9.96H79.3v2.928H72.168v4.1h7.848V0H68.88Zm16.608.168q.552-.1,1.188-.18t1.272-.132q.636-.048,1.236-.072t1.1-.024a11.78,11.78,0,0,1,2.316.228,6.186,6.186,0,0,1,2.04.78,4.143,4.143,0,0,1,1.44,1.488,4.6,4.6,0,0,1,.54,2.328,6.917,6.917,0,0,1-.2,1.788A4.913,4.913,0,0,1,95.856-9.1a4.023,4.023,0,0,1-.876,1,7.8,7.8,0,0,1-1.116.756L97.92,0H94.128L90.744-6.576H88.776V0H85.488Zm5.04,2.52q-.5,0-1,.024a3.734,3.734,0,0,0-.756.1V-9.12h1.3A3.721,3.721,0,0,0,92.3-9.744a2.373,2.373,0,0,0,.864-2.064A2.173,2.173,0,0,0,92.5-13.5,2.83,2.83,0,0,0,90.528-14.112Z" transform="translate(74 55)"/></g><g class="e" transform="translate(208 260)"><path class="f" d="M-3017.5-951l-5.785-5.784-6.589.66.658-6.592L-3035-968.5l5.783-5.784-.658-6.59,6.589.659L-3017.5-986l5.783,5.784,6.59-.659-.659,6.589L-3000-968.5l-5.784,5.784.659,6.59-6.59-.66L-3017.5-951h0Zm0-30-12.5,12.5,12.5,12.5,12.5-12.5Zm-3.1,15.6-6.9-3.1,6.9-3.1,3.1-6.9,3.1,6.9,6.9,3.1-6.9,3.1-3.1,6.9Z" transform="translate(3037.5 988.501)"/></g></g></svg>