<svg xmlns="http://www.w3.org/2000/svg" width="28" height="21" viewBox="0 0 28 21"><defs><style>.a,.b{fill:none;stroke:#000;stroke-linejoin:round;stroke-miterlimit:10;stroke-width:2px;}.b{stroke-linecap:round;}</style></defs><g transform="translate(-2 -7)"><circle class="a" cx="3" cy="3" r="3" transform="translate(13 16)"/><path class="a" d="M12.7,12h6.6c1.2,0,2.1.4,2.1,1.7h0A2.242,2.242,0,0,0,23.6,16H29a7.818,7.818,0,0,0-7.6-8H10.6A7.818,7.818,0,0,0,3,16H8.4a2.308,2.308,0,0,0,2.2-2.3h0C10.6,12.4,11.5,12,12.7,12Z"/><line class="b" y2="2" transform="translate(23 25)"/><line class="b" y2="2" transform="translate(9 25)"/><path class="a" d="M9,16c-1.5,2.4-3,6.1-3,9H26c0-2.9-1.5-6.6-3-9"/></g></svg>